SplineFontDB: 3.0
FontName: Klaudia-Book
FullName: Klaudia Book
FamilyName: Klaudia
Weight: Book
Copyright: Copyright (c) 2020-2024 by Wojciech Kalinowski "wmk69" with Reserved Font Name "Klaudia-Book".\nThis Font Software is licensed under the SIL Open Font License, Version 1.1.
Version: 3.1.0; 2021-05-10
ItalicAngle: 0
UnderlinePosition: -80
UnderlineWidth: 200
Ascent: 1638
Descent: 410
InvalidEm: 0
LayerCount: 2
Layer: 0 1 "Warstwa t+AUIA-a" 1
Layer: 1 1 "Plan pierwszy" 0
XUID: [1021 783 23647091 10727182]
StyleMap: 0x0040
FSType: 0
OS2Version: 3
OS2_WeightWidthSlopeOnly: 0
OS2_UseTypoMetrics: 1
CreationTime: 1260698820
ModificationTime: 1620665319
PfmFamily: 33
TTFWeight: 400
TTFWidth: 5
LineGap: 300
VLineGap: 0
Panose: 2 13 5 2 5 5 3 6 2 4
OS2TypoAscent: 2000
OS2TypoAOffset: 0
OS2TypoDescent: -450
OS2TypoDOffset: 0
OS2TypoLinegap: 300
OS2WinAscent: 2000
OS2WinAOffset: 0
OS2WinDescent: 450
OS2WinDOffset: 0
HheadAscent: 2000
HheadAOffset: 0
HheadDescent: -450
HheadDOffset: 0
OS2SubXSize: 1434
OS2SubYSize: 1331
OS2SubXOff: 0
OS2SubYOff: 287
OS2SupXSize: 1434
OS2SupYSize: 1331
OS2SupXOff: 0
OS2SupYOff: 977
OS2StrikeYSize: 102
OS2StrikeYPos: 512
OS2CapHeight: 1510
OS2XHeight: 1100
OS2Vendor: '    '
OS2CodePages: 20000093.00000000
OS2UnicodeRanges: 8000002f.4000204b.00000000.00000000
Lookup: 258 0 0 "'kern' Horizontal Kerning lookup 0" { "'kern' Horizontal Kerning lookup 0-1 subtable" [307,0,4] } ['kern' ('DFLT' <'dflt' > 'grek' <'dflt' > 'latn' <'dflt' > ) ]
MarkAttachClasses: 1
DEI: 91125
KernClass2: 68 54 "'kern' Horizontal Kerning lookup 0-1 subtable"
 84 A Agrave Aacute Acircumflex Atilde Adieresis Aring Amacron Abreve Aogonek Aringacute
 17 B uni1E02 uni1E9E
 137 C E AE Ccedilla Egrave Eacute Ecircumflex Edieresis Cacute Ccircumflex Cdotaccent Ccaron Emacron Ebreve Edotaccent Eogonek Ecaron AEacute
 122 D O Q Eth Ograve Oacute Ocircumflex Otilde Odieresis Oslash Dcaron Dcroat Omacron Obreve Ohungarumlaut Oslashacute uni1E0A

StartChar: .notdef
Encoding: 65536 -1 0
Width: 994
Flags: W
HStem: 0 68<260 734> 1442 68<260 734>
VStem: 150 110<68 1442> 734 110<68 1442>
LayerCount: 2
Fore
SplineSet
150 0 m 1,0,-1
 150 1510 l 1,1,-1
 844 1510 l 1,2,-1
 844 0 l 1,3,-1
 150 0 l 1,0,-1
260 68 m 1,4,-1
 734 68 l 1,5,-1
 734 1442 l 1,6,-1
 260 1442 l 1,7,-1
 260 68 l 1,4,-1
EndSplineSet
Validated: 1
EndChar

StartChar: exclam
Encoding: 33 33 4
Width: 740
GlyphClass: 2
Flags: W
HStem: -20 255<282.129 457.809> 1490 20G<250 490>
VStem: 244 252<19.2217 196.809> 315 110<353 608.181>
LayerCount: 2
Fore
SplineSet
250 1510 m 1,0,-1
 490 1510 l 1,1,-1
 425 353 l 1,2,-1
 315 353 l 1,3,-1
 250 1510 l 1,0,-1
370 -20 m 0,4,5
 317 -20 317 -20 281 18 c 0,6,7
 244 57 244 57 244 108 c 0,8,9
 244 157 244 157 281 197 c 24,10,11
 316 235 316 235 370 235 c 0,12,13
 422 235 422 235 459 198 c 0,14,15
 496 160 496 160 496 108 c 0,16,17
 496 55 496 55 459 17 c 24,18,19
 421 -20 421 -20 370 -20 c 0,4,5
EndSplineSet
Validated: 1
EndChar

StartChar: quotedbl
Encoding: 34 34 5
Width: 506
GlyphClass: 2
Flags: W
HStem: 1120 430<50 200 306 456>
VStem: 50 150<1120 1550> 306 150<1120 1550>
LayerCount: 2
Fore
SplineSet
306 1550 m 1,0,-1
 456 1550 l 1,1,-1
 456 1120 l 1,2,-1
 306 1120 l 1,3,-1
 306 1550 l 1,0,-1
50 1550 m 1,4,-1
 200 1550 l 1,5,-1
 200 1120 l 1,6,-1
 50 1120 l 1,7,-1
 50 1550 l 1,4,-1
EndSplineSet
Validated: 1
EndChar

StartChar: numbersign
Encoding: 35 35 6
Width: 1289
GlyphClass: 2
Flags: W
HStem: 500 120<150 390 510 780 900 1139> 890 120<150 390 510 780 900 1139>
VStem: 390 120<260 500 620 890 1010 1250> 780 120<260 500 620 890 1010 1250>
LayerCount: 2
Fore
SplineSet
390 1250 m 1,0,-1
 510 1250 l 1,1,-1
 510 1010 l 1,2,-1
 780 1010 l 1,3,-1
 780 1250 l 1,4,-1
 900 1250 l 1,5,-1
 900 1010 l 1,6,-1
 1139 1010 l 1,7,-1
 1139 890 l 1,8,-1
 900 890 l 1,9,-1
 900 620 l 1,10,-1
 1139 620 l 1,11,-1
 1139 500 l 1,12,-1
 900 500 l 1,13,-1
 900 260 l 1,14,-1
 780 260 l 1,15,-1
 780 500 l 1,16,-1
 510 500 l 1,17,-1
 510 260 l 1,18,-1
 390 260 l 1,19,-1
 390 500 l 1,20,-1
 150 500 l 1,21,-1
 150 620 l 1,22,-1
 390 620 l 1,23,-1
 390 890 l 1,24,-1
 150 890 l 1,25,-1
 150 1010 l 1,26,-1
 390 1010 l 1,27,-1
 390 1250 l 1,0,-1
780 890 m 1,28,-1
 510 890 l 1,29,-1
 510 620 l 1,30,-1
 780 620 l 1,31,-1
 780 890 l 1,28,-1
EndSplineSet
Validated: 1
EndChar

StartChar: dollar
Encoding: 36 36 7
Width: 1284
GlyphClass: 2
Flags: W
HStem: -20 120<434.168 653> -7 125<753 838.626> 1408 121<555.863 653 753 868.137>
VStem: 281 188<1077.48 1319.8> 653 100<-120 -19 118 711 985 1404 1525.01 1630> 980 204<292.665 593.067>
DStem2: 610 1006 518 823 0.903388 -0.428824<-152.016 47.851 255.687 492.231>
LayerCount: 2
Fore
SplineSet
617 -20 m 0,0,1
 309 -20 309 -20 100 206 c 1,2,-1
 257 293 l 1,3,4
 401 100 401 100 630 100 c 0,5,6
 642 100 642 100 653 101 c 1,7,-1
 653 759 l 1,8,-1
 518 823 l 2,9,10
 281 936 281 936 281 1149 c 0,11,12
 281 1316 281 1316 422 1430 c 0,13,14
 523 1512 523 1512 653 1527 c 1,15,-1
 653 1630 l 1,16,-1
 753 1630 l 1,17,-1
 753 1529 l 1,18,19
 937 1517 937 1517 1074 1391 c 1,20,-1
 938 1290 l 1,21,22
 868 1395 868 1395 753 1408 c 1,23,-1
 753 937 l 1,24,-1
 903 864 l 2,25,26
 1184 728 1184 728 1184 495 c 0,27,28
 1184 313 1184 313 1057 168 c 0,29,30
 935 29 935 29 753 -7 c 1,31,-1
 753 -120 l 1,32,-1
 653 -120 l 1,33,-1
 653 -19 l 1,34,35
 635 -20 635 -20 617 -20 c 0,0,1
653 985 m 1,36,-1
 653 1404 l 1,37,38
 582 1391 582 1391 535 1346 c 0,39,40
 469 1283 469 1283 469 1198 c 0,41,42
 469 1074 469 1074 610 1006 c 2,43,-1
 653 985 l 1,36,-1
753 711 m 1,44,-1
 753 118 l 1,45,46
 857 152 857 152 919 248 c 0,47,48
 980 343 980 343 980 454 c 0,49,50
 980 604 980 604 834 673 c 2,51,-1
 753 711 l 1,44,-1
EndSplineSet
Validated: 1
EndChar

StartChar: percent
Encoding: 37 37 8
Width: 1519
GlyphClass: 2
Flags: W
HStem: -20 93<929.693 1145.71> 0 21G<250 437.166> 513 93<962.295 1178.08> 904 93<340.923 556.705> 1437 93<373.295 589.307> 1490 20G<1081.83 1269>
VStem: 150 141<1051.26 1345.2> 639 141<1088.8 1382.74> 739 141<127.257 421.204> 1228 141<164.796 458.743>
DStem2: 250 0 426 0 0.487458 0.873146<85.7927 1729.38>
LayerCount: 2
Fore
SplineSet
1012 -20 m 0,0,1
 889 -20 889 -20 810 64 c 0,2,3
 739 139 739 139 739 253 c 0,4,5
 739 399 739 399 849 506 c 0,6,7
 952 606 952 606 1096 606 c 0,8,9
 1218 606 1218 606 1298 522 c 0,10,11
 1369 447 1369 447 1369 333 c 0,12,13
 1369 187 1369 187 1259 80 c 0,14,15
 1156 -20 1156 -20 1012 -20 c 0,0,1
1028 73 m 0,16,17
 1113 73 1113 73 1167 140 c 0,18,19
 1228 214 1228 214 1228 318 c 0,20,21
 1228 406 1228 406 1189 456 c 0,22,23
 1146 513 1146 513 1080 513 c 0,24,25
 995 513 995 513 941 446 c 0,26,27
 880 372 880 372 880 268 c 0,28,29
 880 180 880 180 919 130 c 0,30,31
 962 73 962 73 1028 73 c 0,16,17
507 1530 m 0,32,33
 630 1530 630 1530 709 1446 c 0,34,35
 780 1371 780 1371 780 1257 c 0,36,37
 780 1111 780 1111 670 1004 c 0,38,39
 567 904 567 904 423 904 c 0,40,41
 301 904 301 904 221 988 c 0,42,43
 150 1063 150 1063 150 1177 c 0,44,45
 150 1323 150 1323 260 1430 c 0,46,47
 363 1530 363 1530 507 1530 c 0,32,33
491 1437 m 0,48,49
 406 1437 406 1437 352 1370 c 0,50,51
 291 1296 291 1296 291 1192 c 0,52,53
 291 1104 291 1104 330 1054 c 0,54,55
 373 997 373 997 439 997 c 0,56,57
 524 997 524 997 578 1064 c 0,58,59
 639 1138 639 1138 639 1242 c 0,60,61
 639 1330 639 1330 600 1380 c 0,62,63
 557 1437 557 1437 491 1437 c 0,48,49
250 0 m 1,64,-1
 1093 1510 l 1,65,-1
 1269 1510 l 1,66,-1
 426 0 l 1,67,-1
 250 0 l 1,64,-1
EndSplineSet
Validated: 1
EndChar

StartChar: ampersand
Encoding: 38 38 9
Width: 1695
GlyphClass: 2
Flags: W
HStem: -20 120<506.066 909.855> 0 21G<1225.43 1464> 1415 115<613.858 865.241>
VStem: 150 215<251.913 649.72> 350 184<1076.93 1334.94> 1315 180<646.402 1034>
DStem2: 710 1034 604 873 0.588832 -0.808255<62.6839 806.678 974.6 1147.82>
LayerCount: 2
Fore
SplineSet
1464 0 m 1,0,-1
 1240 0 l 1,1,-1
 1138 140 l 1,2,3
 932 -20 932 -20 637 -20 c 0,4,5
 418 -20 418 -20 277 119 c 0,6,7
 150 244 150 244 150 447 c 0,8,9
 150 624 150 624 279 794 c 0,10,11
 360 902 360 902 521 978 c 1,12,13
 350 1030 350 1030 350 1181 c 0,14,15
 350 1312 350 1312 464 1417 c 0,16,17
 586 1530 586 1530 770 1530 c 0,18,19
 916 1530 916 1530 1007 1452 c 0,20,21
 1047 1417 1047 1417 1069 1374 c 1,22,-1
 909 1292 l 1,23,24
 900 1344 900 1344 864 1376 c 0,25,26
 821 1415 821 1415 742 1415 c 0,27,28
 642 1415 642 1415 581 1339 c 0,29,30
 534 1280 534 1280 534 1189 c 0,31,32
 534 1116 534 1116 582 1073 c 0,33,34
 625 1034 625 1034 704 1034 c 2,35,-1
 710 1034 l 1,36,-1
 1185 382 l 1,37,38
 1315 598 1315 598 1315 1034 c 1,39,-1
 1495 1034 l 1,40,41
 1495 544 1495 544 1268 269 c 1,42,-1
 1464 0 l 1,0,-1
604 873 m 1,43,44
 528 836 528 836 470 762 c 0,45,46
 365 627 365 627 365 450 c 0,47,48
 365 296 365 296 445 198 c 128,-1,49
 525 100 525 100 669 100 c 0,50,51
 904 100 904 100 1065 240 c 1,52,-1
 604 873 l 1,43,44
EndSplineSet
Validated: 1
EndChar

StartChar: quotesingle
Encoding: 39 39 10
Width: 250
GlyphClass: 2
Flags: W
HStem: 1120 430<50 200>
VStem: 50 150<1120 1550>
LayerCount: 2
Fore
SplineSet
50 1550 m 1,0,-1
 200 1550 l 1,1,-1
 200 1120 l 1,2,-1
 50 1120 l 1,3,-1
 50 1550 l 1,0,-1
EndSplineSet
Validated: 1
EndChar

StartChar: parenleft
Encoding: 40 40 11
Width: 739
GlyphClass: 2
Flags: W
VStem: 200 209<358.913 1149.07>
LayerCount: 2
Fore
SplineSet
689 -250 m 1,0,1
 533 -250 l 1,2,3
 399 -62 399 -62 309 159 c 0,4,5
 200 425 200 425 200 755 c 128,-1,6
 200 1085 200 1085 309 1351 c 0,7,8
 398 1568 398 1568 533 1760 c 1,9,-1
 689 1760 l 1,10,11
 543 1535 543 1535 480 1297 c 0,12,13
 409 1031 409 1031 409 755 c 0,14,15
 409 469 409 469 480 213 c 0,16,17
 545 -20 545 -20 689 -250 c 1,0,1
EndSplineSet
Validated: 1
EndChar

StartChar: parenright
Encoding: 41 41 12
Width: 739
GlyphClass: 2
Flags: W
VStem: 330 209<358.913 1149.07>
LayerCount: 2
Fore
SplineSet
50 -250 m 1,0,1
 195 -19 195 -19 259 213 c 0,2,3
 330 469 330 469 330 755 c 0,4,5
 330 1031 330 1031 259 1297 c 0,6,7
 196 1534 196 1534 50 1760 c 1,8,-1
 206 1760 l 1,9,10
 339 1571 339 1571 430 1351 c 0,11,12
 539 1085 539 1085 539 755 c 128,-1,13
 539 425 539 425 430 159 c 0,14,15
 340 -61 340 -61 206 -250 c 1,16,-1
 50 -250 l 1,0,1
EndSplineSet
Validated: 1
EndChar

StartChar: asterisk
Encoding: 42 42 13
Width: 738
GlyphClass: 2
Flags: W
HStem: 883 667<309 429>
VStem: 309 120<883 1113 1320 1550>
DStem2: 110 1435 50 1331 0.866485 -0.499203<0 229.767 437.723 666.991> 50 1102 110 998 0.866485 0.499203<0.0719572 229.34 437.296 667.063>
LayerCount: 2
Fore
SplineSet
309 1550 m 1,0,-1
 429 1550 l 1,1,-1
 429 1320 l 1,2,-1
 628 1435 l 1,3,-1
 688 1331 l 1,4,-1
 489 1216 l 1,5,-1
 688 1102 l 1,6,-1
 628 998 l 1,7,-1
 429 1113 l 1,8,-1
 429 883 l 1,9,-1
 309 883 l 1,10,-1
 309 1113 l 1,11,-1
 110 998 l 1,12,-1
 50 1102 l 1,13,-1
 249 1216 l 1,14,-1
 50 1331 l 1,15,-1
 110 1435 l 1,16,-1
 309 1320 l 1,17,-1
 309 1550 l 1,0,-1
EndSplineSet
Validated: 1
EndChar

StartChar: plus
Encoding: 43 43 14
Width: 1180
GlyphClass: 2
Flags: W
HStem: 680 150<150 515 665 1030>
VStem: 515 150<315 680 830 1195>
LayerCount: 2
Fore
SplineSet
515 1195 m 1,0,-1
 665 1195 l 1,1,-1
 665 830 l 1,2,-1
 1030 830 l 1,3,-1
 1030 680 l 1,4,-1
 665 680 l 1,5,-1
 665 315 l 1,6,-1
 515 315 l 1,7,-1
 515 680 l 1,8,-1
 150 680 l 1,9,-1
 150 830 l 1,10,-1
 515 830 l 1,11,-1
 515 1195 l 1,0,-1
EndSplineSet
Validated: 1
EndChar

StartChar: comma
Encoding: 44 44 15
Width: 352
GlyphClass: 2
Flags: W
HStem: -270 485
VStem: 162 140<-134.998 65.12>
LayerCount: 2
Fore
SplineSet
130 215 m 1,0,1
 302 133 302 133 302 -22 c 0,2,3
 302 -188 302 -188 129 -270 c 1,4,-1
 47 -182 l 1,5,6
 161 -132 161 -132 162 -32 c 0,7,8
 162 66 162 66 42 108 c 1,9,-1
 130 215 l 1,0,1
EndSplineSet
Validated: 1
EndChar

StartChar: hyphen
Encoding: 45 45 16
Width: 1180
GlyphClass: 2
Flags: W
HStem: 680 150<150 1030>
LayerCount: 2
Fore
SplineSet
150 830 m 1,0,-1
 1030 830 l 1,1,-1
 1030 680 l 1,2,-1
 150 680 l 1,3,-1
 150 830 l 1,0,-1
EndSplineSet
Validated: 1
EndChar

StartChar: period
Encoding: 46 46 17
Width: 352
GlyphClass: 2
Flags: W
HStem: -20 255<88.1292 263.809>
VStem: 50 252<19.2217 196.809>
LayerCount: 2
Fore
SplineSet
176 -20 m 0,0,1
 123 -20 123 -20 87 18 c 0,2,3
 50 57 50 57 50 108 c 0,4,5
 50 157 50 157 87 197 c 24,6,7
 122 235 122 235 176 235 c 0,8,9
 228 235 228 235 265 198 c 0,10,11
 302 160 302 160 302 108 c 0,12,13
 302 55 302 55 265 17 c 24,14,15
 227 -20 227 -20 176 -20 c 0,0,1
EndSplineSet
Validated: 1
EndChar

StartChar: slash
Encoding: 47 47 18
Width: 1153
GlyphClass: 2
Flags: W
DStem2: 10 -130 214 -130 0.464736 0.885449<94.8061 1998.98>
LayerCount: 2
Fore
SplineSet
214 -130 m 1,0,-1
 10 -130 l 1,1,-1
 939 1640 l 1,2,-1
 1143 1640 l 1,3,-1
 214 -130 l 1,0,-1
EndSplineSet
Validated: 1
EndChar

StartChar: zero
Encoding: 48 48 19
Width: 1759
GlyphClass: 2
Flags: W
HStem: -20 120<605.003 1052.17> 1410 120<706.834 1154>
VStem: 100 220<420.134 939.165> 1439 220<570.835 1089.87>
LayerCount: 2
Fore
SplineSet
788 -20 m 0,0,1
 466 -20 466 -20 271 185 c 0,2,3
 100 365 100 365 100 648 c 0,4,5
 100 1044 100 1044 384 1306 c 0,6,7
 627 1530 627 1530 971 1530 c 0,8,9
 1293 1530 1293 1530 1488 1325 c 0,10,11
 1659 1145 1659 1145 1659 862 c 0,12,13
 1659 466 1659 466 1375 204 c 0,14,15
 1132 -20 1132 -20 788 -20 c 0,0,1
818 100 m 0,16,17
 1079 100 1079 100 1238 280 c 0,18,19
 1439 507 1439 507 1439 839 c 0,20,21
 1439 1071 1439 1071 1317 1233 c 0,22,23
 1185 1410 1185 1410 941 1410 c 0,24,25
 680 1410 680 1410 521 1230 c 0,26,27
 320 1003 320 1003 320 671 c 0,28,29
 320 439 320 439 442 277 c 0,30,31
 574 100 574 100 818 100 c 0,16,17
EndSplineSet
Validated: 1
EndChar

StartChar: one
Encoding: 49 49 20
Width: 700
GlyphClass: 2
Flags: W
HStem: 0 21G<250 450> 1390 120<40 250>
VStem: 250 200<0 1390>
LayerCount: 2
Fore
SplineSet
250 0 m 1,0,-1
 250 1390 l 1,1,-1
 40 1390 l 1,2,-1
 40 1510 l 1,3,-1
 450 1510 l 1,4,-1
 450 0 l 1,5,-1
 250 0 l 1,0,-1
EndSplineSet
Validated: 1
EndChar

StartChar: two
Encoding: 50 50 21
Width: 1343
GlyphClass: 2
Flags: W
HStem: 0 120<322 1193> 1105 21G<220.438 274> 1410 120<468.239 815.265>
VStem: 959 225<860.026 1256.33>
LayerCount: 2
Fore
SplineSet
120 0 m 1,0,-1
 120 120 l 1,1,2
 605 406 605 406 831 713 c 0,3,4
 959 887 959 887 959 1060 c 0,5,6
 959 1214 959 1214 877 1312 c 128,-1,7
 795 1410 795 1410 651 1410 c 0,8,9
 486 1410 486 1410 367 1294 c 0,10,11
 291 1220 291 1220 257 1105 c 1,12,-1
 140 1169 l 1,13,14
 184 1244 184 1244 219 1289 c 24,15,16
 405 1530 405 1530 697 1530 c 0,17,18
 916 1530 916 1530 1057 1391 c 0,19,20
 1184 1266 1184 1266 1184 1063 c 0,21,22
 1184 827 1184 827 1023 646 c 0,23,24
 743 329 743 329 322 120 c 1,25,-1
 1193 120 l 1,26,-1
 1193 0 l 1,27,-1
 120 0 l 1,0,-1
EndSplineSet
Validated: 1
EndChar

StartChar: three
Encoding: 51 51 22
Width: 1320
GlyphClass: 2
Flags: W
HStem: -20 120<347.786 717.062> 910 124<564 737.316> 1410 120<516.526 772.27>
VStem: 818 192<1118.46 1367.52> 945 225<356.527 758.624>
LayerCount: 2
Fore
SplineSet
537 -20 m 0,0,1
 229 -20 229 -20 20 206 c 1,2,-1
 177 293 l 1,3,4
 321 100 321 100 536 100 c 0,5,6
 713 100 713 100 834 242 c 0,7,8
 945 372 945 372 945 555 c 0,9,10
 945 705 945 705 874 804 c 0,11,12
 799 910 799 910 653 910 c 0,13,14
 593 910 593 910 564 906 c 1,15,-1
 564 1034 l 1,16,17
 710 1034 710 1034 771 1110 c 0,18,19
 818 1169 818 1169 818 1255 c 0,20,21
 818 1328 818 1328 770 1371 c 0,22,23
 727 1410 727 1410 658 1410 c 0,24,25
 513 1410 513 1410 422 1263 c 1,26,-1
 311 1330 l 1,27,28
 465 1530 465 1530 686 1530 c 0,29,30
 832 1530 832 1530 923 1452 c 0,31,32
 1010 1376 1010 1376 1010 1263 c 0,33,34
 1010 1089 1010 1089 814 1004 c 1,35,36
 981 966 981 966 1072 858 c 0,37,38
 1170 743 1170 743 1170 568 c 0,39,40
 1170 329 1170 329 966 148 c 0,41,42
 777 -20 777 -20 537 -20 c 0,0,1
EndSplineSet
Validated: 1
EndChar

StartChar: four
Encoding: 52 52 23
Width: 1279
GlyphClass: 2
Flags: W
HStem: 0 21G<829 1029> 293 120<215 829> 1490 20G<579 1029>
VStem: 829 200<0 293 413 1345>
LayerCount: 2
Fore
SplineSet
829 0 m 1,0,-1
 829 293 l 1,1,-1
 10 293 l 1,2,3
 329 988 329 988 829 1510 c 1,4,-1
 1029 1510 l 1,5,-1
 1029 0 l 1,6,-1
 829 0 l 1,0,-1
829 1345 m 1,7,8
 442 911 442 911 215 413 c 1,9,10
 829 413 l 1,11,-1
 829 1345 l 1,7,8
EndSplineSet
Validated: 1
EndChar

StartChar: five
Encoding: 53 53 24
Width: 1380
GlyphClass: 2
Flags: W
HStem: -20 120<407.786 777.062> 910 120<531.121 869.089> 1390 120<522 1093>
VStem: 1005 225<356.527 758.624>
DStem2: 235 787 463 970 0.158417 0.987372<216.808 640.851>
LayerCount: 2
Fore
SplineSet
597 -20 m 0,0,1
 289 -20 289 -20 80 206 c 1,2,-1
 237 293 l 1,3,4
 381 100 381 100 596 100 c 0,5,6
 773 100 773 100 894 242 c 0,7,8
 1005 372 1005 372 1005 555 c 0,9,10
 1005 705 1005 705 934 804 c 0,11,12
 859 910 859 910 713 910 c 0,13,14
 547 910 547 910 424 787 c 1,15,-1
 235 787 l 1,16,-1
 351 1510 l 1,17,-1
 1093 1510 l 1,18,-1
 1093 1390 l 1,19,-1
 522 1390 l 1,20,-1
 463 970 l 1,21,22
 589 1030 589 1030 733 1030 c 0,23,24
 987 1030 987 1030 1132 858 c 0,25,26
 1230 743 1230 743 1230 568 c 0,27,28
 1230 329 1230 329 1026 148 c 0,29,30
 837 -20 837 -20 597 -20 c 0,0,1
EndSplineSet
Validated: 1
EndChar

StartChar: six
Encoding: 54 54 25
Width: 1490
GlyphClass: 2
Flags: W
HStem: -20 120<544.299 897.03> 910 120<625.716 982.385> 1410 120<756.605 1199.02>
VStem: 150 231<319.702 788.928> 1125 215<352.155 756.33>
LayerCount: 2
Fore
SplineSet
682 -20 m 0,0,1
 458 -20 458 -20 312 130 c 0,2,3
 150 297 150 297 150 586 c 0,4,5
 150 943 150 943 322 1180 c 0,6,7
 450 1356 450 1356 666 1460 c 0,8,9
 813 1530 813 1530 993 1530 c 0,10,11
 1136 1530 1136 1530 1263 1475 c 1,12,-1
 1176 1358 l 1,13,14
 1094 1410 1094 1410 984 1410 c 0,15,16
 857 1410 857 1410 757 1366 c 0,17,18
 585 1291 585 1291 478 1102 c 0,19,20
 401 966 401 966 375 789 c 1,21,22
 561 1030 561 1030 853 1030 c 0,23,24
 1072 1030 1072 1030 1213 891 c 0,25,26
 1340 766 1340 766 1340 563 c 0,27,28
 1340 372 1340 372 1211 216 c 0,29,30
 1016 -20 1016 -20 682 -20 c 0,0,1
710 100 m 0,31,32
 904 100 904 100 1020 248 c 0,33,34
 1125 383 1125 383 1125 560 c 0,35,36
 1125 714 1125 714 1043 812 c 128,-1,37
 961 910 961 910 817 910 c 0,38,39
 645 910 645 910 523 794 c 0,40,41
 381 658 381 658 381 469 c 0,42,43
 381 301 381 301 470 205 c 256,44,45
 566 100 566 100 710 100 c 0,31,32
EndSplineSet
Validated: 1
EndChar

StartChar: seven
Encoding: 55 55 26
Width: 1042
GlyphClass: 2
Flags: W
HStem: 0 21G<100 670> 1390 120<50 793>
VStem: 100 248<0 248> 793 199<1131.38 1390>
LayerCount: 2
Fore
SplineSet
100 0 m 1,0,1
 793 731 793 731 793 1390 c 1,2,-1
 50 1390 l 1,3,-1
 50 1510 l 1,4,-1
 992 1510 l 1,5,6
 992 752 992 752 348 0 c 1,7,-1
 100 0 l 1,0,1
EndSplineSet
Validated: 19457
EndChar

StartChar: eight
Encoding: 56 56 27
Width: 1445
GlyphClass: 2
Flags: W
HStem: -20 120<506.066 852.441> 910 124<590.319 831.859> 1415 115<613.858 865.241>
VStem: 150 215<251.913 649.72> 350 184<1076.93 1334.94> 912 182<1118.91 1372.95> 1080 215<352.155 758.087>
LayerCount: 2
Fore
SplineSet
704 1034 m 0,0,1
 804 1034 804 1034 865 1110 c 0,2,3
 912 1169 912 1169 912 1255 c 0,4,5
 912 1333 912 1333 864 1376 c 0,6,7
 821 1415 821 1415 742 1415 c 0,8,9
 642 1415 642 1415 581 1339 c 0,10,11
 534 1280 534 1280 534 1189 c 0,12,13
 534 1116 534 1116 582 1073 c 0,14,15
 625 1034 625 1034 704 1034 c 0,0,1
637 -20 m 0,16,17
 418 -20 418 -20 277 119 c 0,18,19
 150 244 150 244 150 447 c 0,20,21
 150 624 150 624 279 794 c 0,22,23
 360 902 360 902 521 978 c 1,24,25
 350 1030 350 1030 350 1181 c 0,26,27
 350 1312 350 1312 464 1417 c 0,28,29
 586 1530 586 1530 770 1530 c 0,30,31
 916 1530 916 1530 1007 1452 c 0,32,33
 1094 1376 1094 1376 1094 1263 c 0,34,35
 1094 1104 1094 1104 926 1018 c 1,36,37
 1073 984 1073 984 1168 891 c 0,38,39
 1295 766 1295 766 1295 563 c 0,40,41
 1295 372 1295 372 1166 216 c 0,42,43
 971 -20 971 -20 637 -20 c 0,16,17
669 100 m 0,44,45
 859 100 859 100 975 248 c 0,46,47
 1080 383 1080 383 1080 560 c 0,48,49
 1080 714 1080 714 1000 812 c 128,-1,50
 920 910 920 910 776 910 c 0,51,52
 586 910 586 910 470 762 c 0,53,54
 365 627 365 627 365 450 c 0,55,56
 365 296 365 296 445 198 c 128,-1,57
 525 100 525 100 669 100 c 0,44,45
EndSplineSet
Validated: 1
EndChar

StartChar: nine
Encoding: 57 57 28
Width: 1490
GlyphClass: 2
Flags: W
HStem: -20 120<290.978 733.395> 480 120<507.615 864.284> 1410 120<592.97 945.701>
VStem: 150 215<753.67 1157.85> 1109 231<721.072 1190.3>
LayerCount: 2
Fore
SplineSet
497 -20 m 0,0,1
 354 -20 354 -20 227 35 c 1,2,-1
 314 152 l 1,3,4
 396 100 396 100 506 100 c 0,5,6
 633 100 633 100 733 144 c 0,7,8
 905 219 905 219 1012 408 c 0,9,10
 1089 544 1089 544 1115 721 c 1,11,12
 929 480 929 480 637 480 c 0,13,14
 418 480 418 480 277 619 c 0,15,16
 150 744 150 744 150 947 c 0,17,18
 150 1138 150 1138 279 1294 c 0,19,20
 474 1530 474 1530 808 1530 c 0,21,22
 1032 1530 1032 1530 1178 1380 c 0,23,24
 1340 1213 1340 1213 1340 924 c 0,25,26
 1340 567 1340 567 1168 330 c 0,27,28
 1040 154 1040 154 824 50 c 0,29,30
 677 -20 677 -20 497 -20 c 0,0,1
780 1410 m 0,31,32
 586 1410 586 1410 470 1262 c 0,33,34
 365 1127 365 1127 365 950 c 0,35,36
 365 796 365 796 447 698 c 128,-1,37
 529 600 529 600 673 600 c 0,38,39
 845 600 845 600 967 716 c 0,40,41
 1109 852 1109 852 1109 1041 c 0,42,43
 1109 1209 1109 1209 1020 1305 c 256,44,45
 924 1410 924 1410 780 1410 c 0,31,32
EndSplineSet
Validated: 1
EndChar

StartChar: colon
Encoding: 58 58 29
Width: 352
GlyphClass: 2
Flags: W
HStem: -20 255<88.1292 263.809> 627 255<88.1292 263.809>
VStem: 50 252<19.2217 196.809 666.222 843.809>
LayerCount: 2
Fore
SplineSet
176 -20 m 0,0,1
 123 -20 123 -20 87 18 c 0,2,3
 50 57 50 57 50 108 c 0,4,5
 50 157 50 157 87 197 c 24,6,7
 122 235 122 235 176 235 c 0,8,9
 228 235 228 235 265 198 c 0,10,11
 302 160 302 160 302 108 c 0,12,13
 302 55 302 55 265 17 c 24,14,15
 227 -20 227 -20 176 -20 c 0,0,1
176 882 m 0,16,17
 228 882 228 882 265 845 c 0,18,19
 302 807 302 807 302 755 c 0,20,21
 302 702 302 702 265 664 c 24,22,23
 227 627 227 627 176 627 c 0,24,25
 123 627 123 627 87 665 c 0,26,27
 50 704 50 704 50 755 c 0,28,29
 50 804 50 804 87 844 c 24,30,31
 122 882 122 882 176 882 c 0,16,17
EndSplineSet
Validated: 1
EndChar

StartChar: semicolon
Encoding: 59 59 30
Width: 352
GlyphClass: 2
Flags: W
HStem: 627 255<88.1292 263.809>
VStem: 50 252<666.222 843.809> 162 140<-134.998 65.12>
LayerCount: 2
Fore
SplineSet
130 215 m 1,0,1
 302 133 302 133 302 -22 c 0,2,3
 302 -188 302 -188 129 -270 c 1,4,-1
 47 -182 l 1,5,6
 161 -132 161 -132 162 -32 c 0,7,8
 162 66 162 66 42 108 c 1,9,-1
 130 215 l 1,0,1
176 882 m 0,10,11
 228 882 228 882 265 845 c 0,12,13
 302 807 302 807 302 755 c 0,14,15
 302 702 302 702 265 664 c 24,16,17
 227 627 227 627 176 627 c 0,18,19
 123 627 123 627 87 665 c 0,20,21
 50 704 50 704 50 755 c 0,22,23
 50 804 50 804 87 844 c 24,24,25
 122 882 122 882 176 882 c 0,10,11
EndSplineSet
Validated: 1
EndChar

StartChar: less
Encoding: 60 60 31
Width: 1206
GlyphClass: 2
Flags: W
VStem: 150 126<680 830>
DStem2: 150 830 276 782 0.893591 0.448883<91.046 907.658> 276 782 150 680 0.892752 -0.450548<0 816.61>
LayerCount: 2
Fore
SplineSet
150 830 m 1,0,-1
 1006 1260 l 1,1,-1
 1006 1148 l 1,2,-1
 276 782 l 1,3,-1
 1006 416 l 1,4,-1
 1006 248 l 1,5,-1
 150 680 l 1,6,-1
 150 830 l 1,0,-1
EndSplineSet
Validated: 1
EndChar

StartChar: equal
Encoding: 61 61 32
Width: 1180
GlyphClass: 2
Flags: W
HStem: 505 150<150 1030> 855 150<150 1030>
LayerCount: 2
Fore
SplineSet
150 1005 m 1,0,-1
 1030 1005 l 1,1,-1
 1030 855 l 1,2,-1
 150 855 l 1,3,-1
 150 1005 l 1,0,-1
150 655 m 1,4,-1
 1030 655 l 1,5,-1
 1030 505 l 1,6,-1
 150 505 l 1,7,-1
 150 655 l 1,4,-1
EndSplineSet
Validated: 1
EndChar

StartChar: greater
Encoding: 62 62 33
Width: 1206
GlyphClass: 2
Flags: W
VStem: 930 126<678 828>
DStem2: 200 1260 200 1092 0.892752 -0.450548<75.692 892.302> 200 360 200 248 0.893591 0.448883<0 816.612>
LayerCount: 2
Fore
SplineSet
1056 678 m 1,0,-1
 200 248 l 1,1,-1
 200 360 l 1,2,-1
 930 726 l 1,3,-1
 200 1092 l 1,4,-1
 200 1260 l 1,5,-1
 1056 828 l 1,6,-1
 1056 678 l 1,0,-1
EndSplineSet
Validated: 1
EndChar

StartChar: question
Encoding: 63 63 34
Width: 1344
GlyphClass: 2
Flags: W
HStem: -20 255<539.129 714.809> 1105 21G<230.438 284> 1410 120<478.239 825.265>
VStem: 501 252<19.2217 196.809> 969 225<870.476 1256.33>
LayerCount: 2
Fore
SplineSet
627 -20 m 0,0,1
 574 -20 574 -20 538 18 c 0,2,3
 501 57 501 57 501 108 c 0,4,5
 501 157 501 157 538 197 c 24,6,7
 573 235 573 235 627 235 c 0,8,9
 679 235 679 235 716 198 c 0,10,11
 753 160 753 160 753 108 c 0,12,13
 753 55 753 55 716 17 c 24,14,15
 678 -20 678 -20 627 -20 c 0,0,1
707 1530 m 0,16,17
 926 1530 926 1530 1067 1391 c 0,18,19
 1194 1266 1194 1266 1194 1063 c 0,20,21
 1194 878 1194 878 1047 721 c 2,22,-1
 703 353 l 1,23,-1
 564 353 l 1,24,-1
 841 713 l 2,25,26
 969 879 969 879 969 1060 c 0,27,28
 969 1214 969 1214 887 1312 c 128,-1,29
 805 1410 805 1410 661 1410 c 0,30,31
 496 1410 496 1410 377 1294 c 0,32,33
 301 1220 301 1220 267 1105 c 1,34,-1
 150 1169 l 1,35,36
 194 1244 194 1244 229 1289 c 24,37,38
 415 1530 415 1530 707 1530 c 0,16,17
EndSplineSet
Validated: 1
EndChar

StartChar: at
Encoding: 64 64 35
Width: 1696
GlyphClass: 2
Flags: W
HStem: -430 100<640.213 1078.88> -20 100<837.297 1125.36> 0 21G<1316 1496> 686 49<989.93 1197.57> 1006 114<754.939 1163.14>
VStem: 150 186<12.1895 532.138> 550 179<192.819 512.464> 1316 180<0 171 303.205 829.181>
LayerCount: 2
Fore
SplineSet
1496 0 m 1,0,-1
 1316 0 l 1,1,-1
 1316 171 l 1,2,3
 1252 86 1252 86 1172 34 c 0,4,5
 1091 -20 1091 -20 960 -20 c 0,6,7
 784 -20 784 -20 674 75 c 0,8,9
 550 182 550 182 550 353 c 0,10,11
 550 531 550 531 702 640 c 0,12,13
 834 735 834 735 1012 735 c 0,14,15
 1146 735 1146 735 1241 696 c 1,16,17
 1241 686 l 1,18,19
 1124 686 1124 686 1032 671 c 0,20,21
 894 649 894 649 813 564 c 0,22,23
 729 476 729 476 729 346 c 0,24,25
 729 237 729 237 799 159 c 0,26,27
 870 80 870 80 986 80 c 0,28,29
 1116 80 1116 80 1224 222 c 0,30,31
 1318 346 1318 346 1318 556 c 0,32,33
 1318 745 1318 745 1272 840 c 256,34,35
 1192 1006 1192 1006 987 1006 c 0,36,37
 721 1006 721 1006 535 810 c 0,38,39
 336 601 336 601 336 294 c 0,40,41
 336 1 336 1 480 -164 c 0,42,43
 626 -330 626 -330 843 -330 c 0,44,45
 1076 -330 1076 -330 1244 -181 c 1,46,-1
 1328 -253 l 1,47,48
 1122 -430 1122 -430 838 -430 c 0,49,50
 519 -430 519 -430 327 -233 c 0,51,52
 150 -51 150 -51 150 260 c 0,53,54
 150 640 150 640 449 904 c 0,55,56
 694 1120 694 1120 1006 1120 c 0,57,58
 1264 1120 1264 1120 1390 946 c 0,59,60
 1496 800 1496 800 1496 562 c 2,61,-1
 1496 0 l 1,0,-1
EndSplineSet
Validated: 1
EndChar

StartChar: A
Encoding: 65 65 36
Width: 1537
GlyphClass: 2
Flags: W
HStem: 0 21G<5 144.649 1304.38 1532> 696 120<489 961> 1362 148<659 878>
DStem2: 5 0 136 0 0.397437 0.91763<52.0642 810.363 941.145 1535.97> 878 1510 725 1362 0.397437 -0.91763<75.0013 669.822 800.604 1558.51>
LayerCount: 2
Fore
SplineSet
5 0 m 1,0,-1
 659 1510 l 1,1,-1
 878 1510 l 1,2,-1
 1532 0 l 1,3,-1
 1313 0 l 1,4,-1
 1013 696 l 1,5,-1
 437 696 l 1,6,-1
 136 0 l 1,7,-1
 5 0 l 1,0,-1
961 816 m 1,8,-1
 725 1362 l 1,9,-1
 489 816 l 1,10,-1
 961 816 l 1,8,-1
EndSplineSet
Validated: 1
EndChar

StartChar: B
Encoding: 66 66 37
Width: 1499
GlyphClass: 2
Flags: W
HStem: -20 87<572.26 950.756> 0 21G<200 400> 1396 134<693.345 992.085> 1490 20G<200 400>
VStem: 200 200<0 1097.44 1216 1510> 1075 187<1039 1313.62> 1187 212<305.294 646.677>
LayerCount: 2
Fore
SplineSet
200 0 m 1,0,-1
 200 1510 l 1,1,-1
 400 1510 l 1,2,-1
 400 1216 l 1,3,4
 473 1353 473 1353 610 1441.5 c 128,-1,5
 747 1530 747 1530 914 1530 c 0,6,7
 1067 1530 1067 1530 1162 1439 c 0,8,9
 1262 1343 1262 1343 1262 1202 c 0,10,11
 1262 986 1262 986 1004 848 c 1,12,13
 1170 848 1170 848 1276 760 c 0,14,15
 1399 658 1399 658 1399 494 c 0,16,17
 1399 329 1399 329 1281 199 c 0,18,19
 1082 -20 1082 -20 765 -20 c 0,20,21
 558 -20 558 -20 466 119 c 1,22,-1
 474 127 l 1,23,24
 582 67 582 67 726 67 c 0,25,26
 954 67 954 67 1079 200 c 0,27,28
 1187 315 1187 315 1187 473 c 0,29,30
 1187 619 1187 619 1102 695 c 0,31,32
 1020 768 1020 768 864 768 c 0,33,34
 748 768 748 768 640 755 c 1,35,-1
 640 765 l 1,36,37
 780 808 780 808 890 880 c 0,38,39
 1075 1001 1075 1001 1075 1178 c 0,40,41
 1075 1269 1075 1269 1018 1330 c 0,42,43
 957 1396 957 1396 835 1396 c 0,44,45
 661 1396 661 1396 539 1251 c 0,46,47
 400 1086 400 1086 400 873 c 2,48,-1
 400 0 l 1,49,-1
 200 0 l 1,0,-1
EndSplineSet
Validated: 1
EndChar

StartChar: C
Encoding: 67 67 38
Width: 1569
GlyphClass: 2
Flags: W
HStem: -20 120<599.576 1046.65> 1410 120<705.834 1152.58>
VStem: 100 218<420.134 939.165>
LayerCount: 2
Fore
SplineSet
788 -20 m 0,0,1
 466 -20 466 -20 271 185 c 0,2,3
 100 365 100 365 100 648 c 0,4,5
 100 1044 100 1044 384 1306 c 0,6,7
 627 1530 627 1530 971 1530 c 0,8,9
 1291 1530 1291 1530 1488 1323 c 1,10,-1
 1315 1233 l 1,11,12
 1183 1410 1183 1410 939 1410 c 0,13,14
 678 1410 678 1410 519 1230 c 0,15,16
 318 1003 318 1003 318 671 c 0,17,18
 318 439 318 439 440 277 c 0,19,20
 572 100 572 100 816 100 c 0,21,22
 1076 100 1076 100 1236 280 c 0,23,24
 1299 351 1299 351 1342 432 c 1,25,-1
 1489 327 l 1,26,27
 1442 264 1442 264 1375 202 c 0,28,29
 1134 -20 1134 -20 788 -20 c 0,0,1
EndSplineSet
Validated: 1
EndChar

StartChar: D
Encoding: 68 68 39
Width: 1736
GlyphClass: 2
Flags: W
HStem: -20 87<572.26 967.957> 0 21G<200 400> 1410 120<708.551 1130.37> 1490 20G<200 400>
VStem: 200 200<0 1094.59 1216 1510> 1416 220<574.342 1089.87>
LayerCount: 2
Fore
SplineSet
200 0 m 1,0,-1
 200 1510 l 1,1,-1
 400 1510 l 1,2,-1
 400 1216 l 1,3,4
 486 1359 486 1359 620 1442 c 0,5,6
 761 1530 761 1530 948 1530 c 0,7,8
 1270 1530 1270 1530 1465 1325 c 0,9,10
 1636 1145 1636 1145 1636 862 c 0,11,12
 1636 466 1636 466 1352 204 c 0,13,14
 1109 -20 1109 -20 765 -20 c 0,15,16
 558 -20 558 -20 466 119 c 1,17,18
 474 127 l 1,19,20
 582 67 582 67 726 67 c 0,21,22
 1023 67 1023 67 1215 280 c 0,23,24
 1416 503 1416 503 1416 839 c 0,25,26
 1416 1071 1416 1071 1294 1233 c 0,27,28
 1162 1410 1162 1410 913 1410 c 0,29,30
 699 1410 699 1410 549 1251 c 0,31,32
 400 1092 400 1092 400 873 c 2,33,-1
 400 0 l 1,34,-1
 200 0 l 1,0,-1
EndSplineSet
Validated: 1
EndChar

StartChar: E
Encoding: 69 69 40
Width: 1569
GlyphClass: 2
Flags: W
HStem: -20 120<599.576 1046.65> 696 120<326 1115> 1410 120<705.834 1152.58>
VStem: 100 218<424.304 696 816 935.722>
LayerCount: 2
Fore
SplineSet
788 -20 m 0,0,1
 466 -20 466 -20 271 185 c 0,2,3
 100 365 100 365 100 648 c 0,4,5
 100 1044 100 1044 384 1306 c 0,6,7
 627 1530 627 1530 971 1530 c 0,8,9
 1291 1530 1291 1530 1488 1323 c 1,10,-1
 1315 1233 l 1,11,12
 1183 1410 1183 1410 939 1410 c 0,13,14
 678 1410 678 1410 519 1230 c 0,15,16
 358 1048 358 1048 326 816 c 1,17,-1
 1115 816 l 1,18,-1
 1115 696 l 1,19,-1
 318 696 l 1,20,21
 318 439 318 439 440 277 c 0,22,23
 572 100 572 100 816 100 c 0,24,25
 1076 100 1076 100 1236 280 c 0,26,27
 1299 351 1299 351 1342 432 c 1,28,-1
 1489 327 l 1,29,30
 1442 264 1442 264 1375 202 c 0,31,32
 1134 -20 1134 -20 788 -20 c 0,0,1
EndSplineSet
Validated: 1
EndChar

StartChar: F
Encoding: 70 70 41
Width: 1338
GlyphClass: 2
Flags: W
HStem: 0 21G<200 400> 696 120<400 970> 1396 134<704.255 1056.05> 1490 20G<200 400>
VStem: 200 200<0 696 816 1094.59 1216 1510>
LayerCount: 2
Fore
SplineSet
200 0 m 1,0,-1
 200 1510 l 1,1,-1
 400 1510 l 1,2,-1
 400 1216 l 1,3,4
 486 1359 486 1359 620 1442 c 0,5,6
 761 1530 761 1530 928 1530 c 0,7,8
 1146 1530 1146 1530 1268 1408 c 0,9,10
 1305 1371 1305 1371 1328 1321 c 1,11,-1
 1155 1217 l 1,12,13
 1138 1271 1138 1271 1104 1310 c 0,14,15
 1030 1396 1030 1396 891 1396 c 0,16,17
 685 1396 685 1396 549 1251 c 0,18,19
 400 1092 400 1092 400 873 c 2,20,-1
 400 816 l 1,21,-1
 970 816 l 1,22,-1
 970 696 l 1,23,-1
 400 696 l 1,24,-1
 400 0 l 1,25,-1
 200 0 l 1,0,-1
EndSplineSet
Validated: 1
EndChar

StartChar: G
Encoding: 71 71 42
Width: 1759
GlyphClass: 2
Flags: W
HStem: -20 120<605.003 1052.17> 696 120<1015 1429> 1410 120<706.834 1154>
VStem: 100 220<420.134 939.165>
LayerCount: 2
Fore
SplineSet
788 -20 m 0,0,1
 466 -20 466 -20 271 185 c 0,2,3
 100 365 100 365 100 648 c 0,4,5
 100 1044 100 1044 384 1306 c 0,6,7
 627 1530 627 1530 971 1530 c 0,8,9
 1293 1530 1293 1530 1488 1325 c 1,10,-1
 1317 1233 l 1,11,12
 1185 1410 1185 1410 941 1410 c 0,13,14
 680 1410 680 1410 521 1230 c 0,15,16
 320 1003 320 1003 320 671 c 0,17,18
 320 439 320 439 442 277 c 0,19,20
 574 100 574 100 818 100 c 0,21,22
 1079 100 1079 100 1238 280 c 0,23,24
 1394 456 1394 456 1429 696 c 1,25,-1
 1015 696 l 1,26,-1
 1015 816 l 1,27,-1
 1659 816 l 17,28,29
 1659 466 1659 466 1375 204 c 0,30,31
 1132 -20 1132 -20 788 -20 c 0,0,1
EndSplineSet
Validated: 1
EndChar

StartChar: H
Encoding: 72 72 43
Width: 1572
GlyphClass: 2
Flags: W
HStem: 0 21G<200 400 1172 1372> 696 120<400 1172> 1490 20G<200 400 1172 1372>
VStem: 200 200<0 696 816 1510> 1172 200<0 696 816 1510>
LayerCount: 2
Fore
SplineSet
200 0 m 1,0,-1
 200 1510 l 1,1,-1
 400 1510 l 1,2,-1
 400 816 l 1,3,-1
 1172 816 l 1,4,-1
 1172 1510 l 1,5,-1
 1372 1510 l 1,6,-1
 1372 0 l 1,7,-1
 1172 0 l 1,8,-1
 1172 696 l 1,9,-1
 400 696 l 1,10,-1
 400 0 l 1,11,-1
 200 0 l 1,0,-1
EndSplineSet
Validated: 1
EndChar

StartChar: I
Encoding: 73 73 44
Width: 600
GlyphClass: 2
Flags: W
HStem: 0 21G<200 400> 1490 20G<200 400>
VStem: 200 200<0 1510>
LayerCount: 2
Fore
SplineSet
200 0 m 1,0,-1
 200 1510 l 1,1,-1
 400 1510 l 1,2,-1
 400 0 l 1,3,-1
 200 0 l 1,0,-1
EndSplineSet
Validated: 1
EndChar

StartChar: J
Encoding: 74 74 45
Width: 1220
GlyphClass: 2
Flags: W
HStem: -20 105<226.579 620.027> 1390 120<251 820>
VStem: 820 200<315.026 1390>
LayerCount: 2
Fore
SplineSet
434 -20 m 0,0,1
 187 -20 187 -20 20 119 c 1,2,-1
 128 235 l 1,3,4
 208 85 208 85 415 85 c 0,5,6
 605 85 605 85 712 200 c 0,7,8
 820 315 820 315 820 523 c 2,9,-1
 820 1390 l 1,10,-1
 251 1390 l 1,11,-1
 251 1510 l 1,12,-1
 1020 1510 l 1,13,-1
 1020 544 l 2,14,15
 1020 324 1020 324 890 180 c 0,16,17
 710 -20 710 -20 434 -20 c 0,0,1
EndSplineSet
Validated: 1
EndChar

StartChar: K
Encoding: 75 75 46
Width: 1496
GlyphClass: 2
Flags: W
HStem: 0 21G<200 400 1072.49 1396> 352 120<400 643.002> 1490 20G<200 400 1096 1296>
VStem: 200 200<0 352 472 1510> 1096 300<0 300> 1096 200<991.622 1510>
DStem2: 835 469 647 382 0.767211 -0.641394<0 501.056>
LayerCount: 2
Fore
SplineSet
200 0 m 1,0,-1
 200 1510 l 1,1,-1
 400 1510 l 1,2,-1
 400 472 l 1,3,4
 539 472 539 472 672 522 c 0,5,6
 887 603 887 603 996 805 c 0,7,8
 1065 933 1065 933 1080 1114 c 0,9,10
 1096 1307 1096 1307 1096 1510 c 1,11,-1
 1296 1510 l 1,12,13
 1296 1281 1296 1281 1281 1152 c 0,14,15
 1257 948 1257 948 1182 810 c 0,16,17
 1068 600 1068 600 835 469 c 1,18,-1
 1396 0 l 1,19,-1
 1096 0 l 1,20,-1
 647 382 l 1,21,22
 519 352 519 352 400 352 c 1,23,-1
 400 0 l 1,24,-1
 200 0 l 1,0,-1
EndSplineSet
Validated: 1
EndChar

StartChar: L
Encoding: 76 76 47
Width: 1048
GlyphClass: 2
Flags: W
HStem: 0 120<400 1028> 1490 20G<200 400>
VStem: 200 200<120 1510>
LayerCount: 2
Fore
SplineSet
200 0 m 1,0,-1
 200 1510 l 1,1,-1
 400 1510 l 1,2,-1
 400 120 l 1,3,-1
 1028 120 l 1,4,-1
 1028 0 l 1,5,-1
 200 0 l 1,0,-1
EndSplineSet
Validated: 1
EndChar

StartChar: M
Encoding: 77 77 48
Width: 2472
GlyphClass: 2
Flags: W
HStem: 0 21G<200 400 1141 1341 2082 2282> 1396 134<691.312 1028.03 1632.31 1969.03> 1490 20G<200 400>
VStem: 200 200<0 1105.8 1216 1510> 1141 200<0 1105.8> 2082 200<0 1277>
CounterMasks: 1 1c
LayerCount: 2
Fore
SplineSet
200 0 m 1,0,-1
 200 1510 l 1,1,-1
 400 1510 l 1,2,-1
 400 1216 l 1,3,4
 489 1364 489 1364 610 1442 c 0,5,6
 745 1530 745 1530 908 1530 c 0,7,8
 1122 1530 1122 1530 1238 1408 c 0,9,10
 1310 1332 1310 1332 1330 1221 c 1,11,12
 1425 1360 1425 1360 1551 1442 c 0,13,14
 1686 1530 1686 1530 1849 1530 c 0,15,16
 2063 1530 2063 1530 2179 1408 c 0,17,18
 2282 1300 2282 1300 2282 1100 c 2,19,-1
 2282 0 l 1,20,-1
 2082 0 l 1,21,-1
 2082 1098 l 2,22,23
 2082 1229 2082 1229 2015 1310 c 0,24,25
 1945 1396 1945 1396 1812 1396 c 0,26,27
 1616 1396 1616 1396 1480 1251 c 0,28,29
 1341 1103 1341 1103 1341 873 c 2,30,-1
 1341 0 l 1,31,-1
 1141 0 l 1,32,-1
 1141 1098 l 2,33,34
 1141 1229 1141 1229 1074 1310 c 0,35,36
 1004 1396 1004 1396 871 1396 c 0,37,38
 675 1396 675 1396 539 1251 c 0,39,40
 400 1103 400 1103 400 873 c 2,41,-1
 400 0 l 1,42,-1
 200 0 l 1,0,-1
EndSplineSet
Validated: 1
EndChar

StartChar: N
Encoding: 78 78 49
Width: 1571
GlyphClass: 2
Flags: W
HStem: 0 21G<200 400 1171 1371> 1396 134<704.255 1056.48> 1490 20G<200 400>
VStem: 200 200<0 1094.59 1216 1510> 1171 200<0 1278.78>
LayerCount: 2
Fore
SplineSet
200 0 m 1,0,-1
 200 1510 l 1,1,-1
 400 1510 l 1,2,-1
 400 1216 l 1,3,4
 486 1359 486 1359 620 1442 c 0,5,6
 761 1530 761 1530 928 1530 c 0,7,8
 1148 1530 1148 1530 1268 1408 c 0,9,10
 1371 1304 1371 1304 1371 1100 c 2,11,-1
 1371 0 l 1,12,-1
 1171 0 l 1,13,-1
 1171 1098 l 2,14,15
 1171 1232 1171 1232 1104 1310 c 0,16,17
 1030 1396 1030 1396 891 1396 c 0,18,19
 685 1396 685 1396 549 1251 c 0,20,21
 400 1092 400 1092 400 873 c 2,22,-1
 400 0 l 1,23,-1
 200 0 l 1,0,-1
EndSplineSet
Validated: 1
EndChar

StartChar: O
Encoding: 79 79 50
Width: 1759
GlyphClass: 2
Flags: W
HStem: -20 120<605.003 1052.17> 1410 120<706.834 1154>
VStem: 100 220<420.134 939.165> 1439 220<570.835 1089.87>
LayerCount: 2
Fore
SplineSet
788 -20 m 0,0,1
 466 -20 466 -20 271 185 c 0,2,3
 100 365 100 365 100 648 c 0,4,5
 100 1044 100 1044 384 1306 c 0,6,7
 627 1530 627 1530 971 1530 c 0,8,9
 1293 1530 1293 1530 1488 1325 c 0,10,11
 1659 1145 1659 1145 1659 862 c 0,12,13
 1659 466 1659 466 1375 204 c 0,14,15
 1132 -20 1132 -20 788 -20 c 0,0,1
818 100 m 0,16,17
 1079 100 1079 100 1238 280 c 0,18,19
 1439 507 1439 507 1439 839 c 0,20,21
 1439 1071 1439 1071 1317 1233 c 0,22,23
 1185 1410 1185 1410 941 1410 c 0,24,25
 680 1410 680 1410 521 1230 c 0,26,27
 320 1003 320 1003 320 671 c 0,28,29
 320 439 320 439 442 277 c 0,30,31
 574 100 574 100 818 100 c 0,16,17
EndSplineSet
Validated: 1
EndChar

StartChar: P
Encoding: 80 80 51
Width: 1535
GlyphClass: 2
Flags: W
HStem: 0 21G<200 400> 360 87<576.093 940.797> 1396 134<693.821 1048.68> 1490 20G<200 400>
VStem: 200 200<0 1105.8 1216 1510> 1214 221<775.333 1228.17>
LayerCount: 2
Fore
SplineSet
200 0 m 1,0,-1
 200 1510 l 1,1,-1
 400 1510 l 1,2,-1
 400 1216 l 1,3,4
 489 1364 489 1364 610 1442 c 0,5,6
 745 1530 745 1530 924 1530 c 0,7,8
 1148 1530 1148 1530 1284 1402 c 0,9,10
 1435 1260 1435 1260 1435 1032 c 0,11,12
 1435 702 1435 702 1191 499 c 0,13,14
 1025 360 1025 360 785 360 c 0,15,16
 558 360 558 360 466 499 c 1,17,18
 474 507 l 1,19,20
 582 447 582 447 746 447 c 0,21,22
 942 447 942 447 1071 588 c 0,23,24
 1214 746 1214 746 1214 1018 c 0,25,26
 1214 1191 1214 1191 1131 1285 c 256,27,28
 1034 1396 1034 1396 865 1396 c 0,29,30
 675 1396 675 1396 539 1251 c 0,31,32
 400 1103 400 1103 400 873 c 2,33,-1
 400 0 l 1,34,-1
 200 0 l 1,0,-1
EndSplineSet
Validated: 1
EndChar

StartChar: Q
Encoding: 81 81 52
Width: 1759
GlyphClass: 2
Flags: W
HStem: -20 120<605.003 1050.59> 0 21G<1299.88 1611> 1410 120<706.834 1154>
VStem: 100 220<420.134 939.165> 1439 220<572.552 1089.87>
LayerCount: 2
Fore
SplineSet
838 387 m 1,0,-1
 1119 387 l 1,1,-1
 1245 288 l 1,2,3
 1439 513 1439 513 1439 839 c 0,4,5
 1439 1071 1439 1071 1317 1233 c 0,6,7
 1185 1410 1185 1410 941 1410 c 0,8,9
 680 1410 680 1410 521 1230 c 0,10,11
 320 1003 320 1003 320 671 c 0,12,13
 320 439 320 439 442 277 c 0,14,15
 574 100 574 100 818 100 c 0,16,17
 984 100 984 100 1108 172 c 1,18,-1
 838 387 l 1,0,-1
1611 0 m 1,19,-1
 1325 0 l 1,20,-1
 1217 86 l 1,21,22
 1030 -20 1030 -20 788 -20 c 0,23,24
 466 -20 466 -20 271 185 c 0,25,26
 100 365 100 365 100 648 c 0,27,28
 100 1044 100 1044 384 1306 c 0,29,30
 627 1530 627 1530 971 1530 c 0,31,32
 1293 1530 1293 1530 1488 1325 c 0,33,34
 1659 1145 1659 1145 1659 862 c 0,35,36
 1659 467 1659 467 1364 194 c 1,37,-1
 1611 0 l 1,19,-1
EndSplineSet
Validated: 1
EndChar

StartChar: R
Encoding: 82 82 53
Width: 1580
GlyphClass: 2
Flags: W
HStem: 0 21G<200 400 1128.51 1480> 1396 134<693.821 1048.68> 1490 20G<200 400>
VStem: 200 200<0 1105.8 1216 1510> 1156 324<0 324> 1214 221<780.657 1228.17>
DStem2: 959 381 1156 0 0.808684 -0.588243<0 383.431>
LayerCount: 2
Fore
SplineSet
200 0 m 1,0,-1
 200 1510 l 1,1,-1
 400 1510 l 1,2,-1
 400 1216 l 1,3,4
 489 1364 489 1364 610 1442 c 0,5,6
 745 1530 745 1530 924 1530 c 0,7,8
 1148 1530 1148 1530 1284 1402 c 0,9,10
 1435 1260 1435 1260 1435 1032 c 0,11,12
 1435 710 1435 710 1191 499 c 0,13,14
 1102 422 1102 422 959 381 c 1,15,-1
 1480 0 l 1,16,-1
 1156 0 l 1,17,-1
 481 491 l 1,18,-1
 489 499 l 1,19,20
 598 447 598 447 746 447 c 0,21,22
 942 447 942 447 1071 588 c 0,23,24
 1214 746 1214 746 1214 1018 c 0,25,26
 1214 1191 1214 1191 1131 1285 c 256,27,28
 1034 1396 1034 1396 865 1396 c 0,29,30
 675 1396 675 1396 539 1251 c 0,31,32
 400 1103 400 1103 400 873 c 2,33,-1
 400 0 l 1,34,-1
 200 0 l 1,0,-1
EndSplineSet
Validated: 1
EndChar

StartChar: S
Encoding: 83 83 54
Width: 1284
GlyphClass: 2
Flags: W
HStem: -20 120<434.079 810.18> 1410 120<560.275 863.921>
VStem: 281 188<1082.85 1319.8> 980 204<292.665 582.496>
DStem2: 612 1009 515 818 0.898384 -0.43921<-156.308 506.831>
LayerCount: 2
Fore
SplineSet
617 -20 m 0,0,1
 309 -20 309 -20 100 206 c 1,2,-1
 257 293 l 1,3,4
 401 100 401 100 630 100 c 0,5,6
 824 100 824 100 919 248 c 0,7,8
 980 343 980 343 980 454 c 0,9,10
 980 591 980 591 830 664 c 2,11,-1
 515 818 l 2,12,13
 281 932 281 932 281 1149 c 0,14,15
 281 1316 281 1316 422 1430 c 0,16,17
 546 1530 546 1530 712 1530 c 0,18,19
 922 1530 922 1530 1074 1391 c 1,20,-1
 938 1290 l 1,21,22
 858 1410 858 1410 719 1410 c 0,23,24
 602 1410 602 1410 535 1346 c 0,25,26
 469 1283 469 1283 469 1198 c 0,27,28
 469 1078 469 1078 612 1009 c 2,29,-1
 905 867 l 2,30,31
 1184 732 1184 732 1184 495 c 0,32,33
 1184 313 1184 313 1057 168 c 0,34,35
 892 -20 892 -20 617 -20 c 0,0,1
EndSplineSet
Validated: 1
EndChar

StartChar: T
Encoding: 84 84 55
Width: 1160
GlyphClass: 2
Flags: W
HStem: 0 21G<480 680> 1390 120<20 480 680 1140>
VStem: 480 200<0 1390>
LayerCount: 2
Fore
SplineSet
480 0 m 1,0,-1
 480 1390 l 1,1,-1
 20 1390 l 1,2,-1
 20 1510 l 1,3,-1
 1140 1510 l 1,4,-1
 1140 1390 l 1,5,-1
 680 1390 l 1,6,-1
 680 0 l 1,7,-1
 480 0 l 1,0,-1
EndSplineSet
Validated: 1
EndChar

StartChar: U
Encoding: 85 85 56
Width: 1571
GlyphClass: 2
Flags: W
HStem: -20 134<514.516 866.745> 0 21G<1171 1371> 1490 20G<200 400 1171 1371>
VStem: 200 200<231.219 1510> 1171 200<0 294 415.413 1510>
LayerCount: 2
Fore
SplineSet
1371 0 m 1,0,-1
 1171 0 l 1,1,-1
 1171 294 l 1,2,3
 1085 151 1085 151 951 68 c 0,4,5
 810 -20 810 -20 643 -20 c 0,6,7
 423 -20 423 -20 303 102 c 0,8,9
 200 206 200 206 200 410 c 2,10,-1
 200 1510 l 1,11,-1
 400 1510 l 1,12,-1
 400 412 l 2,13,14
 400 278 400 278 467 200 c 0,15,16
 541 114 541 114 680 114 c 0,17,18
 886 114 886 114 1022 259 c 0,19,20
 1171 418 1171 418 1171 637 c 2,21,-1
 1171 1510 l 1,22,-1
 1371 1510 l 1,23,-1
 1371 0 l 1,0,-1
EndSplineSet
Validated: 1
EndChar

StartChar: V
Encoding: 86 86 57
Width: 1537
GlyphClass: 2
Flags: W
HStem: 0 156<659 878> 1490 20G<5 237.656 1392.34 1532>
DStem2: 229 1510 5 1510 0.397437 -0.91763<0 1475.37> 815 156 878 0 0.397437 0.91763<0 1475.37>
LayerCount: 2
Fore
SplineSet
659 0 m 1,0,-1
 5 1510 l 1,1,-1
 229 1510 l 1,2,-1
 815 156 l 1,3,-1
 1401 1510 l 1,4,-1
 1532 1510 l 1,5,-1
 878 0 l 1,6,-1
 659 0 l 1,0,-1
EndSplineSet
Validated: 1
EndChar

StartChar: W
Encoding: 87 87 58
Width: 2415
GlyphClass: 2
Flags: W
HStem: -20 134<512.967 849.688 1421.94 1749.56> 1490 20G<200 400 1141 1341 1771 2096>
VStem: 200 200<233 1510> 1141 200<404.195 1510> 2135 180<572.85 1092.74>
LayerCount: 2
Fore
SplineSet
633 -20 m 0,0,1
 419 -20 419 -20 303 102 c 0,2,3
 200 210 200 210 200 410 c 2,4,-1
 200 1510 l 1,5,-1
 400 1510 l 1,6,-1
 400 412 l 2,7,8
 400 281 400 281 467 200 c 0,9,10
 537 114 537 114 670 114 c 0,11,12
 866 114 866 114 1002 259 c 0,13,14
 1141 407 1141 407 1141 637 c 2,15,-1
 1141 1510 l 1,16,-1
 1341 1510 l 1,17,-1
 1341 412 l 2,18,19
 1341 266 1341 266 1383 202 c 0,20,21
 1441 114 1441 114 1556 114 c 0,22,23
 1796 114 1796 114 1951 295 c 0,24,25
 2135 510 2135 510 2135 838 c 0,26,27
 2135 1053 2135 1053 2020 1234 c 0,28,29
 1927 1380 1927 1380 1771 1510 c 1,30,-1
 2043 1510 l 1,31,32
 2149 1418 2149 1418 2221 1280 c 0,33,34
 2315 1100 2315 1100 2315 862 c 0,35,36
 2315 466 2315 466 2031 204 c 0,37,38
 1788 -20 1788 -20 1519 -20 c 0,39,40
 1295 -20 1295 -20 1206 129 c 0,41,42
 1165 198 1165 198 1152 289 c 1,43,44
 1057 150 1057 150 931 68 c 0,45,46
 796 -20 796 -20 633 -20 c 0,0,1
EndSplineSet
Validated: 1
EndChar

StartChar: X
Encoding: 88 88 59
Width: 1351
GlyphClass: 2
Flags: W
HStem: 0 21G<5 174.859 1092.43 1346> 1490 20G<5 258.575 1176.14 1346>
VStem: 5 239<1271 1510> 5 154<0 154> 1107 239<0 239> 1192 154<1356 1510>
DStem2: 244 1510 5 1510 0.589507 -0.807763<0 770.873 957.594 1728.47> 5 0 159 0 0.618005 0.786174<95.1728 890.254 1125.61 1920.69>
LayerCount: 2
Fore
SplineSet
5 0 m 1,0,-1
 579 724 l 1,1,-1
 5 1510 l 1,2,-1
 244 1510 l 1,3,-1
 698 887 l 1,4,-1
 1192 1510 l 1,5,-1
 1346 1510 l 1,6,-1
 772 786 l 1,7,-1
 1346 0 l 1,8,-1
 1107 0 l 1,9,-1
 653 623 l 1,10,-1
 159 0 l 1,11,-1
 5 0 l 1,0,-1
EndSplineSet
Validated: 1
EndChar

StartChar: Y
Encoding: 89 89 60
Width: 1372
GlyphClass: 2
Flags: W
HStem: 0 21G<573 773> 1490 20G<5 239.285 1221.15 1367>
VStem: 573 200<0 416>
DStem2: 229 1510 5 1510 0.460791 -0.887509<0 1067.11> 717 561 773 416 0.477163 0.878815<0 1079.73>
LayerCount: 2
Fore
SplineSet
573 0 m 1,0,-1
 573 416 l 1,1,-1
 5 1510 l 1,2,-1
 229 1510 l 1,3,-1
 717 561 l 1,4,-1
 1232 1510 l 1,5,-1
 1367 1510 l 1,6,-1
 773 416 l 1,7,-1
 773 0 l 1,8,-1
 573 0 l 1,0,-1
EndSplineSet
Validated: 1
EndChar

StartChar: Z
Encoding: 90 90 61
Width: 1390
GlyphClass: 2
Flags: W
HStem: 0 120<385 1230> 1390 120<150 1026>
VStem: 1026 204<1165.26 1390>
LayerCount: 2
Fore
SplineSet
70 0 m 1,0,-1
 70 120 l 1,1,2
 1026 722 1026 722 1026 1390 c 1,3,-1
 150 1390 l 1,4,-1
 150 1510 l 1,5,-1
 1230 1510 l 1,6,7
 1230 696 1230 696 385 120 c 1,8,-1
 1230 120 l 1,9,-1
 1230 0 l 1,10,-1
 70 0 l 1,0,-1
EndSplineSet
Validated: 1
EndChar

StartChar: bracketleft
Encoding: 91 91 62
Width: 853
GlyphClass: 2
Flags: W
HStem: -250 120<400 803> 1640 120<400 803>
VStem: 200 200<-130 1640>
LayerCount: 2
Fore
SplineSet
200 -250 m 5,0,-1
 200 1760 l 1,1,-1
 803 1760 l 1,2,-1
 803 1640 l 1,3,-1
 400 1640 l 1,4,-1
 400 -130 l 1,5,-1
 803 -130 l 1,6,-1
 803 -250 l 1,7,-1
 200 -250 l 5,0,-1
EndSplineSet
Validated: 1
EndChar

StartChar: backslash
Encoding: 92 92 63
Width: 1153
GlyphClass: 2
Flags: W
DStem2: 214 1640 10 1640 0.464736 -0.885449<0 1904.18>
LayerCount: 2
Fore
SplineSet
939 -130 m 1,0,-1
 10 1640 l 1,1,-1
 214 1640 l 1,2,-1
 1143 -130 l 1,3,-1
 939 -130 l 1,0,-1
EndSplineSet
Validated: 1
EndChar

StartChar: bracketright
Encoding: 93 93 64
Width: 853
GlyphClass: 2
Flags: W
HStem: -250 120<50 453> 1640 120<50 453>
VStem: 453 200<-130 1640>
LayerCount: 2
Fore
SplineSet
653 -250 m 1,0,-1
 50 -250 l 1,1,-1
 50 -130 l 1,2,-1
 453 -130 l 1,3,-1
 453 1640 l 1,4,-1
 50 1640 l 1,5,-1
 50 1760 l 1,6,-1
 653 1760 l 1,7,-1
 653 -250 l 1,0,-1
EndSplineSet
Validated: 1
EndChar

StartChar: asciicircum
Encoding: 94 94 65
Width: 976
GlyphClass: 2
Flags: W
HStem: 1120 390
VStem: 50 133<1120 1253> 725 201<1120 1321>
DStem2: 50 1120 183 1120 0.66472 0.747092<88.4078 496.493> 579 1510 453 1426 0.66472 -0.747092<0 388.415>
LayerCount: 2
Fore
SplineSet
397 1510 m 1,0,-1
 579 1510 l 1,1,-1
 926 1120 l 1,2,-1
 725 1120 l 1,3,-1
 453 1426 l 1,4,-1
 183 1120 l 1,5,-1
 50 1120 l 1,6,-1
 397 1510 l 1,0,-1
EndSplineSet
Validated: 1
EndChar

StartChar: underscore
Encoding: 95 95 66
Width: 1183
GlyphClass: 2
Flags: W
HStem: -410 100<150 1033>
LayerCount: 2
Fore
SplineSet
1033 -410 m 1,0,-1
 150 -410 l 1,1,-1
 150 -310 l 1,2,-1
 1033 -310 l 1,3,-1
 1033 -410 l 1,0,-1
EndSplineSet
Validated: 1
EndChar

StartChar: grave
Encoding: 96 96 67
Width: 418
GlyphClass: 2
Flags: W
HStem: 1160 370
VStem: 50 318
LayerCount: 2
Fore
SplineSet
194 1530 m 1,0,-1
 368 1227 l 1,1,-1
 273 1160 l 1,2,-1
 50 1428 l 1,3,-1
 194 1530 l 1,0,-1
EndSplineSet
Validated: 1
EndChar

StartChar: a
Encoding: 97 97 68
Width: 1325
GlyphClass: 2
Flags: W
HStem: -20 87<483.43 755.006> 0 21G<945 1125> 1020 100<540.91 853.515>
VStem: 100 201<260.829 709.842> 945 180<0 918.312>
LayerCount: 2
Fore
SplineSet
1125 0 m 1,0,-1
 945 0 l 1,1,-1
 945 711 l 2,2,3
 945 854 945 854 895 929 c 0,4,5
 833 1020 833 1020 719 1020 c 0,6,7
 542 1020 542 1020 429 878 c 0,8,9
 301 719 301 719 301 497 c 0,10,11
 301 304 301 304 382 201 c 0,12,13
 488 67 488 67 641 67 c 0,14,15
 729 67 729 67 813 91 c 1,16,-1
 821 83 l 1,17,18
 741 -20 741 -20 597 -20 c 0,19,20
 372 -20 372 -20 227 133 c 0,21,22
 100 267 100 267 100 477 c 0,23,24
 100 742 100 742 299 939 c 0,25,26
 482 1120 482 1120 737 1120 c 0,27,28
 913 1120 913 1120 1011 1024 c 0,29,30
 1125 912 1125 912 1125 711 c 2,31,-1
 1125 0 l 1,0,-1
EndSplineSet
Validated: 1
EndChar

StartChar: b
Encoding: 98 98 69
Width: 1325
GlyphClass: 2
Flags: W
HStem: -20 100<471.485 784.09> 1033 87<569.994 841.57> 1490 20G<200 380>
VStem: 200 180<181.688 1510> 1024 201<390.158 839.171>
LayerCount: 2
Fore
SplineSet
588 -20 m 0,0,1
 412 -20 412 -20 314 76 c 0,2,3
 200 188 200 188 200 389 c 2,4,-1
 200 1510 l 1,5,-1
 380 1510 l 1,6,-1
 380 389 l 2,7,8
 380 246 380 246 430 171 c 0,9,10
 492 80 492 80 606 80 c 0,11,12
 783 80 783 80 896 222 c 0,13,14
 1024 381 1024 381 1024 603 c 0,15,16
 1024 796 1024 796 943 899 c 0,17,18
 837 1033 837 1033 684 1033 c 0,19,20
 596 1033 596 1033 512 1009 c 1,21,-1
 504 1017 l 1,22,23
 584 1120 584 1120 728 1120 c 0,24,25
 953 1120 953 1120 1098 967 c 0,26,27
 1225 833 1225 833 1225 623 c 0,28,29
 1225 358 1225 358 1026 161 c 0,30,31
 843 -20 843 -20 588 -20 c 0,0,1
EndSplineSet
Validated: 1
EndChar

StartChar: c
Encoding: 99 99 70
Width: 1201
GlyphClass: 2
Flags: W
HStem: -20 100<463.008 800.606> 1020 100<543.63 875.037>
VStem: 100 201<264.213 709.842>
LayerCount: 2
Fore
SplineSet
597 -20 m 0,0,1
 372 -20 372 -20 227 133 c 0,2,3
 100 267 100 267 100 477 c 0,4,5
 100 742 100 742 299 939 c 0,6,7
 482 1120 482 1120 747 1120 c 0,8,9
 972 1120 972 1120 1117 967 c 1,10,-1
 969 890 l 1,11,12
 867 1020 867 1020 729 1020 c 0,13,14
 542 1020 542 1020 429 878 c 0,15,16
 301 719 301 719 301 497 c 0,17,18
 301 308 301 308 382 201 c 0,19,20
 475 80 475 80 615 80 c 0,21,22
 801 80 801 80 915 222 c 0,23,24
 960 278 960 278 989 341 c 1,25,-1
 1121 248 l 1,26,27
 1087 203 1087 203 1045 161 c 0,28,29
 864 -20 864 -20 597 -20 c 0,0,1
EndSplineSet
Validated: 1
EndChar

StartChar: d
Encoding: 100 100 71
Width: 1391
GlyphClass: 2
Flags: W
HStem: -20 108<456.283 782.723> 0 21G<1011 1191> 1033 87<568.856 875.006> 1490 20G<1011 1191>
VStem: 100 201<264.213 709.842> 1011 180<0 234 345.222 1510>
LayerCount: 2
Fore
SplineSet
1191 0 m 1,0,-1
 1011 0 l 1,1,-1
 1011 234 l 1,2,3
 939 115 939 115 840 49 c 0,4,5
 738 -20 738 -20 597 -20 c 0,6,7
 372 -20 372 -20 227 133 c 0,8,9
 100 267 100 267 100 477 c 0,10,11
 100 742 100 742 299 939 c 0,12,13
 482 1120 482 1120 717 1120 c 0,14,15
 861 1120 861 1120 941 1017 c 1,16,-1
 933 1009 l 1,17,18
 849 1033 849 1033 761 1033 c 0,19,20
 554 1033 554 1033 429 878 c 0,21,22
 301 719 301 719 301 497 c 0,23,24
 301 308 301 308 382 201 c 0,25,26
 467 88 467 88 615 88 c 0,27,28
 755 88 755 88 857 188 c 0,29,30
 1011 340 1011 340 1011 559 c 2,31,-1
 1011 1510 l 1,32,-1
 1191 1510 l 1,33,-1
 1191 0 l 1,0,-1
EndSplineSet
Validated: 1
EndChar

StartChar: e
Encoding: 101 101 72
Width: 1184
GlyphClass: 2
Flags: W
HStem: -20 100<463.008 800.853> 500 100<308 832> 1020 100<543.63 875.037>
VStem: 100 201<264.797 500 600 710.496>
CounterMasks: 1 e0
LayerCount: 2
Fore
SplineSet
597 -20 m 0,0,1
 372 -20 372 -20 227 133 c 0,2,3
 100 267 100 267 100 477 c 0,4,5
 100 742 100 742 299 939 c 0,6,7
 482 1120 482 1120 747 1120 c 0,8,9
 972 1120 972 1120 1117 967 c 1,10,-1
 969 890 l 1,11,12
 867 1020 867 1020 729 1020 c 0,13,14
 542 1020 542 1020 429 878 c 0,15,16
 331 756 331 756 308 600 c 1,17,-1
 832 600 l 1,18,-1
 832 500 l 1,19,-1
 301 500 l 1,20,21
 301 308 301 308 382 201 c 0,22,23
 475 80 475 80 615 80 c 0,24,25
 802 80 802 80 915 222 c 0,26,27
 960 278 960 278 989 341 c 1,28,-1
 1121 248 l 1,29,30
 1087 203 1087 203 1045 161 c 0,31,32
 864 -20 864 -20 597 -20 c 0,0,1
EndSplineSet
Validated: 1
EndChar

StartChar: f
Encoding: 102 102 73
Width: 1099
GlyphClass: 2
Flags: W
HStem: 0 21G<200 380> 706 100<100 200 380 852> 1430 100<638.189 1023.12>
VStem: 200 180<0 706 806 1120.5>
LayerCount: 2
Fore
SplineSet
200 0 m 1,0,-1
 200 706 l 1,1,-1
 100 706 l 1,2,-1
 100 806 l 1,3,-1
 200 806 l 1,4,-1
 200 887 l 2,5,6
 200 1152 200 1152 399 1349 c 0,7,8
 583 1530 583 1530 847 1530 c 0,9,10
 983 1530 983 1530 1089 1475 c 1,11,-1
 1008 1366 l 1,12,13
 931 1430 931 1430 829 1430 c 0,14,15
 640 1430 640 1430 519 1292 c 0,16,17
 380 1134 380 1134 380 806 c 1,18,-1
 852 806 l 1,19,-1
 852 706 l 1,20,-1
 380 706 l 1,21,-1
 380 0 l 1,22,-1
 200 0 l 1,0,-1
EndSplineSet
Validated: 1
EndChar

StartChar: g
Encoding: 103 103 74
Width: 1325
GlyphClass: 2
Flags: W
HStem: -430 100<301.877 686.811> -20 87<483.43 755.006> 1020 100<540.91 853.515>
VStem: 100 201<260.829 709.842> 945 180<-18.0564 918.312>
LayerCount: 2
Fore
SplineSet
597 -20 m 0,0,1
 372 -20 372 -20 227 133 c 0,2,3
 100 267 100 267 100 477 c 0,4,5
 100 742 100 742 299 939 c 0,6,7
 482 1120 482 1120 737 1120 c 0,8,9
 913 1120 913 1120 1011 1024 c 0,10,11
 1125 912 1125 912 1125 711 c 2,12,-1
 1125 213 l 2,13,14
 1125 -52 1125 -52 926 -249 c 0,15,16
 742 -430 742 -430 478 -430 c 0,17,18
 342 -430 342 -430 236 -375 c 1,19,-1
 317 -266 l 1,20,21
 394 -330 394 -330 496 -330 c 0,22,23
 685 -330 685 -330 806 -192 c 0,24,25
 945 -34 945 -34 945 213 c 2,26,-1
 945 711 l 2,27,28
 945 854 945 854 895 929 c 0,29,30
 833 1020 833 1020 719 1020 c 0,31,32
 542 1020 542 1020 429 878 c 0,33,34
 301 719 301 719 301 497 c 0,35,36
 301 304 301 304 382 201 c 0,37,38
 488 67 488 67 641 67 c 0,39,40
 729 67 729 67 813 91 c 1,41,-1
 821 83 l 1,42,43
 741 -20 741 -20 597 -20 c 0,0,1
EndSplineSet
Validated: 1
EndChar

StartChar: h
Encoding: 104 104 75
Width: 1362
GlyphClass: 2
Flags: W
HStem: 0 21G<200 380 982 1162> 1000 120<617.453 913.05> 1490 20G<200 380>
VStem: 200 180<0 756.767 866 1510> 982 180<0 926.789>
LayerCount: 2
Fore
SplineSet
200 0 m 1,0,-1
 200 1510 l 1,1,-1
 380 1510 l 1,2,-1
 380 866 l 1,3,4
 461 984 461 984 571 1051 c 0,5,6
 685 1120 685 1120 834 1120 c 0,7,8
 973 1120 973 1120 1068 1027 c 0,9,10
 1162 935 1162 935 1162 761 c 2,11,-1
 1162 0 l 1,12,-1
 982 0 l 1,13,-1
 982 761 l 2,14,15
 982 869 982 869 937 930 c 0,16,17
 884 1000 884 1000 782 1000 c 0,18,19
 627 1000 627 1000 512 883 c 0,20,21
 380 749 380 749 380 541 c 2,22,-1
 380 0 l 1,23,-1
 200 0 l 1,0,-1
EndSplineSet
Validated: 1
EndChar

StartChar: i
Encoding: 105 105 76
Width: 580
GlyphClass: 2
Flags: W
HStem: -20 100<408.477 540> 1080 20G<200 380> 1212 255<202.129 377.809>
VStem: 164 252<1251.22 1428.81> 200 180<110.266 1100>
LayerCount: 2
Fore
SplineSet
540 -20 m 17,0,1
 200 -20 200 -20 200 209 c 2,2,-1
 200 1100 l 1,3,-1
 380 1100 l 1,4,-1
 380 209 l 2,5,6
 380 80 380 80 540 80 c 1,7,-1
 540 -20 l 17,0,1
290 1467 m 0,8,9
 342 1467 342 1467 379 1430 c 0,10,11
 416 1392 416 1392 416 1340 c 0,12,13
 416 1287 416 1287 379 1249 c 24,14,15
 341 1212 341 1212 290 1212 c 0,16,17
 237 1212 237 1212 201 1250 c 0,18,19
 164 1289 164 1289 164 1340 c 0,20,21
 164 1389 164 1389 201 1429 c 24,22,23
 236 1467 236 1467 290 1467 c 0,8,9
EndSplineSet
Validated: 1
EndChar

StartChar: j
Encoding: 106 106 77
Width: 580
GlyphClass: 2
Flags: W
HStem: -430 100<40 155.547> 1080 20G<200 380> 1212 255<202.129 377.809>
VStem: 164 252<1251.22 1428.81> 200 180<-285.868 1100>
LayerCount: 2
Fore
SplineSet
290 1467 m 0,0,1
 342 1467 342 1467 379 1430 c 0,2,3
 416 1392 416 1392 416 1340 c 0,4,5
 416 1287 416 1287 379 1249 c 24,6,7
 341 1212 341 1212 290 1212 c 0,8,9
 237 1212 237 1212 201 1250 c 0,10,11
 164 1289 164 1289 164 1340 c 0,12,13
 164 1389 164 1389 201 1429 c 24,14,15
 236 1467 236 1467 290 1467 c 0,0,1
40 -430 m 9,16,-1
 40 -330 l 1,17,18
 200 -330 200 -330 200 -151 c 2,19,-1
 200 1100 l 1,20,-1
 380 1100 l 1,21,-1
 380 -151 l 2,22,23
 380 -430 380 -430 40 -430 c 9,16,-1
EndSplineSet
Validated: 1
EndChar

StartChar: k
Encoding: 107 107 78
Width: 1306
GlyphClass: 2
Flags: W
HStem: 0 21G<200 380 953.806 1246> 219 100<380 620.297> 1080 20G<926 1106> 1490 20G<200 380>
VStem: 200 180<0 219 319 1510> 917 178<643.156 1100> 979 267<0 267>
DStem2: 815 347 654 258 0.778926 -0.627116<0 345.353>
LayerCount: 2
Fore
SplineSet
200 0 m 1,0,-1
 200 1510 l 1,1,-1
 380 1510 l 1,2,-1
 380 319 l 1,3,4
 718 319 718 319 848 575 c 0,5,6
 903 684 903 684 917 832 c 0,7,8
 926 929 926 929 926 1100 c 1,9,-1
 1106 1100 l 1,10,11
 1104 920 1104 920 1095 831 c 0,12,13
 1081 684 1081 684 1011.5 558 c 128,-1,14
 942 432 942 432 815 347 c 1,15,-1
 1246 0 l 1,16,-1
 979 0 l 1,17,-1
 654 258 l 1,18,19
 526 219 526 219 380 219 c 1,20,-1
 380 0 l 1,21,-1
 200 0 l 1,0,-1
EndSplineSet
Validated: 1
EndChar

StartChar: l
Encoding: 108 108 79
Width: 580
GlyphClass: 2
Flags: W
HStem: -20 100<408.477 540> 1490 20G<200 380>
VStem: 200 180<110.266 1510>
LayerCount: 2
Fore
SplineSet
540 -20 m 17,0,1
 200 -20 200 -20 200 209 c 2,2,-1
 200 1510 l 1,3,-1
 380 1510 l 1,4,-1
 380 209 l 2,5,6
 380 80 380 80 540 80 c 1,7,-1
 540 -20 l 17,0,1
EndSplineSet
Validated: 1
EndChar

StartChar: m
Encoding: 109 109 80
Width: 2084
GlyphClass: 2
Flags: W
HStem: 0 21G<200 380 952 1132 1704 1884> 1000 120<606.175 885.852 1358.18 1637.85> 1080 20G<200 380>
VStem: 200 180<0 762.395 866 1100> 952 180<0 762.395> 1704 180<0 931.121>
CounterMasks: 1 1c
LayerCount: 2
Fore
SplineSet
200 0 m 1,0,-1
 200 1100 l 1,1,-1
 380 1100 l 1,2,-1
 380 866 l 1,3,4
 464 988 464 988 561 1051 c 0,5,6
 669 1120 669 1120 809 1120 c 0,7,8
 951 1120 951 1120 1041 1028 c 0,9,10
 1101 967 1101 967 1122 870 c 1,11,12
 1191 974 1191 974 1313 1051 c 0,13,14
 1421 1120 1421 1120 1561 1120 c 0,15,16
 1703 1120 1703 1120 1793 1028 c 0,17,18
 1884 935 1884 935 1884 761 c 2,19,-1
 1884 0 l 1,20,-1
 1704 0 l 1,21,-1
 1704 761 l 2,22,23
 1704 869 1704 869 1661 931 c 0,24,25
 1613 1000 1613 1000 1503 1000 c 0,26,27
 1361 1000 1361 1000 1254 883 c 0,28,29
 1132 750 1132 750 1132 541 c 2,30,-1
 1132 0 l 1,31,-1
 952 0 l 1,32,-1
 952 761 l 2,33,34
 952 869 952 869 909 931 c 0,35,36
 861 1000 861 1000 751 1000 c 0,37,38
 609 1000 609 1000 502 883 c 0,39,40
 380 750 380 750 380 541 c 2,41,-1
 380 0 l 1,42,-1
 200 0 l 1,0,-1
EndSplineSet
Validated: 1
EndChar

StartChar: n
Encoding: 110 110 81
Width: 1362
GlyphClass: 2
Flags: W
HStem: 0 21G<200 380 982 1162> 1000 120<617.453 913.05> 1080 20G<200 380>
VStem: 200 180<0 756.767 866 1100> 982 180<0 926.789>
LayerCount: 2
Fore
SplineSet
200 0 m 1,0,-1
 200 1100 l 1,1,-1
 380 1100 l 1,2,-1
 380 866 l 1,3,4
 461 984 461 984 571 1051 c 0,5,6
 685 1120 685 1120 834 1120 c 0,7,8
 973 1120 973 1120 1068 1027 c 0,9,10
 1162 935 1162 935 1162 761 c 2,11,-1
 1162 0 l 1,12,-1
 982 0 l 1,13,-1
 982 761 l 2,14,15
 982 869 982 869 937 930 c 0,16,17
 884 1000 884 1000 782 1000 c 0,18,19
 627 1000 627 1000 512 883 c 0,20,21
 380 749 380 749 380 541 c 2,22,-1
 380 0 l 1,23,-1
 200 0 l 1,0,-1
EndSplineSet
Validated: 1
EndChar

StartChar: o
Encoding: 111 111 82
Width: 1344
GlyphClass: 2
Flags: W
HStem: -20 100<463.008 800.129> 1020 100<543.63 880.992>
VStem: 100 201<264.213 709.842> 1043 201<390.158 835.787>
LayerCount: 2
Fore
SplineSet
597 -20 m 0,0,1
 372 -20 372 -20 227 133 c 0,2,3
 100 267 100 267 100 477 c 0,4,5
 100 742 100 742 299 939 c 0,6,7
 482 1120 482 1120 747 1120 c 0,8,9
 972 1120 972 1120 1117 967 c 0,10,11
 1244 833 1244 833 1244 623 c 0,12,13
 1244 358 1244 358 1045 161 c 0,14,15
 861 -20 861 -20 597 -20 c 0,0,1
615 80 m 0,16,17
 802 80 802 80 915 222 c 0,18,19
 1043 381 1043 381 1043 603 c 0,20,21
 1043 792 1043 792 962 899 c 0,22,23
 869 1020 869 1020 729 1020 c 0,24,25
 542 1020 542 1020 429 878 c 0,26,27
 301 719 301 719 301 497 c 0,28,29
 301 308 301 308 382 201 c 0,30,31
 475 80 475 80 615 80 c 0,16,17
EndSplineSet
Validated: 1
EndChar

StartChar: p
Encoding: 112 112 83
Width: 1391
GlyphClass: 2
Flags: W
HStem: -410 21G<200 380> -20 87<515.994 822.144> 1012 108<608.277 934.717> 1080 20G<200 380>
VStem: 200 180<-410 754.778 866 1100> 1090 201<390.158 835.787>
LayerCount: 2
Fore
SplineSet
200 1100 m 1,0,-1
 380 1100 l 1,1,-1
 380 866 l 1,2,3
 452 985 452 985 551 1051 c 0,4,5
 653 1120 653 1120 794 1120 c 0,6,7
 1019 1120 1019 1120 1164 967 c 0,8,9
 1291 833 1291 833 1291 623 c 0,10,11
 1291 358 1291 358 1092 161 c 0,12,13
 909 -20 909 -20 674 -20 c 0,14,15
 530 -20 530 -20 450 83 c 1,16,-1
 458 91 l 1,17,18
 542 67 542 67 630 67 c 0,19,20
 837 67 837 67 962 222 c 0,21,22
 1090 381 1090 381 1090 603 c 0,23,24
 1090 792 1090 792 1009 899 c 0,25,26
 924 1012 924 1012 776 1012 c 0,27,28
 636 1012 636 1012 534 912 c 0,29,30
 380 760 380 760 380 541 c 2,31,-1
 380 -410 l 1,32,-1
 200 -410 l 1,33,-1
 200 1100 l 1,0,-1
EndSplineSet
Validated: 1
EndChar

StartChar: q
Encoding: 113 113 84
Width: 1325
GlyphClass: 2
Flags: W
HStem: -410 21G<945 1125> -20 87<483.43 755.006> 1020 100<540.91 853.515>
VStem: 100 201<260.829 709.842> 945 180<-410 918.312>
LayerCount: 2
Fore
SplineSet
597 -20 m 0,0,1
 372 -20 372 -20 227 133 c 0,2,3
 100 267 100 267 100 477 c 0,4,5
 100 742 100 742 299 939 c 0,6,7
 482 1120 482 1120 737 1120 c 0,8,9
 913 1120 913 1120 1011 1024 c 0,10,11
 1125 912 1125 912 1125 711 c 2,12,-1
 1125 -410 l 1,13,-1
 945 -410 l 1,14,-1
 945 711 l 2,15,16
 945 854 945 854 895 929 c 0,17,18
 833 1020 833 1020 719 1020 c 0,19,20
 542 1020 542 1020 429 878 c 0,21,22
 301 719 301 719 301 497 c 0,23,24
 301 304 301 304 382 201 c 0,25,26
 488 67 488 67 641 67 c 0,27,28
 729 67 729 67 813 91 c 1,29,-1
 821 83 l 1,30,31
 741 -20 741 -20 597 -20 c 0,0,1
EndSplineSet
Validated: 1
EndChar

StartChar: r
Encoding: 114 114 85
Width: 1149
GlyphClass: 2
Flags: W
HStem: 0 21G<200 380> 1000 120<617.453 912.633> 1080 20G<200 380>
VStem: 200 180<0 756.767 866 1100>
LayerCount: 2
Fore
SplineSet
200 0 m 1,0,-1
 200 1100 l 1,1,-1
 380 1100 l 1,2,-1
 380 866 l 1,3,4
 461 984 461 984 571 1051 c 0,5,6
 685 1120 685 1120 834 1120 c 0,7,8
 971 1120 971 1120 1068 1027 c 0,9,10
 1115 981 1115 981 1139 913 c 1,11,12
 979 817 l 1,13,14
 970 886 970 886 937 930 c 0,15,16
 884 1000 884 1000 782 1000 c 0,17,18
 627 1000 627 1000 512 883 c 0,19,20
 380 749 380 749 380 541 c 2,21,-1
 380 0 l 1,22,-1
 200 0 l 1,0,-1
EndSplineSet
Validated: 1
EndChar

StartChar: s
Encoding: 115 115 86
Width: 1020
GlyphClass: 2
Flags: W
HStem: -20 100<321.494 654.616> 1020 100<440.182 692.608>
VStem: 229 160<781.82 967.351> 753 167<182.083 420.562>
DStem2: 485 747 411 575 0.901816 -0.43212<-119.941 395.687>
LayerCount: 2
Fore
SplineSet
490 -20 m 0,0,1
 250 -20 250 -20 100 154 c 1,2,-1
 224 222 l 1,3,4
 319 80 319 80 483 80 c 0,5,6
 623 80 623 80 692 156 c 0,7,8
 753 223 753 223 753 316 c 0,9,10
 753 411 753 411 651 460 c 2,11,-1
 411 575 l 2,12,13
 229 662 229 662 229 816 c 0,14,15
 229 953 229 953 340 1041 c 0,16,17
 439 1120 439 1120 572 1120 c 0,18,19
 729 1120 729 1120 837 1014 c 1,20,-1
 728 933 l 1,21,22
 673 1020 673 1020 576 1020 c 0,23,24
 482 1020 482 1020 432 968 c 0,25,26
 389 923 389 923 389 870 c 0,27,28
 389 793 389 793 485 747 c 2,29,-1
 719 635 l 2,30,31
 920 539 920 539 920 354 c 0,32,33
 920 181 920 181 771 66 c 0,34,35
 659 -20 659 -20 490 -20 c 0,0,1
EndSplineSet
Validated: 1
EndChar

StartChar: t
Encoding: 116 116 87
Width: 700
GlyphClass: 2
Flags: W
HStem: -20 100<408.477 540> 1000 100<60 200 380 680> 1490 20G<200 380>
VStem: 200 180<110.266 1000 1100 1510>
LayerCount: 2
Fore
SplineSet
540 -20 m 1,0,1
 200 -20 200 -20 200 209 c 2,2,-1
 200 1000 l 1,3,-1
 60 1000 l 1,4,-1
 60 1100 l 1,5,-1
 200 1100 l 1,6,-1
 200 1510 l 1,7,-1
 380 1510 l 1,8,-1
 380 1100 l 1,9,-1
 680 1100 l 1,10,-1
 680 1000 l 1,11,-1
 380 1000 l 1,12,-1
 380 209 l 2,13,14
 380 80 380 80 540 80 c 1,15,-1
 540 -20 l 1,0,1
EndSplineSet
Validated: 1
EndChar

StartChar: u
Encoding: 117 117 88
Width: 1362
GlyphClass: 2
Flags: W
HStem: -20 120<448.95 744.547> 0 21G<982 1162> 1080 20G<200 380 982 1162>
VStem: 200 180<173.211 1100> 982 180<0 234 343.233 1100>
LayerCount: 2
Fore
SplineSet
1162 0 m 1,0,-1
 982 0 l 1,1,-1
 982 234 l 1,2,3
 901 116 901 116 791 49 c 0,4,5
 677 -20 677 -20 528 -20 c 0,6,7
 389 -20 389 -20 294 73 c 0,8,9
 200 165 200 165 200 339 c 2,10,-1
 200 1100 l 1,11,-1
 380 1100 l 1,12,-1
 380 339 l 2,13,14
 380 231 380 231 425 170 c 0,15,16
 478 100 478 100 580 100 c 0,17,18
 735 100 735 100 850 217 c 0,19,20
 982 351 982 351 982 559 c 2,21,-1
 982 1100 l 1,22,-1
 1162 1100 l 1,23,-1
 1162 0 l 1,0,-1
EndSplineSet
Validated: 1
EndChar

StartChar: v
Encoding: 118 118 89
Width: 1200
GlyphClass: 2
Flags: W
HStem: 0 21G<491 709> 1080 20G<5 216.996 1076.02 1195>
DStem2: 208 1100 5 1100 0.410365 -0.911922<0 1070.19> 647 124 700 0 0.410365 0.911922<0 1069.78>
LayerCount: 2
Fore
SplineSet
500 0 m 1,0,-1
 5 1100 l 1,1,-1
 208 1100 l 1,2,-1
 647 124 l 1,3,-1
 1085 1100 l 1,4,-1
 1195 1100 l 1,5,-1
 700 0 l 1,6,-1
 500 0 l 1,0,-1
EndSplineSet
Validated: 1
EndChar

StartChar: w
Encoding: 119 119 90
Width: 1992
GlyphClass: 2
Flags: W
HStem: -20 120<446.148 725.825 1198.41 1490.84> 1080 20G<200 380 952 1132 1462 1740.5>
VStem: 200 180<168.879 1100> 952 180<337.605 1100> 1735 157<388.967 822.527>
LayerCount: 2
Fore
SplineSet
523 -20 m 0,0,1
 381 -20 381 -20 291 72 c 0,2,3
 200 165 200 165 200 339 c 2,4,-1
 200 1100 l 1,5,-1
 380 1100 l 1,6,-1
 380 339 l 2,7,8
 380 231 380 231 423 169 c 0,9,10
 471 100 471 100 581 100 c 0,11,12
 723 100 723 100 830 217 c 0,13,14
 952 350 952 350 952 559 c 2,15,-1
 952 1100 l 1,16,-1
 1132 1100 l 1,17,-1
 1132 339 l 2,18,19
 1132 231 1132 231 1175 169 c 0,20,21
 1223 100 1223 100 1338 100 c 0,22,23
 1512 100 1512 100 1625 254 c 0,24,25
 1735 404 1735 404 1735 601 c 0,26,27
 1735 759 1735 759 1657 889 c 0,28,29
 1587 1004 1587 1004 1462 1100 c 1,30,-1
 1697 1100 l 1,31,32
 1784 1023 1784 1023 1837 903 c 0,33,34
 1892 780 1892 780 1892 623 c 0,35,36
 1892 357 1892 357 1693 161 c 0,37,38
 1509 -20 1509 -20 1273 -20 c 0,39,40
 1116 -20 1116 -20 1040 71 c 0,41,42
 983 139 983 139 962 230 c 1,43,44
 893 126 893 126 771 49 c 0,45,46
 663 -20 663 -20 523 -20 c 0,0,1
EndSplineSet
Validated: 1
EndChar

StartChar: x
Encoding: 120 120 91
Width: 1026
GlyphClass: 2
Flags: W
HStem: 0 21G<5 151.322 792.425 1021> 1080 20G<5 233.575 874.678 1021>
VStem: 5 214<886 1100> 5 130<0 130> 807 214<0 214> 891 130<970 1100>
DStem2: 219 1100 5 1100 0.589132 -0.808037<0 538.251 696.999 1235.25> 5 0 135 0 0.627282 0.778792<81.5466 643.006 850.984 1412.44>
LayerCount: 2
Fore
SplineSet
5 0 m 1,0,-1
 428 520 l 1,1,-1
 5 1100 l 1,2,-1
 219 1100 l 1,3,-1
 536 665 l 1,4,-1
 891 1100 l 1,5,-1
 1021 1100 l 1,6,-1
 598 580 l 1,7,-1
 1021 0 l 1,8,-1
 807 0 l 1,9,-1
 490 435 l 1,10,-1
 135 0 l 1,11,-1
 5 0 l 1,0,-1
EndSplineSet
Validated: 1
EndChar

StartChar: y
Encoding: 121 121 92
Width: 1362
GlyphClass: 2
Flags: W
HStem: -430 100<338.877 723.811> -20 120<448.95 744.547> 1080 20G<200 380 982 1162>
VStem: 200 180<173.211 1100> 982 180<-20.2031 234 343.233 1100>
LayerCount: 2
Fore
SplineSet
528 -20 m 0,0,1
 389 -20 389 -20 294 73 c 0,2,3
 200 165 200 165 200 339 c 2,4,-1
 200 1100 l 1,5,-1
 380 1100 l 1,6,-1
 380 339 l 2,7,8
 380 231 380 231 425 170 c 0,9,10
 478 100 478 100 580 100 c 0,11,12
 735 100 735 100 850 217 c 0,13,14
 982 351 982 351 982 559 c 2,15,-1
 982 1100 l 1,16,-1
 1162 1100 l 1,17,-1
 1162 213 l 2,18,19
 1162 -52 1162 -52 963 -249 c 0,20,21
 779 -430 779 -430 515 -430 c 0,22,23
 379 -430 379 -430 273 -375 c 1,24,-1
 354 -266 l 1,25,26
 431 -330 431 -330 533 -330 c 0,27,28
 722 -330 722 -330 843 -192 c 0,29,30
 981 -35 981 -35 982 234 c 1,31,32
 901 116 901 116 791 49 c 0,33,34
 677 -20 677 -20 528 -20 c 0,0,1
EndSplineSet
Validated: 1
EndChar

StartChar: z
Encoding: 122 122 93
Width: 1170
GlyphClass: 2
Flags: W
HStem: 0 100<352 1010> 1000 100<178 830>
VStem: 830 180<816.625 1000>
LayerCount: 2
Fore
SplineSet
70 0 m 1,0,-1
 70 95 l 1,1,2
 830 540 830 540 830 1000 c 1,3,-1
 178 1000 l 1,4,-1
 178 1100 l 1,5,-1
 1010 1100 l 1,6,7
 1010 511 1010 511 352 100 c 1,8,-1
 1010 100 l 1,9,-1
 1010 0 l 1,10,-1
 70 0 l 1,0,-1
EndSplineSet
Validated: 1
EndChar

StartChar: braceleft
Encoding: 123 123 94
Width: 838
GlyphClass: 2
Flags: W
HStem: -250 120<604.775 788> 695 120<50 286> 1640 120<604.775 788>
VStem: 286 195<-8.125 695 815 1518.12>
CounterMasks: 1 e0
LayerCount: 2
Fore
SplineSet
788 -250 m 1,0,1
 286 -250 286 -250 286 180 c 2,2,-1
 286 695 l 1,3,-1
 50 695 l 1,4,-1
 50 815 l 1,5,-1
 286 815 l 1,6,-1
 286 1330 l 2,7,8
 286 1760 286 1760 788 1760 c 1,9,-1
 788 1640 l 1,10,11
 481 1640 481 1640 481 1330 c 2,12,-1
 481 180 l 2,13,14
 481 -130 481 -130 788 -130 c 1,15,-1
 788 -250 l 1,0,1
EndSplineSet
Validated: 1
EndChar

StartChar: bar
Encoding: 124 124 95
Width: 680
GlyphClass: 2
Flags: W
VStem: 250 180<-130 1640>
LayerCount: 2
Fore
SplineSet
250 -130 m 1,0,-1
 250 1640 l 1,1,-1
 430 1640 l 1,2,-1
 430 -130 l 1,3,-1
 250 -130 l 1,0,-1
EndSplineSet
Validated: 1
EndChar

StartChar: braceright
Encoding: 125 125 96
Width: 838
GlyphClass: 2
Flags: W
HStem: -250 120<50 233.225> 695 120<552 788> 1640 120<50 233.225>
VStem: 357 195<-8.125 695 815 1518.12>
CounterMasks: 1 e0
LayerCount: 2
Fore
SplineSet
50 -250 m 1,0,1
 50 -130 l 1,2,3
 357 -130 357 -130 357 180 c 2,4,-1
 357 1330 l 2,5,6
 357 1640 357 1640 50 1640 c 1,7,-1
 50 1760 l 1,8,9
 552 1760 552 1760 552 1330 c 2,10,-1
 552 815 l 1,11,-1
 788 815 l 1,12,-1
 788 695 l 1,13,-1
 552 695 l 1,14,-1
 552 180 l 2,15,16
 552 -250 552 -250 50 -250 c 1,0,1
EndSplineSet
Validated: 1
EndChar

StartChar: asciitilde
Encoding: 126 126 97
Width: 1182
GlyphClass: 2
Flags: W
HStem: 571 155<698.851 893.232> 762 155<292.055 483.149>
VStem: 150 91<635.329 705.688> 941 91<775.676 852.671>
DStem2: 716 759 466 729 0.829489 -0.558523<-285.044 102.465>
LayerCount: 2
Fore
SplineSet
941 883 m 1,0,-1
 1032 847 l 1,1,2
 959 571 959 571 785 571 c 0,3,4
 701 571 701 571 616 628 c 2,5,-1
 466 729 l 2,6,7
 417 762 417 762 373 762 c 0,8,9
 282 762 282 762 241 605 c 1,10,-1
 150 641 l 1,11,12
 223 917 223 917 397 917 c 0,13,14
 481 917 481 917 566 860 c 2,15,-1
 716 759 l 2,16,17
 765 726 765 726 819 726 c 0,18,19
 900 726 900 726 941 883 c 1,0,-1
EndSplineSet
Validated: 1
EndChar

StartChar: exclamdown
Encoding: 161 161 99
Width: 740
GlyphClass: 2
Flags: W
HStem: -410 21G<250 490> 865 255<282.191 457.871>
VStem: 244 252<903.191 1080.78> 315 110<491.819 747>
LayerCount: 2
Fore
SplineSet
490 -410 m 1,0,-1
 250 -410 l 1,1,-1
 315 747 l 1,2,-1
 425 747 l 1,3,-1
 490 -410 l 1,0,-1
370 1120 m 0,4,5
 423 1120 423 1120 459 1082 c 0,6,7
 496 1043 496 1043 496 992 c 0,8,9
 496 943 496 943 459 903 c 24,10,11
 424 865 424 865 370 865 c 0,12,13
 318 865 318 865 281 902 c 0,14,15
 244 940 244 940 244 992 c 0,16,17
 244 1045 244 1045 281 1083 c 24,18,19
 319 1120 319 1120 370 1120 c 0,4,5
EndSplineSet
Validated: 1
EndChar

StartChar: cent
Encoding: 162 162 100
Width: 1201
GlyphClass: 2
Flags: W
HStem: -20 100<464.188 622 722 801.03> 1020 100<543.312 622 722 873.543>
VStem: 100 201<264.213 709.842> 622 100<-120 -20 92 1008 1120 1220>
LayerCount: 2
Fore
SplineSet
622 -20 m 1,0,1
 610 -20 610 -20 597 -20 c 0,2,3
 372 -20 372 -20 227 133 c 0,4,5
 100 267 100 267 100 477 c 0,6,7
 100 742 100 742 299 939 c 0,8,9
 437 1076 437 1076 622 1109 c 1,10,-1
 622 1220 l 1,11,-1
 722 1220 l 1,12,-1
 722 1120 l 1,13,14
 734 1120 734 1120 747 1120 c 0,15,16
 972 1120 972 1120 1117 967 c 1,17,-1
 969 890 l 1,18,19
 867 1020 867 1020 722 1020 c 1,20,-1
 722 92 l 1,21,22
 834 121 834 121 915 222 c 0,23,24
 960 278 960 278 989 341 c 1,25,-1
 1121 248 l 1,26,27
 1087 203 1087 203 1045 161 c 0,28,29
 908 24 908 24 722 -9 c 1,30,-1
 722 -120 l 1,31,-1
 622 -120 l 1,32,-1
 622 -20 l 1,0,1
622 80 m 1,33,-1
 622 1008 l 1,34,35
 509 979 509 979 429 878 c 0,36,37
 301 719 301 719 301 497 c 0,38,39
 301 308 301 308 382 201 c 0,40,41
 475 80 475 80 622 80 c 1,33,-1
EndSplineSet
Validated: 1
EndChar

StartChar: sterling
Encoding: 163 163 101
Width: 1189
GlyphClass: 2
Flags: W
HStem: 0 120<100 200 400 1028> 767 100<100 200 400 852> 1430 100<637.697 1023.12>
VStem: 200 200<120 767 867 1120.5>
LayerCount: 2
Fore
SplineSet
100 0 m 1,0,-1
 100 120 l 1,1,-1
 200 120 l 1,2,-1
 200 767 l 1,3,-1
 100 767 l 1,4,-1
 100 867 l 1,5,-1
 200 867 l 1,6,-1
 200 887 l 2,7,8
 200 1152 200 1152 399 1349 c 0,9,10
 583 1530 583 1530 847 1530 c 0,11,12
 983 1530 983 1530 1089 1475 c 1,13,-1
 1008 1366 l 1,14,15
 931 1430 931 1430 829 1430 c 0,16,17
 638 1430 638 1430 519 1292 c 128,-1,18
 400 1154 400 1154 400 867 c 1,19,-1
 852 867 l 1,20,-1
 852 767 l 1,21,-1
 400 767 l 1,22,-1
 400 120 l 1,23,-1
 1028 120 l 1,24,-1
 1028 0 l 1,25,-1
 100 0 l 1,0,-1
EndSplineSet
Validated: 1
EndChar

StartChar: currency
Encoding: 164 164 102
Width: 1474
GlyphClass: 2
Flags: W
HStem: 180 100<527.281 866.529> 1220 100<608.519 945.259>
VStem: 165 201<464.027 908.813> 1108 201<590.029 1035.75>
DStem2: 256 1342 150 1236 0.707107 -0.707107<0 228.919 1288.98 1510.38> 150 274 256 168 0.707107 0.707107<0 155.826 1348.17 1510.38>
LayerCount: 2
Fore
SplineSet
680 280 m 0,0,1
 867 280 867 280 980 422 c 0,2,3
 1108 581 1108 581 1108 803 c 0,4,5
 1108 992 1108 992 1027 1099 c 0,6,7
 934 1220 934 1220 794 1220 c 0,8,9
 607 1220 607 1220 494 1078 c 0,10,11
 366 919 366 919 366 697 c 0,12,13
 366 508 366 508 447 401 c 0,14,15
 540 280 540 280 680 280 c 0,0,1
150 1236 m 1,16,-1
 256 1342 l 1,17,-1
 414 1184 l 1,18,19
 582 1320 582 1320 812 1320 c 0,20,21
 983 1320 983 1320 1108 1232 c 1,22,-1
 1218 1342 l 1,23,-1
 1324 1236 l 1,24,-1
 1215 1127 l 1,25,26
 1309 1003 1309 1003 1309 823 c 0,27,28
 1309 602 1309 602 1170 428 c 1,29,-1
 1324 274 l 1,30,-1
 1218 168 l 1,31,-1
 1065 321 l 1,32,33
 894 180 894 180 662 180 c 0,34,35
 487 180 487 180 360 272 c 1,36,-1
 256 168 l 1,37,-1
 150 274 l 1,38,-1
 254 378 l 1,39,40
 165 501 165 501 165 677 c 0,41,42
 165 902 165 902 308 1078 c 1,43,-1
 150 1236 l 1,16,-1
EndSplineSet
Validated: 1
EndChar

StartChar: yen
Encoding: 165 165 103
Width: 1372
GlyphClass: 2
Flags: W
HStem: 0 21G<573 773> 278 100<251 573 773 1121> 488 100<251 484 866 1121> 1490 20G<5 239.282 1221.15 1367>
VStem: 573 200<0 278 378 416>
DStem2: 229 1510 5 1510 0.460791 -0.887509<0 935.785> 732 588 866 588 0.477163 0.878815<63.9398 1048.85>
LayerCount: 2
Fore
SplineSet
573 0 m 1,0,-1
 573 278 l 1,1,-1
 251 278 l 1,2,-1
 251 378 l 1,3,-1
 573 378 l 1,4,-1
 573 416 l 1,5,-1
 536 488 l 1,6,-1
 251 488 l 1,7,-1
 251 588 l 1,8,-1
 484 588 l 1,9,-1
 5 1510 l 1,10,-1
 229 1510 l 1,11,-1
 703 588 l 1,12,-1
 732 588 l 1,13,-1
 1232 1510 l 1,14,-1
 1367 1510 l 1,15,-1
 866 588 l 1,16,-1
 1121 588 l 1,17,-1
 1121 488 l 1,18,-1
 812 488 l 1,19,-1
 773 416 l 1,20,-1
 773 378 l 1,21,-1
 1121 378 l 1,22,-1
 1121 278 l 1,23,-1
 773 278 l 1,24,-1
 773 0 l 1,25,-1
 573 0 l 1,0,-1
EndSplineSet
Validated: 1
EndChar

StartChar: brokenbar
Encoding: 166 166 104
Width: 680
GlyphClass: 2
Flags: W
VStem: 250 180<-130 622 887 1640>
LayerCount: 2
Fore
SplineSet
430 -130 m 1,0,-1
 250 -130 l 1,1,-1
 250 622 l 1,2,-1
 430 622 l 1,3,-1
 430 -130 l 1,0,-1
250 1640 m 1,4,-1
 430 1640 l 1,5,-1
 430 887 l 1,6,-1
 250 887 l 1,7,-1
 250 1640 l 1,4,-1
EndSplineSet
Validated: 1
EndChar

StartChar: section
Encoding: 167 167 105
Width: 1070
GlyphClass: 2
Flags: W
HStem: -20 100<377.392 629.818> 1430 100<440.182 692.608>
VStem: 150 167<669.877 918.167> 229 160<1190.57 1377.35> 681 160<132.649 319.433> 753 167<591.833 840.123>
DStem2: 414 634 351 465 0.901816 -0.43212<-114.589 396.582> 485 1157 416 991 0.901816 -0.43212<-120.945 390.226>
LayerCount: 2
Fore
SplineSet
498 -20 m 0,0,1
 341 -20 341 -20 233 86 c 1,2,-1
 342 167 l 1,3,4
 397 80 397 80 494 80 c 0,5,6
 588 80 588 80 638 132 c 0,7,8
 681 177 681 177 681 230 c 0,9,10
 681 307 681 307 585 353 c 2,11,-1
 351 465 l 2,12,13
 150 561 150 561 150 746 c 0,14,15
 150 906 150 906 277 1016 c 1,16,-1
 378 944 l 1,17,18
 317 877 317 877 317 784 c 0,19,20
 317 680 317 680 414 634 c 2,21,-1
 654 519 l 2,22,23
 841 429 841 429 841 284 c 0,24,25
 841 147 841 147 730 59 c 0,26,27
 631 -20 631 -20 498 -20 c 0,0,1
572 1530 m 0,28,29
 729 1530 729 1530 837 1424 c 1,30,-1
 728 1343 l 1,31,32
 673 1430 673 1430 576 1430 c 0,33,34
 482 1430 482 1430 432 1378 c 0,35,36
 389 1333 389 1333 389 1280 c 0,37,38
 389 1203 389 1203 485 1157 c 2,39,-1
 719 1045 l 2,40,41
 920 949 920 949 920 764 c 0,42,43
 920 604 920 604 793 494 c 1,44,-1
 692 566 l 1,45,46
 753 633 753 633 753 726 c 0,47,48
 753 830 753 830 656 876 c 2,49,-1
 416 991 l 2,50,51
 229 1081 229 1081 229 1226 c 0,52,53
 229 1363 229 1363 340 1451 c 0,54,55
 439 1530 439 1530 572 1530 c 0,28,29
EndSplineSet
Validated: 1
EndChar

StartChar: dieresis
Encoding: 168 168 106
Width: 576
GlyphClass: 2
Flags: W
HStem: 1233 217<70.4648 231.966 343.972 493.966>
VStem: 50 214<1266 1417.03> 312 214<1266.03 1416.94>
LayerCount: 2
Fore
SplineSet
419 1450 m 0,0,1
 462 1450 462 1450 495 1418 c 0,2,3
 526 1387 526 1387 526 1343 c 0,4,5
 526 1296 526 1296 495 1265 c 0,6,7
 463 1233 463 1233 418.5 1233 c 128,-1,8
 374 1233 374 1233 343 1265 c 0,9,10
 312 1298 312 1298 312 1342 c 0,11,12
 312 1384 312 1384 343 1418 c 24,13,14
 373 1450 373 1450 419 1450 c 0,0,1
157 1450 m 0,15,16
 200 1450 200 1450 233 1418 c 0,17,18
 264 1387 264 1387 264 1343 c 24,19,20
 264 1297 264 1297 233 1265 c 128,-1,21
 202 1233 202 1233 157 1233 c 0,22,23
 111 1233 111 1233 81 1265 c 0,24,25
 50 1296 50 1296 50 1342 c 0,26,27
 50 1386 50 1386 81 1418 c 0,28,29
 111 1450 111 1450 157 1450 c 0,15,16
EndSplineSet
Validated: 1
EndChar

StartChar: copyright
Encoding: 169 169 107
Width: 1401
GlyphClass: 2
Flags: W
HStem: 386 55<534.73 857.893> 570 72<567.319 817.284> 1283 71<616.987 860.988> 1475 55<542.972 858.032>
VStem: 150 60<779.952 1138.53> 306 149<751.645 1108.98> 1190 61<771.255 1146.12>
LayerCount: 2
Fore
SplineSet
756 1354 m 128,-1,1
 936 1354 936 1354 1040 1247 c 1,2,-1
 926 1185 l 1,3,4
 854 1283 854 1283 742 1283 c 0,5,6
 633 1283 633 1283 556 1198 c 24,7,8
 455 1086 455 1086 455 921 c 0,9,10
 455 805 455 805 518 724 c 0,11,12
 581 642 581 642 689 642 c 0,13,14
 855 642 855 642 938 823 c 1,15,-1
 1041 748 l 1,16,17
 911 570 911 570 670 570 c 0,18,19
 494 570 494 570 400 670 c 0,20,21
 306 768 306 768 306 909 c 0,22,23
 307 1110 307 1110 449 1239 c 0,24,0
 576 1354 576 1354 756 1354 c 128,-1,1
701 1530 m 0,25,26
 943 1530 943 1530 1099 1357 c 0,27,28
 1251 1188 1251 1188 1251 953 c 0,29,30
 1251 701 1251 701 1090 549 c 0,31,32
 919 386 919 386 699 386 c 0,33,34
 476 386 476 386 311 549 c 0,35,36
 150 708 150 708 150 953 c 0,37,38
 150 1197 150 1197 308 1362 c 0,39,40
 469 1530 469 1530 701 1530 c 0,25,26
699 1475 m 0,41,42
 503 1475 503 1475 357 1330 c 0,43,44
 210 1184 210 1184 210 953 c 0,45,46
 210 751 210 751 354 591 c 0,47,48
 489 441 489 441 701 441 c 0,49,50
 898 441 898 441 1047 591 c 0,51,52
 1190 736 1190 736 1190 953 c 0,53,54
 1190 1188 1190 1188 1049 1327 c 0,55,56
 899 1475 899 1475 699 1475 c 0,41,42
EndSplineSet
Validated: 1
EndChar

StartChar: ordfeminine
Encoding: 170 170 108
Width: 652
VWidth: 1299
GlyphClass: 2
Flags: W
HStem: 787 120<50 602> 969 55<267.026 417.069> 1489 61<292.429 440.954>
VStem: 50 141<1082.56 1386.29> 472 130<979 1448.9>
LayerCount: 2
Fore
SplineSet
50 907 m 1,0,-1
 602 907 l 1,1,-1
 602 787 l 1,2,-1
 50 787 l 1,3,-1
 50 907 l 1,0,-1
388 1550 m 0,4,5
 495 1550 495 1550 546 1495 c 0,6,7
 602 1435 602 1435 602 1340 c 2,8,-1
 602 979 l 1,9,-1
 472 979 l 1,10,-1
 472 1339 l 2,11,12
 472 1415 472 1415 448 1450 c 0,13,14
 421 1489 421 1489 379 1489 c 0,15,16
 308 1489 308 1489 254 1422 c 24,17,18
 191 1342 191 1342 191 1240 c 128,-1,19
 191 1138 191 1138 236 1082 c 0,20,21
 282 1024 282 1024 334 1024 c 0,22,23
 391 1024 391 1024 436 1040 c 1,24,-1
 450 1025 l 1,25,26
 403 969 403 969 318 969 c 0,27,28
 191 969 191 969 120 1046 c 0,29,30
 50 1120 50 1120 50 1238 c 128,-1,31
 50 1356 50 1356 149 1452 c 0,32,33
 250 1550 250 1550 388 1550 c 0,4,5
EndSplineSet
Validated: 1
EndChar

StartChar: guillemotleft
Encoding: 171 171 109
Width: 1140
GlyphClass: 2
Flags: W
HStem: 316 201<339 540 739 940> 1059 133<407 540 807 940>
DStem2: 150 845 234 789 0.747092 0.66472<25.5314 433.616> 234 789 150 663 0.747092 -0.66472<20.999 409.414> 550 845 634 789 0.747092 0.66472<25.5314 433.616> 634 789 550 663 0.747092 -0.66472<20.999 409.414>
LayerCount: 2
Fore
SplineSet
550 845 m 1,0,-1
 940 1192 l 1,1,-1
 940 1059 l 1,2,-1
 634 789 l 1,3,-1
 940 517 l 1,4,-1
 940 316 l 1,5,-1
 550 663 l 1,6,-1
 550 845 l 1,0,-1
150 845 m 1,7,-1
 540 1192 l 1,8,-1
 540 1059 l 1,9,-1
 234 789 l 1,10,-1
 540 517 l 1,11,-1
 540 316 l 1,12,-1
 150 663 l 1,13,-1
 150 845 l 1,7,-1
EndSplineSet
Validated: 1
EndChar

StartChar: logicalnot
Encoding: 172 172 110
Width: 1180
GlyphClass: 2
Flags: W
HStem: 680 150<150 910>
VStem: 910 120<423 680>
LayerCount: 2
Fore
SplineSet
150 830 m 1,0,-1
 1030 830 l 1,1,-1
 1030 423 l 1,2,-1
 910 423 l 1,3,-1
 910 680 l 1,4,-1
 150 680 l 1,5,-1
 150 830 l 1,0,-1
EndSplineSet
Validated: 1
EndChar

StartChar: uni00AD
Encoding: 173 173 111
Width: 1180
GlyphClass: 2
Flags: W
HStem: 680 150<150 1030>
LayerCount: 2
Fore
SplineSet
150 830 m 1,0,-1
 1030 830 l 1,1,-1
 1030 680 l 1,2,-1
 150 680 l 1,3,-1
 150 830 l 1,0,-1
EndSplineSet
Validated: 1
EndChar

StartChar: registered
Encoding: 174 174 112
Width: 1401
GlyphClass: 2
Flags: W
HStem: 386 55<534.73 857.531> 1275 79<628.349 844.328> 1475 55<542.972 858.032>
VStem: 150 60<779.952 1138.53> 389 140<579 1177.29 1249 1346> 896 151<925.906 1226.81> 1190 61<770.039 1146.12>
LayerCount: 2
Fore
SplineSet
699 1475 m 0,0,1
 503 1475 503 1475 357 1330 c 0,2,3
 210 1184 210 1184 210 953 c 0,4,5
 210 751 210 751 354 591 c 0,6,7
 489 441 489 441 701 441 c 0,8,9
 890 441 890 441 1035 579 c 1,10,-1
 866 579 l 1,11,-1
 544 817 l 1,12,-1
 562 838 l 1,13,14
 611 814 611 814 688 814 c 128,-1,15
 765 814 765 814 824 877 c 0,16,17
 896 953 896 953 896 1094 c 0,18,19
 896 1179 896 1179 853 1227 c 128,-1,20
 810 1275 810 1275 735.5 1275 c 128,-1,21
 661 1275 661 1275 598 1209 c 0,22,23
 529 1135 529 1135 529 1021 c 2,24,-1
 529 579 l 1,25,-1
 389 579 l 1,26,-1
 389 1346 l 1,27,-1
 529 1346 l 1,28,-1
 529 1249 l 1,29,30
 620 1354 620 1354 759.5 1354 c 128,-1,31
 899 1354 899 1354 973 1284 c 128,-1,32
 1047 1214 1047 1214 1047 1101 c 0,33,34
 1047 936 1047 936 924 833 c 0,35,36
 880 796 880 796 812 774 c 1,37,-1
 1053 597 l 1,38,39
 1190 740 1190 740 1190 953 c 0,40,41
 1190 1188 1190 1188 1049 1327 c 0,42,43
 899 1475 899 1475 699 1475 c 0,0,1
701 1530 m 0,44,45
 943 1530 943 1530 1099 1357 c 0,46,47
 1251 1188 1251 1188 1251 953 c 0,48,49
 1251 701 1251 701 1090 549 c 0,50,51
 919 386 919 386 699 386 c 0,52,53
 476 386 476 386 311 549 c 0,54,55
 150 708 150 708 150 953 c 0,56,57
 150 1197 150 1197 308 1362 c 0,58,59
 469 1530 469 1530 701 1530 c 0,44,45
EndSplineSet
Validated: 1
EndChar

StartChar: macron
Encoding: 175 175 113
Width: 620
GlyphClass: 2
Flags: W
HStem: 1280 120<50 570>
VStem: 50 520<1280 1400>
LayerCount: 2
Fore
SplineSet
50 1400 m 1,0,-1
 570 1400 l 1,1,-1
 570 1280 l 1,2,-1
 50 1280 l 1,3,-1
 50 1400 l 1,0,-1
EndSplineSet
Validated: 1
EndChar

StartChar: degree
Encoding: 176 176 114
Width: 730
GlyphClass: 2
Flags: W
HStem: 924 93<240.923 456.705> 1457 93<273.295 489.307>
VStem: 50 141<1071.26 1365.2> 539 141<1108.8 1402.74>
LayerCount: 2
Fore
SplineSet
407 1550 m 0,0,1
 530 1550 530 1550 609 1466 c 0,2,3
 680 1391 680 1391 680 1277 c 0,4,5
 680 1131 680 1131 570 1024 c 0,6,7
 467 924 467 924 323 924 c 0,8,9
 201 924 201 924 121 1008 c 0,10,11
 50 1083 50 1083 50 1197 c 0,12,13
 50 1343 50 1343 160 1450 c 0,14,15
 263 1550 263 1550 407 1550 c 0,0,1
391 1457 m 0,16,17
 306 1457 306 1457 252 1390 c 0,18,19
 191 1316 191 1316 191 1212 c 0,20,21
 191 1124 191 1124 230 1074 c 0,22,23
 273 1017 273 1017 339 1017 c 0,24,25
 424 1017 424 1017 478 1084 c 0,26,27
 539 1158 539 1158 539 1262 c 0,28,29
 539 1350 539 1350 500 1400 c 0,30,31
 457 1457 457 1457 391 1457 c 0,16,17
EndSplineSet
Validated: 1
EndChar

StartChar: plusminus
Encoding: 177 177 115
Width: 1181
GlyphClass: 2
Flags: W
HStem: 215 150<150 1030> 783 150<151 516 666 1031>
VStem: 516 150<418 783 933 1298>
LayerCount: 2
Fore
SplineSet
150 365 m 1,0,-1
 1030 365 l 1,1,-1
 1030 215 l 1,2,-1
 150 215 l 1,3,-1
 150 365 l 1,0,-1
516 1298 m 1,4,-1
 666 1298 l 1,5,-1
 666 933 l 1,6,-1
 1031 933 l 1,7,-1
 1031 783 l 1,8,-1
 666 783 l 1,9,-1
 666 418 l 1,10,-1
 516 418 l 1,11,-1
 516 783 l 1,12,-1
 151 783 l 1,13,-1
 151 933 l 1,14,-1
 516 933 l 1,15,-1
 516 1298 l 1,4,-1
EndSplineSet
Validated: 1
EndChar

StartChar: uni00B2
Encoding: 178 178 116
Width: 677
VWidth: 1406
GlyphClass: 2
Flags: W
HStem: 783 71<203 627> 1489 71<234.518 418.031>
VStem: 469 158<1173.51 1443.6>
LayerCount: 2
Fore
SplineSet
627 783 m 1,0,-1
 50 783 l 1,1,-1
 50 850 l 1,2,3
 297 995 297 995 406 1146 c 0,4,5
 469 1233 469 1233 469 1314 c 128,-1,6
 469 1395 469 1395 430 1442 c 0,7,8
 390 1489 390 1489 331 1489 c 0,9,10
 264 1489 264 1489 216 1437 c 0,11,12
 177 1396 177 1396 153 1322 c 1,13,-1
 59 1372 l 1,14,15
 71 1397 71 1397 100 1434 c 0,16,17
 198 1560 198 1560 359 1560 c 0,18,19
 483 1560 483 1560 554 1491 c 0,20,21
 622 1422 622 1422 622 1315 c 0,22,23
 622 1203 622 1203 542 1112 c 0,24,25
 413 964 413 964 203 854 c 1,26,-1
 627 854 l 1,27,-1
 627 783 l 1,0,-1
EndSplineSet
Validated: 1
EndChar

StartChar: uni00B3
Encoding: 179 179 117
Width: 713
VWidth: 1401
GlyphClass: 2
Flags: W
HStem: 775 72<213.189 422.75> 1239 73<321 423.144> 1489 71<313.277 430.792>
VStem: 446 137<1337.25 1480> 510 153<929.022 1194.42>
LayerCount: 2
Fore
SplineSet
401 1560 m 0,0,1
 490 1560 490 1560 539 1518 c 24,2,3
 583 1480 583 1480 583 1422 c 0,4,5
 583 1339 583 1339 490 1294 c 1,6,7
 663 1243 663 1243 663 1074 c 0,8,9
 663 954 663 954 561 865 c 0,10,11
 458 775 458 775 327 775 c 0,12,13
 158 775 158 775 50 892 c 1,14,-1
 155 953 l 1,15,16
 214 847 214 847 319 847 c 0,17,18
 397 847 397 847 454 910 c 0,19,20
 510 973 510 973 510 1060 c 0,21,22
 510 1145 510 1145 475 1191 c 0,23,24
 438 1239 438 1239 385 1239 c 0,25,26
 357 1239 357 1239 321 1233 c 1,27,-1
 321 1312 l 1,28,29
 397 1312 397 1312 424 1346 c 0,30,31
 446 1374 446 1374 446 1414 c 0,32,33
 446 1452 446 1452 424 1474 c 0,34,35
 410 1489 410 1489 387 1489 c 0,36,37
 324 1489 324 1489 278 1403 c 1,38,-1
 194 1455 l 1,39,40
 276 1560 276 1560 401 1560 c 0,0,1
EndSplineSet
Validated: 1
EndChar

StartChar: acute
Encoding: 180 180 118
Width: 418
GlyphClass: 2
Flags: W
HStem: 1160 370
VStem: 50 318
LayerCount: 2
Fore
SplineSet
224 1530 m 1,0,-1
 368 1428 l 1,1,-1
 145 1160 l 1,2,-1
 50 1227 l 1,3,-1
 224 1530 l 1,0,-1
EndSplineSet
Validated: 1
EndChar

StartChar: uni00B5
Encoding: 181 181 119
Width: 1362
GlyphClass: 2
Flags: W
HStem: -410 21G<200 380> -20 120<449.276 744.547> 0 21G<982 1162> 1080 20G<200 380 982 1162>
VStem: 200 180<-410 12 170.012 1100> 982 180<0 234 343.233 1100>
LayerCount: 2
Fore
SplineSet
1162 0 m 1,0,-1
 982 0 l 1,1,-1
 982 234 l 1,2,3
 901 116 901 116 791 49 c 0,4,5
 677 -20 677 -20 528 -20 c 0,6,7
 446 -20 446 -20 380 12 c 1,8,-1
 380 -410 l 1,9,-1
 200 -410 l 1,10,-1
 200 1100 l 1,11,-1
 380 1100 l 1,12,-1
 380 339 l 2,13,14
 380 231 380 231 425 170 c 0,15,16
 478 100 478 100 580 100 c 0,17,18
 735 100 735 100 850 217 c 0,19,20
 982 351 982 351 982 559 c 2,21,-1
 982 1100 l 1,22,-1
 1162 1100 l 1,23,-1
 1162 0 l 1,0,-1
EndSplineSet
Validated: 1
EndChar

StartChar: paragraph
Encoding: 182 182 120
Width: 1115
GlyphClass: 2
Flags: W
HStem: 0 21G<715 780 850 915> 704 806<394.25 651.789> 1454 56<780 850>
VStem: 150 630<859.744 1244.26> 715 65<0 790> 850 65<0 1454>
LayerCount: 2
Fore
SplineSet
915 0 m 1,0,-1
 850 0 l 1,1,-1
 850 1454 l 1,2,-1
 780 1454 l 1,3,-1
 780 0 l 1,4,-1
 715 0 l 1,5,-1
 715 790 l 1,6,7
 606 704 606 704 473 704 c 0,8,9
 316 704 316 704 225 815 c 0,10,11
 150 906 150 906 150 1035 c 0,12,13
 150 1243 150 1243 293 1390 c 0,14,15
 410 1510 410 1510 583 1510 c 0,16,17
 655 1510 655 1510 715 1481 c 1,18,-1
 715 1510 l 1,19,-1
 915 1510 l 1,20,-1
 915 0 l 1,0,-1
EndSplineSet
Validated: 1
EndChar

StartChar: periodcentered
Encoding: 183 183 121
Width: 352
GlyphClass: 2
Flags: W
HStem: 627 255<88.1292 263.809>
VStem: 50 252<666.222 843.809>
LayerCount: 2
Fore
SplineSet
176 882 m 0,0,1
 228 882 228 882 265 845 c 0,2,3
 302 807 302 807 302 755 c 0,4,5
 302 702 302 702 265 664 c 24,6,7
 227 627 227 627 176 627 c 0,8,9
 123 627 123 627 87 665 c 0,10,11
 50 704 50 704 50 755 c 0,12,13
 50 804 50 804 87 844 c 24,14,15
 122 882 122 882 176 882 c 0,0,1
EndSplineSet
Validated: 1
EndChar

StartChar: cedilla
Encoding: 184 184 122
Width: 406
GlyphClass: 2
Flags: W
HStem: -430 131<50 190.972> -68 68<102 163.441>
VStem: 102 97<-52.364 0> 214 142<-275.292 -106.775>
LayerCount: 2
Fore
SplineSet
102 0 m 1,0,-1
 199 0 l 1,1,-1
 199 -40 l 1,2,3
 356 -77 356 -77 356 -213 c 0,4,5
 356 -430 356 -430 50 -430 c 1,6,-1
 50 -299 l 1,7,8
 214 -299 214 -299 214 -197 c 0,9,10
 214 -111 214 -111 102 -68 c 1,11,-1
 102 0 l 1,0,-1
EndSplineSet
Validated: 1
EndChar

StartChar: uni00B9
Encoding: 185 185 123
Width: 396
VWidth: 1401
GlyphClass: 2
Flags: W
HStem: 1479 71<50 156>
VStem: 156 140<785 1479>
LayerCount: 2
Fore
SplineSet
50 1550 m 1,0,-1
 296 1550 l 1,1,-1
 296 785 l 1,2,-1
 156 785 l 1,3,-1
 156 1479 l 1,4,-1
 50 1479 l 1,5,-1
 50 1550 l 1,0,-1
EndSplineSet
Validated: 1
EndChar

StartChar: ordmasculine
Encoding: 186 186 124
Width: 710
VWidth: 1299
GlyphClass: 2
Flags: W
HStem: 787 120<50 660> 969 61<256.181 418.402> 1489 61<291.208 452.638>
VStem: 50 140<1085.4 1386.32> 520 140<1132.98 1433.84>
LayerCount: 2
Fore
SplineSet
50 907 m 1,0,-1
 660 907 l 1,1,-1
 660 787 l 1,2,-1
 50 787 l 1,3,-1
 50 907 l 1,0,-1
392 1550 m 24,4,5
 518 1550 518 1550 590 1474 c 0,6,7
 660 1401 660 1401 660 1282 c 0,8,9
 660 1164 660 1164 561 1067 c 0,10,11
 460 969 460 969 316 969 c 24,12,13
 191 969 191 969 119 1046 c 0,14,15
 50 1120 50 1120 50 1238 c 128,-1,16
 50 1356 50 1356 149 1452 c 0,17,18
 250 1550 250 1550 392 1550 c 24,4,5
382 1489 m 0,19,20
 307 1489 307 1489 254 1424 c 24,21,22
 190 1346 190 1346 190 1242 c 0,23,24
 190 1140 190 1140 232 1086 c 0,25,26
 275 1030 275 1030 328 1030 c 0,27,28
 403 1030 403 1030 456 1095 c 24,29,30
 520 1173 520 1173 520 1278 c 0,31,32
 520 1382 520 1382 480 1432 c 0,33,34
 434 1489 434 1489 382 1489 c 0,19,20
EndSplineSet
Validated: 1
EndChar

StartChar: guillemotright
Encoding: 187 187 125
Width: 1140
GlyphClass: 2
Flags: W
HStem: 316 133<200 333 600 733> 991 201<200 401 600 801>
DStem2: 200 1192 200 991 0.747092 -0.66472<133.609 522.024> 200 449 200 316 0.747092 0.66472<0 408.085> 600 1192 600 991 0.747092 -0.66472<133.609 522.024> 600 449 600 316 0.747092 0.66472<0 408.085>
LayerCount: 2
Fore
SplineSet
590 663 m 1,0,-1
 200 316 l 1,1,-1
 200 449 l 1,2,-1
 506 719 l 1,3,-1
 200 991 l 1,4,-1
 200 1192 l 1,5,-1
 590 845 l 1,6,-1
 590 663 l 1,0,-1
990 663 m 1,7,-1
 600 316 l 1,8,-1
 600 449 l 1,9,-1
 906 719 l 1,10,-1
 600 991 l 1,11,-1
 600 1192 l 1,12,-1
 990 845 l 1,13,-1
 990 663 l 1,7,-1
EndSplineSet
Validated: 1
EndChar

StartChar: onequarter
Encoding: 188 188 126
Width: 1426
VWidth: 1401
GlyphClass: 2
Flags: W
HStem: 0 21G<174 361.166 1086 1226> 146 71<821 1086> 1439 71<150 256>
VStem: 256 140<745 1439> 1086 140<0 146 217 631>
DStem2: 174 0 350 0 0.487458 0.873146<85.7927 1729.38>
LayerCount: 2
Fore
SplineSet
1086 0 m 1,0,-1
 1086 146 l 1,1,-1
 675 146 l 1,2,3
 840 503 840 503 1090 765 c 1,4,-1
 1226 765 l 1,5,-1
 1226 0 l 1,6,-1
 1086 0 l 1,0,-1
1086 631 m 1,7,8
 922 436 922 436 821 217 c 1,9,-1
 1086 217 l 1,10,-1
 1086 631 l 1,7,8
174 0 m 1,11,-1
 1017 1510 l 1,12,-1
 1193 1510 l 1,13,-1
 350 0 l 1,14,-1
 174 0 l 1,11,-1
150 1510 m 1,15,-1
 396 1510 l 1,16,-1
 396 745 l 1,17,-1
 256 745 l 1,18,-1
 256 1439 l 1,19,-1
 150 1439 l 1,20,-1
 150 1510 l 1,15,-1
EndSplineSet
Validated: 1
EndChar

StartChar: onehalf
Encoding: 189 189 127
Width: 1576
VWidth: 1401
GlyphClass: 2
Flags: W
HStem: 0 71<1002 1426> 706 71<1033.52 1217.03> 1439 71<150 256>
VStem: 256 140<745 1439> 1268 158<390.51 660.603>
DStem2: 174 0 350 0 0.487458 0.873146<85.7927 1729.38>
LayerCount: 2
Fore
SplineSet
849 0 m 1,0,-1
 849 67 l 1,1,2
 1096 212 1096 212 1205 363 c 0,3,4
 1268 450 1268 450 1268 531 c 128,-1,5
 1268 612 1268 612 1229 659 c 0,6,7
 1189 706 1189 706 1130 706 c 0,8,9
 1063 706 1063 706 1015 654 c 0,10,11
 976 613 976 613 952 539 c 1,12,-1
 858 589 l 1,13,14
 870 614 870 614 899 651 c 0,15,16
 997 777 997 777 1158 777 c 0,17,18
 1282 777 1282 777 1353 708 c 0,19,20
 1421 639 1421 639 1421 532 c 0,21,22
 1421 420 1421 420 1341 329 c 0,23,24
 1212 181 1212 181 1002 71 c 1,25,-1
 1426 71 l 1,26,-1
 1426 0 l 1,27,-1
 849 0 l 1,0,-1
174 0 m 1,28,-1
 1017 1510 l 1,29,-1
 1193 1510 l 1,30,-1
 350 0 l 1,31,-1
 174 0 l 1,28,-1
150 1510 m 1,32,-1
 396 1510 l 1,33,-1
 396 745 l 1,34,-1
 256 745 l 1,35,-1
 256 1439 l 1,36,-1
 150 1439 l 1,37,-1
 150 1510 l 1,32,-1
EndSplineSet
Validated: 1
EndChar

StartChar: threequarters
Encoding: 190 190 128
Width: 1648
VWidth: 1401
GlyphClass: 2
Flags: W
HStem: 0 21G<396 583.166 1308 1448> 146 71<1043 1308> 735 72<263.189 472.75> 1199 73<371 473.144> 1449 71<363.277 480.792>
VStem: 496 137<1297.25 1440> 560 153<889.022 1154.42> 1308 140<0 146 217 631>
DStem2: 396 0 572 0 0.487458 0.873146<85.7927 1729.38>
LayerCount: 2
Fore
SplineSet
451 1520 m 0,0,1
 540 1520 540 1520 589 1478 c 24,2,3
 633 1440 633 1440 633 1382 c 0,4,5
 633 1299 633 1299 540 1254 c 1,6,7
 713 1203 713 1203 713 1034 c 0,8,9
 713 914 713 914 611 825 c 0,10,11
 508 735 508 735 377 735 c 0,12,13
 208 735 208 735 100 852 c 1,14,-1
 205 913 l 1,15,16
 264 807 264 807 369 807 c 0,17,18
 447 807 447 807 504 870 c 0,19,20
 560 933 560 933 560 1020 c 0,21,22
 560 1105 560 1105 525 1151 c 0,23,24
 488 1199 488 1199 435 1199 c 0,25,26
 407 1199 407 1199 371 1193 c 1,27,-1
 371 1272 l 1,28,29
 447 1272 447 1272 474 1306 c 0,30,31
 496 1334 496 1334 496 1374 c 0,32,33
 496 1412 496 1412 474 1434 c 0,34,35
 460 1449 460 1449 437 1449 c 0,36,37
 374 1449 374 1449 328 1363 c 1,38,-1
 244 1415 l 1,39,40
 326 1520 326 1520 451 1520 c 0,0,1
1308 0 m 1,41,-1
 1308 146 l 1,42,-1
 897 146 l 1,43,44
 1062 503 1062 503 1312 765 c 1,45,-1
 1448 765 l 1,46,-1
 1448 0 l 1,47,-1
 1308 0 l 1,41,-1
1308 631 m 1,48,49
 1144 436 1144 436 1043 217 c 1,50,-1
 1308 217 l 1,51,-1
 1308 631 l 1,48,49
396 0 m 1,52,-1
 1239 1510 l 1,53,-1
 1415 1510 l 1,54,-1
 572 0 l 1,55,-1
 396 0 l 1,52,-1
EndSplineSet
Validated: 1
EndChar

StartChar: questiondown
Encoding: 191 191 129
Width: 1344
GlyphClass: 2
Flags: W
HStem: -430 120<518.735 865.761> -25 20G<1060 1113.56> 865 255<629.191 804.871>
VStem: 150 225<-156.33 229.524> 591 252<903.191 1080.78>
LayerCount: 2
Fore
SplineSet
717 1120 m 0,0,1
 770 1120 770 1120 806 1082 c 0,2,3
 843 1043 843 1043 843 992 c 0,4,5
 843 943 843 943 806 903 c 24,6,7
 771 865 771 865 717 865 c 0,8,9
 665 865 665 865 628 902 c 0,10,11
 591 940 591 940 591 992 c 0,12,13
 591 1045 591 1045 628 1083 c 24,14,15
 666 1120 666 1120 717 1120 c 0,0,1
637 -430 m 0,16,17
 418 -430 418 -430 277 -291 c 0,18,19
 150 -166 150 -166 150 37 c 0,20,21
 150 222 150 222 297 379 c 2,22,-1
 641 747 l 1,23,-1
 780 747 l 1,24,-1
 503 387 l 2,25,26
 375 221 375 221 375 40 c 0,27,28
 375 -114 375 -114 457 -212 c 128,-1,29
 539 -310 539 -310 683 -310 c 0,30,31
 848 -310 848 -310 967 -194 c 0,32,33
 1043 -120 1043 -120 1077 -5 c 1,34,-1
 1194 -69 l 1,35,36
 1150 -144 1150 -144 1115 -189 c 24,37,38
 929 -430 929 -430 637 -430 c 0,16,17
EndSplineSet
Validated: 1
EndChar

StartChar: AE
Encoding: 198 198 130
Width: 2284
GlyphClass: 2
Flags: W
HStem: -20 120<1488 1757.29> 0 21G<5 144.649> 696 120<489 961 1231 1830> 1362 148<659 878> 1410 120<1420.83 1867.58>
DStem2: 5 0 136 0 0.397437 0.91763<52.0642 810.363 941.145 1535.97> 878 1510 725 1362 0.397297 -0.91769<75.0318 326.956 504.355 669.853 887.246 1553.1>
LayerCount: 2
Fore
SplineSet
5 0 m 1,0,-1
 659 1510 l 1,1,-1
 878 1510 l 1,2,-1
 1008 1210 l 1,3,4
 1049 1260 1049 1260 1099 1306 c 0,5,6
 1342 1530 1342 1530 1686 1530 c 0,7,8
 2006 1530 2006 1530 2203 1323 c 1,9,-1
 2030 1233 l 1,10,11
 1898 1410 1898 1410 1654 1410 c 0,12,13
 1393 1410 1393 1410 1234 1230 c 0,14,15
 1144 1128 1144 1128 1094 1011 c 1,16,-1
 1179 816 l 1,17,-1
 1830 816 l 1,18,-1
 1830 696 l 1,19,-1
 1231 696 l 1,20,-1
 1488 101 l 1,21,22
 1509 100 1509 100 1531 100 c 0,23,24
 1791 100 1791 100 1951 280 c 0,25,26
 2014 351 2014 351 2057 432 c 1,27,-1
 2204 327 l 1,28,29
 2157 264 2157 264 2090 202 c 0,30,31
 1849 -20 1849 -20 1503 -20 c 0,32,33
 1401 -20 1401 -20 1313 0 c 1,34,-1
 1013 696 l 1,35,-1
 437 696 l 1,36,-1
 136 0 l 1,37,-1
 5 0 l 1,0,-1
961 816 m 1,38,-1
 725 1362 l 1,39,-1
 489 816 l 1,40,-1
 961 816 l 1,38,-1
EndSplineSet
Validated: 1
EndChar

StartChar: Eth
Encoding: 208 208 131
Width: 1736
GlyphClass: 2
Flags: W
HStem: -20 87<572.26 967.957> 0 21G<200 400> 705 100<100 200 400 770> 1410 120<708.551 1130.37> 1490 20G<200 400>
VStem: 200 200<0 705 805 1094.59 1216 1510> 1416 220<574.342 1089.87>
LayerCount: 2
Fore
SplineSet
200 0 m 1,0,-1
 200 705 l 1,1,-1
 100 705 l 1,2,-1
 100 805 l 1,3,-1
 200 805 l 1,4,-1
 200 1510 l 1,5,-1
 400 1510 l 1,6,-1
 400 1216 l 1,7,8
 486 1359 486 1359 620 1442 c 0,9,10
 761 1530 761 1530 948 1530 c 0,11,12
 1270 1530 1270 1530 1465 1325 c 0,13,14
 1636 1145 1636 1145 1636 862 c 0,15,16
 1636 466 1636 466 1352 204 c 0,17,18
 1109 -20 1109 -20 765 -20 c 0,19,20
 558 -20 558 -20 466 119 c 1,21,-1
 474 127 l 1,22,23
 582 67 582 67 726 67 c 0,24,25
 1023 67 1023 67 1215 280 c 0,26,27
 1416 503 1416 503 1416 839 c 0,28,29
 1416 1071 1416 1071 1294 1233 c 0,30,31
 1162 1410 1162 1410 913 1410 c 0,32,33
 699 1410 699 1410 549 1251 c 0,34,35
 400 1092 400 1092 400 873 c 2,36,-1
 400 805 l 1,37,-1
 770 805 l 1,38,-1
 770 705 l 1,39,-1
 400 705 l 1,40,-1
 400 0 l 1,41,-1
 200 0 l 1,0,-1
EndSplineSet
Validated: 1
EndChar

StartChar: multiply
Encoding: 215 215 132
Width: 1128
GlyphClass: 2
Flags: W
HStem: 649 212<458 670> 1099 20G<286 326 802 842>
VStem: 458 212<649 861>
DStem2: 306 1119 200 1013 0.707107 -0.707107<0 364.867 514.774 879.641> 200 497 306 391 0.707107 0.707107<0 364.867 514.774 879.641>
LayerCount: 2
Fore
SplineSet
822 1119 m 1,0,-1
 928 1013 l 1,1,-1
 670 755 l 1,2,-1
 928 497 l 1,3,-1
 822 391 l 1,4,-1
 564 649 l 1,5,-1
 306 391 l 1,6,-1
 200 497 l 1,7,-1
 458 755 l 1,8,-1
 200 1013 l 1,9,-1
 306 1119 l 1,10,-1
 564 861 l 1,11,-1
 822 1119 l 1,0,-1
EndSplineSet
Validated: 1
EndChar

StartChar: Oslash
Encoding: 216 216 133
Width: 1759
GlyphClass: 2
Flags: W
HStem: -20 120<601.626 1052.17> 1410 120<706.834 1156.66>
VStem: 100 220<420.134 939.165> 1439 220<570.835 1089.87>
DStem2: 424 66 515 25 0.499887 0.86609<-50.9194 0.833027 163.476 1485.76 1648.21 1699.29>
LayerCount: 2
Fore
SplineSet
788 -20 m 0,0,1
 638 -20 638 -20 515 25 c 1,2,-1
 485 -28 l 1,3,-1
 398 22 l 1,4,-1
 424 66 l 1,5,6
 340 113 340 113 271 185 c 0,7,8
 100 365 100 365 100 648 c 0,9,10
 100 1044 100 1044 384 1306 c 0,11,12
 627 1530 627 1530 971 1530 c 0,13,14
 1121 1530 1121 1530 1243 1486 c 1,15,-1
 1273 1538 l 1,16,-1
 1360 1488 l 1,17,-1
 1335 1444 l 1,18,19
 1420 1397 1420 1397 1488 1325 c 0,20,21
 1659 1145 1659 1145 1659 862 c 0,22,23
 1659 466 1659 466 1375 204 c 0,24,25
 1132 -20 1132 -20 788 -20 c 0,0,1
818 100 m 0,26,27
 1079 100 1079 100 1238 280 c 0,28,29
 1439 507 1439 507 1439 839 c 0,30,31
 1439 1071 1439 1071 1317 1233 c 0,32,33
 1288 1272 1288 1272 1253 1303 c 1,34,-1
 588 151 l 1,35,36
 687 100 687 100 818 100 c 0,26,27
505 208 m 1,37,-1
 1170 1359 l 1,38,39
 1071 1410 1071 1410 941 1410 c 0,40,41
 680 1410 680 1410 521 1230 c 0,42,43
 320 1003 320 1003 320 671 c 0,44,45
 320 439 320 439 442 277 c 0,46,47
 471 238 471 238 505 208 c 1,37,-1
EndSplineSet
Validated: 1
EndChar

StartChar: Thorn
Encoding: 222 222 134
Width: 1535
GlyphClass: 2
Flags: W
HStem: 0 21G<200 400> 170 87<576.093 940.797> 1206 134<693.821 1048.68> 1490 20G<200 400>
VStem: 200 200<0 915.805 1026 1510> 1214 221<585.333 1038.17>
LayerCount: 2
Fore
SplineSet
200 0 m 1,0,-1
 200 1510 l 1,1,-1
 400 1510 l 1,2,-1
 400 1026 l 1,3,4
 489 1174 489 1174 610 1252 c 0,5,6
 745 1340 745 1340 924 1340 c 0,7,8
 1148 1340 1148 1340 1284 1212 c 0,9,10
 1435 1070 1435 1070 1435 842 c 0,11,12
 1435 512 1435 512 1191 309 c 0,13,14
 1025 170 1025 170 785 170 c 0,15,16
 558 170 558 170 466 309 c 1,17,18
 474 317 l 1,19,20
 582 257 582 257 746 257 c 0,21,22
 942 257 942 257 1071 398 c 0,23,24
 1214 556 1214 556 1214 828 c 0,25,26
 1214 1001 1214 1001 1131 1095 c 256,27,28
 1034 1206 1034 1206 865 1206 c 0,29,30
 675 1206 675 1206 539 1061 c 0,31,32
 400 913 400 913 400 683 c 2,33,-1
 400 0 l 1,34,-1
 200 0 l 1,0,-1
EndSplineSet
Validated: 1
EndChar

StartChar: germandbls
Encoding: 223 223 135
Width: 1395
GlyphClass: 2
Flags: W
HStem: -20 87<515.994 810.23> 0 21G<200 380> 967 10<664 676.326> 1415 115<584.569 865.241>
VStem: 200 180<0 1147.27> 912 182<1118.91 1372.95> 1080 215<352.155 756.399>
LayerCount: 2
Fore
SplineSet
200 0 m 1,0,-1
 200 887 l 2,1,2
 200 1207 200 1207 399 1389 c 24,3,4
 553 1530 553 1530 770 1530 c 0,5,6
 916 1530 916 1530 1007 1452 c 0,7,8
 1094 1376 1094 1376 1094 1263 c 0,9,10
 1094 1104 1094 1104 926 1018 c 1,11,12
 1073 984 1073 984 1168 891 c 0,13,14
 1295 766 1295 766 1295 563 c 0,15,16
 1295 372 1295 372 1166 216 c 0,17,18
 971 -20 971 -20 674 -20 c 0,19,20
 530 -20 530 -20 450 83 c 1,21,-1
 458 91 l 1,22,23
 542 67 542 67 630 67 c 0,24,25
 834 67 834 67 975 248 c 0,26,27
 1080 383 1080 383 1080 560 c 0,28,29
 1080 708 1080 708 1002 810 c 0,30,31
 890 957 890 957 664 967 c 1,32,-1
 664 977 l 1,33,34
 797 1022 797 1022 865 1110 c 0,35,36
 912 1169 912 1169 912 1255 c 0,37,38
 912 1333 912 1333 864 1376 c 0,39,40
 821 1415 821 1415 742 1415 c 0,41,42
 605 1415 605 1415 516 1311 c 24,43,44
 380 1151 380 1151 380 867 c 2,45,-1
 380 0 l 1,46,-1
 200 0 l 1,0,-1
EndSplineSet
Validated: 1
EndChar

StartChar: ae
Encoding: 230 230 136
Width: 1881
GlyphClass: 2
Flags: W
HStem: -20 87<483.43 755.006 1168.2 1449.84> 500 100<1125 1512> 1020 100<540.91 851.645 1228.6 1555.04>
VStem: 100 201<260.829 709.842> 945 180<109.446 500 600 867.777>
LayerCount: 2
Fore
SplineSet
945 0 m 1,0,-1
 945 711 l 2,1,2
 945 854 945 854 895 929 c 0,3,4
 833 1020 833 1020 719 1020 c 0,5,6
 542 1020 542 1020 429 878 c 0,7,8
 301 719 301 719 301 497 c 0,9,10
 301 304 301 304 382 201 c 0,11,12
 488 67 488 67 641 67 c 0,13,14
 729 67 729 67 813 91 c 1,15,-1
 821 83 l 1,16,17
 741 -20 741 -20 597 -20 c 0,18,19
 372 -20 372 -20 227 133 c 0,20,21
 100 267 100 267 100 477 c 0,22,23
 100 742 100 742 299 939 c 0,24,25
 482 1120 482 1120 737 1120 c 0,26,27
 915 1120 915 1120 1011 1024 c 0,28,29
 1026 1009 1026 1009 1040 992 c 1,30,31
 1205 1120 1205 1120 1427 1120 c 0,32,33
 1652 1120 1652 1120 1797 967 c 1,34,-1
 1649 890 l 1,35,36
 1547 1020 1547 1020 1409 1020 c 0,37,38
 1224 1020 1224 1020 1103 870 c 1,39,40
 1125 799 1125 799 1125 711 c 2,41,-1
 1125 600 l 1,42,-1
 1512 600 l 1,43,-1
 1512 500 l 1,44,-1
 1125 500 l 1,45,-1
 1125 137 l 1,46,47
 1199 80 1199 80 1295 80 c 0,48,49
 1482 80 1482 80 1595 222 c 0,50,51
 1640 278 1640 278 1669 341 c 1,52,-1
 1801 248 l 1,53,54
 1767 203 1767 203 1725 161 c 0,55,56
 1544 -20 1544 -20 1277 -20 c 0,57,58
 1196 -20 1196 -20 1125 0 c 1,59,-1
 945 0 l 1,0,-1
EndSplineSet
Validated: 1
EndChar

StartChar: eth
Encoding: 240 240 137
Width: 1424
GlyphClass: 2
Flags: W
HStem: -20 100<463.008 800.119> 1020 100<545.221 729> 1510 20G<607.4 663>
VStem: 100 201<264.213 709.842> 1073 201<470.418 1026.24>
DStem2: 620 1287 691 1216 0.691832 0.722058<0 125.836 289.115 417.779>
LayerCount: 2
Fore
SplineSet
597 -20 m 0,0,1
 372 -20 372 -20 227 133 c 0,2,3
 100 267 100 267 100 477 c 0,4,5
 100 742 100 742 299 939 c 0,6,7
 482 1120 482 1120 747 1120 c 1,8,-1
 729 1020 l 1,9,10
 542 1020 542 1020 429 878 c 0,11,12
 301 719 301 719 301 497 c 0,13,14
 301 308 301 308 382 201 c 0,15,16
 475 80 475 80 615 80 c 0,17,18
 800 80 800 80 915 222 c 0,19,20
 1072 416 1072 416 1073 763 c 0,21,22
 1073 1045 1073 1045 912 1219 c 0,23,24
 859 1276 859 1276 796 1321 c 1,25,-1
 691 1216 l 1,26,-1
 620 1287 l 1,27,-1
 709 1376 l 1,28,29
 652 1407 652 1407 589 1430 c 1,30,-1
 612 1530 l 1,31,32
 714 1506 714 1506 802 1469 c 1,33,-1
 917 1584 l 1,34,-1
 988 1513 l 1,35,-1
 897 1422 l 1,36,37
 1013 1358 1013 1358 1098 1266 c 0,38,39
 1274 1076 1274 1076 1274 783 c 0,40,41
 1274 388 1274 388 1045 161 c 0,42,43
 863 -20 863 -20 597 -20 c 0,0,1
EndSplineSet
Validated: 1
EndChar

StartChar: divide
Encoding: 247 247 138
Width: 1180
GlyphClass: 2
Flags: W
HStem: 304 255<502.129 677.809> 680 150<150 1030> 951 255<502.129 677.809>
VStem: 464 252<343.222 520.809 990.222 1167.81>
CounterMasks: 1 e0
LayerCount: 2
Fore
SplineSet
150 830 m 1,0,-1
 1030 830 l 1,1,-1
 1030 680 l 1,2,-1
 150 680 l 1,3,-1
 150 830 l 1,0,-1
590 304 m 0,4,5
 537 304 537 304 501 342 c 0,6,7
 464 381 464 381 464 432 c 0,8,9
 464 481 464 481 501 521 c 24,10,11
 536 559 536 559 590 559 c 0,12,13
 642 559 642 559 679 522 c 0,14,15
 716 484 716 484 716 432 c 0,16,17
 716 379 716 379 679 341 c 24,18,19
 641 304 641 304 590 304 c 0,4,5
590 1206 m 0,20,21
 642 1206 642 1206 679 1169 c 0,22,23
 716 1131 716 1131 716 1079 c 0,24,25
 716 1026 716 1026 679 988 c 24,26,27
 641 951 641 951 590 951 c 0,28,29
 537 951 537 951 501 989 c 0,30,31
 464 1028 464 1028 464 1079 c 0,32,33
 464 1128 464 1128 501 1168 c 24,34,35
 536 1206 536 1206 590 1206 c 0,20,21
EndSplineSet
Validated: 1
EndChar

StartChar: oslash
Encoding: 248 248 139
Width: 1344
GlyphClass: 2
Flags: W
HStem: -20 100<479.203 800.129> 1020 100<543.63 864.797>
VStem: 100 201<264.213 709.842> 1043 201<390.158 835.787>
DStem2: 294 -5 380 -55 0.500153 0.865937<0 68.9489 212.349 1126.96 1270.36 1339.31>
LayerCount: 2
Fore
SplineSet
597 -20 m 0,0,1
 500 -20 500 -20 417 9 c 1,2,-1
 380 -55 l 1,3,-1
 294 -5 l 1,4,-1
 327 52 l 1,5,6
 273 85 273 85 227 133 c 0,7,8
 100 267 100 267 100 477 c 0,9,10
 100 742 100 742 299 939 c 0,11,12
 482 1120 482 1120 747 1120 c 0,13,14
 844 1120 844 1120 927 1091 c 1,15,-1
 964 1155 l 1,16,-1
 1050 1105 l 1,17,-1
 1017 1048 l 1,18,19
 1071 1015 1071 1015 1117 967 c 0,20,21
 1244 833 1244 833 1244 623 c 0,22,23
 1244 358 1244 358 1045 161 c 0,24,25
 861 -20 861 -20 597 -20 c 0,0,1
615 80 m 0,26,27
 802 80 802 80 915 222 c 0,28,29
 1043 381 1043 381 1043 603 c 0,30,31
 1043 792 1043 792 962 899 c 0,32,33
 953 911 953 911 944 921 c 1,34,-1
 478 115 l 1,35,36
 540 80 540 80 615 80 c 0,26,27
400 179 m 1,37,-1
 866 985 l 1,38,39
 804 1020 804 1020 729 1020 c 0,40,41
 542 1020 542 1020 429 878 c 0,42,43
 301 719 301 719 301 497 c 0,44,45
 301 308 301 308 382 201 c 0,46,47
 391 189 391 189 400 179 c 1,37,-1
EndSplineSet
Validated: 1
EndChar

StartChar: thorn
Encoding: 254 254 140
Width: 1391
GlyphClass: 2
Flags: W
HStem: -410 21G<200 380> -20 87<515.994 822.144> 1012 108<608.277 934.717> 1490 20G<200 380>
VStem: 200 180<-410 754.778 866 1510> 1090 201<390.158 835.787>
LayerCount: 2
Fore
SplineSet
200 1510 m 1,0,-1
 380 1510 l 1,1,-1
 380 866 l 1,2,3
 452 985 452 985 551 1051 c 0,4,5
 653 1120 653 1120 794 1120 c 0,6,7
 1019 1120 1019 1120 1164 967 c 0,8,9
 1291 833 1291 833 1291 623 c 0,10,11
 1291 358 1291 358 1092 161 c 0,12,13
 909 -20 909 -20 674 -20 c 0,14,15
 530 -20 530 -20 450 83 c 1,16,-1
 458 91 l 1,17,18
 542 67 542 67 630 67 c 0,19,20
 837 67 837 67 962 222 c 0,21,22
 1090 381 1090 381 1090 603 c 0,23,24
 1090 792 1090 792 1009 899 c 0,25,26
 924 1012 924 1012 776 1012 c 0,27,28
 636 1012 636 1012 534 912 c 0,29,30
 380 760 380 760 380 541 c 2,31,-1
 380 -410 l 1,32,-1
 200 -410 l 1,33,-1
 200 1510 l 1,0,-1
EndSplineSet
Validated: 1
EndChar

StartChar: Dcroat
Encoding: 272 272 141
Width: 1736
GlyphClass: 2
Flags: W
HStem: -20 87<572.26 967.957> 0 21G<200 400> 705 100<100 200 400 770> 1410 120<708.551 1130.37> 1490 20G<200 400>
VStem: 200 200<0 705 805 1094.59 1216 1510> 1416 220<574.342 1089.87>
LayerCount: 2
Fore
SplineSet
200 0 m 1,0,-1
 200 705 l 1,1,-1
 100 705 l 1,2,-1
 100 805 l 1,3,-1
 200 805 l 1,4,-1
 200 1510 l 1,5,-1
 400 1510 l 1,6,-1
 400 1216 l 1,7,8
 486 1359 486 1359 620 1442 c 0,9,10
 761 1530 761 1530 948 1530 c 0,11,12
 1270 1530 1270 1530 1465 1325 c 0,13,14
 1636 1145 1636 1145 1636 862 c 0,15,16
 1636 466 1636 466 1352 204 c 0,17,18
 1109 -20 1109 -20 765 -20 c 0,19,20
 558 -20 558 -20 466 119 c 1,21,-1
 474 127 l 1,22,23
 582 67 582 67 726 67 c 0,24,25
 1023 67 1023 67 1215 280 c 0,26,27
 1416 503 1416 503 1416 839 c 0,28,29
 1416 1071 1416 1071 1294 1233 c 0,30,31
 1162 1410 1162 1410 913 1410 c 0,32,33
 699 1410 699 1410 549 1251 c 0,34,35
 400 1092 400 1092 400 873 c 2,36,-1
 400 805 l 1,37,-1
 770 805 l 1,38,-1
 770 705 l 1,39,-1
 400 705 l 1,40,-1
 400 0 l 1,41,-1
 200 0 l 1,0,-1
EndSplineSet
Validated: 1
EndChar

StartChar: dcroat
Encoding: 273 273 142
Width: 1391
GlyphClass: 2
Flags: W
HStem: -20 108<456.283 782.723> 0 21G<1011 1191> 1033 87<568.856 875.006> 1250 100<721 1011 1191 1291> 1490 20G<1011 1191>
VStem: 100 201<264.213 709.842> 1011 180<0 234 345.222 1250 1350 1510>
LayerCount: 2
Fore
SplineSet
1191 0 m 1,0,-1
 1011 0 l 1,1,-1
 1011 234 l 1,2,3
 939 115 939 115 840 49 c 0,4,5
 738 -20 738 -20 597 -20 c 0,6,7
 372 -20 372 -20 227 133 c 0,8,9
 100 267 100 267 100 477 c 0,10,11
 100 742 100 742 299 939 c 0,12,13
 482 1120 482 1120 717 1120 c 0,14,15
 861 1120 861 1120 941 1017 c 1,16,-1
 933 1009 l 1,17,18
 849 1033 849 1033 761 1033 c 0,19,20
 554 1033 554 1033 429 878 c 0,21,22
 301 719 301 719 301 497 c 0,23,24
 301 308 301 308 382 201 c 0,25,26
 467 88 467 88 615 88 c 0,27,28
 755 88 755 88 857 188 c 0,29,30
 1011 340 1011 340 1011 559 c 2,31,-1
 1011 1250 l 1,32,-1
 721 1250 l 1,33,-1
 721 1350 l 1,34,-1
 1011 1350 l 1,35,-1
 1011 1510 l 1,36,-1
 1191 1510 l 1,37,-1
 1191 1350 l 1,38,-1
 1291 1350 l 1,39,-1
 1291 1250 l 1,40,-1
 1191 1250 l 1,41,-1
 1191 0 l 1,0,-1
EndSplineSet
Validated: 1
EndChar

StartChar: Hbar
Encoding: 294 294 143
Width: 1572
GlyphClass: 2
Flags: W
HStem: 0 21G<200 400 1172 1372> 696 120<400 1172> 1250 100<100 200 400 1172 1372 1472> 1490 20G<200 400 1172 1372>
VStem: 200 200<0 696 816 1250 1350 1510> 1172 200<0 696 816 1250 1350 1510>
LayerCount: 2
Fore
SplineSet
200 0 m 1,0,-1
 200 1250 l 1,1,-1
 100 1250 l 1,2,-1
 100 1350 l 1,3,-1
 200 1350 l 1,4,-1
 200 1510 l 1,5,-1
 400 1510 l 1,6,-1
 400 1350 l 1,7,-1
 1172 1350 l 1,8,-1
 1172 1510 l 1,9,-1
 1372 1510 l 1,10,-1
 1372 1350 l 1,11,-1
 1472 1350 l 1,12,-1
 1472 1250 l 1,13,-1
 1372 1250 l 1,14,-1
 1372 0 l 1,15,-1
 1172 0 l 1,16,-1
 1172 696 l 1,17,-1
 400 696 l 1,18,-1
 400 0 l 1,19,-1
 200 0 l 1,0,-1
400 1250 m 1,20,-1
 400 816 l 1,21,-1
 1172 816 l 1,22,-1
 1172 1250 l 1,23,-1
 400 1250 l 1,20,-1
EndSplineSet
Validated: 1
EndChar

StartChar: hbar
Encoding: 295 295 144
Width: 1362
GlyphClass: 2
Flags: W
HStem: 0 21G<200 380 982 1162> 1000 120<617.453 913.05> 1250 100<130 200 380 670> 1490 20G<200 380>
VStem: 200 180<0 756.767 866 1250 1350 1510> 982 180<0 926.789>
LayerCount: 2
Fore
SplineSet
200 0 m 1,0,-1
 200 1250 l 1,1,-1
 130 1250 l 1,2,-1
 130 1350 l 1,3,-1
 200 1350 l 1,4,-1
 200 1510 l 1,5,-1
 380 1510 l 1,6,-1
 380 1350 l 1,7,-1
 670 1350 l 1,8,-1
 670 1250 l 1,9,-1
 380 1250 l 1,10,-1
 380 866 l 1,11,12
 461 984 461 984 571 1051 c 0,13,14
 685 1120 685 1120 834 1120 c 0,15,16
 973 1120 973 1120 1068 1027 c 0,17,18
 1162 935 1162 935 1162 761 c 2,19,-1
 1162 0 l 1,20,-1
 982 0 l 1,21,-1
 982 761 l 2,22,23
 982 869 982 869 937 930 c 0,24,25
 884 1000 884 1000 782 1000 c 0,26,27
 627 1000 627 1000 512 883 c 0,28,29
 380 749 380 749 380 541 c 2,30,-1
 380 0 l 1,31,-1
 200 0 l 1,0,-1
EndSplineSet
Validated: 19457
EndChar

StartChar: kgreenlandic
Encoding: 312 312 145
Width: 1306
GlyphClass: 2
Flags: W
HStem: 0 21G<200 380 953.806 1246> 219 100<380 620.297> 1080 20G<200 380 926 1106>
VStem: 200 180<0 219 319 1100> 917 178<643.156 1100> 979 267<0 267>
DStem2: 815 347 654 258 0.778926 -0.627116<0 345.353>
LayerCount: 2
Fore
SplineSet
200 0 m 1,0,-1
 200 1100 l 1,1,-1
 380 1100 l 1,2,-1
 380 319 l 1,3,4
 718 319 718 319 848 575 c 0,5,6
 903 684 903 684 917 832 c 0,7,8
 926 929 926 929 926 1100 c 1,9,-1
 1106 1100 l 1,10,11
 1104 920 1104 920 1095 831 c 0,12,13
 1081 684 1081 684 1011.5 558 c 128,-1,14
 942 432 942 432 815 347 c 1,15,-1
 1246 0 l 1,16,-1
 979 0 l 1,17,-1
 654 258 l 1,18,19
 526 219 526 219 380 219 c 1,20,-1
 380 0 l 1,21,-1
 200 0 l 1,0,-1
EndSplineSet
Validated: 1
EndChar

StartChar: Lslash
Encoding: 321 321 146
Width: 1048
GlyphClass: 2
Flags: W
HStem: 0 120<400 1028> 1490 20G<200 400>
VStem: 200 200<120 561 793 1510>
DStem2: 120 631 170 544 0.865937 0.500153<0 34.2642 323.487 669.578>
LayerCount: 2
Fore
SplineSet
200 0 m 1,0,-1
 200 561 l 1,1,-1
 170 544 l 1,2,-1
 120 631 l 1,3,-1
 200 677 l 1,4,-1
 200 1510 l 1,5,-1
 400 1510 l 1,6,-1
 400 793 l 1,7,-1
 700 966 l 1,8,-1
 750 879 l 1,9,-1
 400 677 l 1,10,-1
 400 120 l 1,11,-1
 1028 120 l 1,12,-1
 1028 0 l 1,13,-1
 200 0 l 1,0,-1
EndSplineSet
Validated: 1
EndChar

StartChar: lslash
Encoding: 322 322 147
Width: 710
GlyphClass: 2
Flags: W
HStem: -20 100<473.477 605> 1490 20G<265 445>
VStem: 265 180<110.266 645 865 1510>
DStem2: 40 631 90 544 0.865937 0.500153<0 201.838 467.74 669.578>
LayerCount: 2
Fore
SplineSet
605 -20 m 1,0,1
 265 -20 265 -20 265 209 c 2,2,-1
 265 645 l 1,3,-1
 90 544 l 1,4,-1
 40 631 l 1,5,-1
 265 761 l 1,6,-1
 265 1510 l 1,7,-1
 445 1510 l 1,8,-1
 445 865 l 1,9,-1
 620 966 l 1,10,-1
 670 879 l 1,11,-1
 445 749 l 1,12,-1
 445 209 l 2,13,14
 445 80 445 80 605 80 c 1,15,-1
 605 -20 l 1,0,1
EndSplineSet
Validated: 1
EndChar

StartChar: Eng
Encoding: 330 330 148
Width: 1571
GlyphClass: 2
Flags: W
HStem: -430 100<1011 1124.12> 0 21G<200 400> 1396 134<704.255 1056.48> 1490 20G<200 400>
VStem: 200 200<0 1094.59 1216 1510> 1171 200<-285.868 1278.78>
LayerCount: 2
Fore
SplineSet
200 0 m 1,0,-1
 200 1510 l 1,1,-1
 400 1510 l 1,2,-1
 400 1216 l 1,3,4
 486 1359 486 1359 620 1442 c 0,5,6
 761 1530 761 1530 928 1530 c 0,7,8
 1148 1530 1148 1530 1268 1408 c 0,9,10
 1371 1304 1371 1304 1371 1100 c 2,11,-1
 1371 -151 l 2,12,13
 1371 -430 1371 -430 1011 -430 c 1,14,-1
 1011 -330 l 1,15,16
 1171 -330 1171 -330 1171 -151 c 2,17,-1
 1171 1098 l 2,18,19
 1171 1232 1171 1232 1104 1310 c 0,20,21
 1030 1396 1030 1396 891 1396 c 0,22,23
 685 1396 685 1396 549 1251 c 0,24,25
 400 1092 400 1092 400 873 c 2,26,-1
 400 0 l 1,27,-1
 200 0 l 1,0,-1
EndSplineSet
Validated: 1
EndChar

StartChar: eng
Encoding: 331 331 149
Width: 1362
GlyphClass: 2
Flags: W
HStem: -430 100<822 937.547> 0 21G<200 380> 1000 120<617.453 913.05> 1080 20G<200 380>
VStem: 200 180<0 756.767 866 1100> 982 180<-285.868 926.789>
LayerCount: 2
Fore
SplineSet
200 0 m 1,0,-1
 200 1100 l 1,1,-1
 380 1100 l 1,2,-1
 380 866 l 1,3,4
 461 984 461 984 571 1051 c 0,5,6
 685 1120 685 1120 834 1120 c 0,7,8
 973 1120 973 1120 1068 1027 c 0,9,10
 1162 935 1162 935 1162 761 c 2,11,-1
 1162 -151 l 2,12,13
 1162 -430 1162 -430 822 -430 c 9,14,-1
 822 -330 l 1,15,16
 982 -330 982 -330 982 -151 c 2,17,-1
 982 761 l 2,18,19
 982 869 982 869 937 930 c 0,20,21
 884 1000 884 1000 782 1000 c 0,22,23
 627 1000 627 1000 512 883 c 0,24,25
 380 749 380 749 380 541 c 2,26,-1
 380 0 l 1,27,-1
 200 0 l 1,0,-1
EndSplineSet
Validated: 1
EndChar

StartChar: OE
Encoding: 338 338 150
Width: 2540
GlyphClass: 2
Flags: W
HStem: -20 120<605.003 1051.55 1573.27 2017.65> 696 120<1658 2086> 1410 120<706.834 1155.43 1679.29 2124>
VStem: 100 220<420.134 939.165> 1439 220<568.598 696 816 1089.82>
LayerCount: 2
Fore
SplineSet
818 100 m 0,0,1
 1079 100 1079 100 1238 280 c 0,2,3
 1439 507 1439 507 1439 839 c 0,4,5
 1439 1071 1439 1071 1317 1233 c 0,6,7
 1185 1410 1185 1410 941 1410 c 0,8,9
 680 1410 680 1410 521 1230 c 0,10,11
 320 1003 320 1003 320 671 c 0,12,13
 320 439 320 439 442 277 c 0,14,15
 574 100 574 100 818 100 c 0,0,1
788 -20 m 0,16,17
 466 -20 466 -20 271 185 c 0,18,19
 100 365 100 365 100 648 c 0,20,21
 100 1044 100 1044 384 1306 c 0,22,23
 627 1530 627 1530 971 1530 c 0,24,25
 1254 1530 1254 1530 1438 1372 c 1,26,27
 1655 1528 1655 1528 1942 1528 c 0,28,29
 2264 1528 2264 1528 2459 1323 c 1,30,-1
 2286 1233 l 1,31,32
 2154 1410 2154 1410 1910 1410 c 0,33,34
 1682 1410 1682 1410 1532 1273 c 1,35,36
 1659 1106 1659 1106 1659 862 c 0,37,38
 1659 839 1659 839 1658 816 c 1,39,-1
 2086 816 l 1,40,-1
 2086 696 l 1,41,-1
 1646 696 l 1,42,43
 1604 445 1604 445 1427 256 c 1,44,45
 1557 100 1557 100 1787 100 c 0,46,47
 2047 100 2047 100 2207 280 c 0,48,49
 2270 351 2270 351 2313 432 c 1,50,-1
 2460 327 l 1,51,52
 2413 264 2413 264 2346 202 c 0,53,54
 2105 -20 2105 -20 1759 -20 c 0,55,56
 1475 -20 1475 -20 1292 136 c 1,57,58
 1075 -20 1075 -20 788 -20 c 0,16,17
EndSplineSet
Validated: 1
EndChar

StartChar: oe
Encoding: 339 339 151
Width: 1882
GlyphClass: 2
Flags: W
HStem: -20 100<463.008 801.082 1143.55 1481.85> 500 100<1244 1513> 1020 100<543.63 881.453 1225.44 1556.04>
VStem: 100 201<264.213 709.842> 1043 201<600 836.371>
CounterMasks: 1 e0
LayerCount: 2
Fore
SplineSet
615 80 m 0,0,1
 802 80 802 80 915 222 c 0,2,3
 1043 381 1043 381 1043 603 c 0,4,5
 1043 792 1043 792 962 899 c 0,6,7
 869 1020 869 1020 729 1020 c 0,8,9
 542 1020 542 1020 429 878 c 0,10,11
 301 719 301 719 301 497 c 0,12,13
 301 308 301 308 382 201 c 0,14,15
 475 80 475 80 615 80 c 0,0,1
597 -20 m 0,16,17
 372 -20 372 -20 227 133 c 0,18,19
 100 267 100 267 100 477 c 0,20,21
 100 742 100 742 299 939 c 0,22,23
 482 1120 482 1120 747 1120 c 0,24,25
 936 1120 936 1120 1068 1012 c 1,26,27
 1224 1120 1224 1120 1428 1120 c 0,28,29
 1653 1120 1653 1120 1798 967 c 1,30,-1
 1650 890 l 1,31,32
 1548 1020 1548 1020 1410 1020 c 0,33,34
 1256 1020 1256 1020 1153 924 c 1,35,36
 1244 801 1244 801 1244 623 c 0,37,38
 1244 611 1244 611 1244 600 c 1,39,-1
 1513 600 l 1,40,-1
 1513 500 l 1,41,-1
 1233 500 l 1,42,43
 1200 329 1200 329 1072 189 c 1,44,45
 1163 80 1163 80 1296 80 c 0,46,47
 1483 80 1483 80 1596 222 c 0,48,49
 1641 278 1641 278 1670 341 c 1,50,-1
 1802 248 l 1,51,52
 1768 203 1768 203 1726 161 c 0,53,54
 1545 -20 1545 -20 1278 -20 c 0,55,56
 1089 -20 1089 -20 957 88 c 1,57,58
 801 -20 801 -20 597 -20 c 0,16,17
EndSplineSet
Validated: 1
EndChar

StartChar: Tbar
Encoding: 358 358 152
Width: 1160
GlyphClass: 2
Flags: W
HStem: 0 21G<480 680> 659 100<295 480 680 865> 1390 120<20 480 680 1140>
VStem: 480 200<0 659 759 1390>
LayerCount: 2
Fore
SplineSet
480 0 m 1,0,-1
 480 659 l 1,1,-1
 295 659 l 1,2,-1
 295 759 l 1,3,-1
 480 759 l 1,4,-1
 480 1390 l 1,5,-1
 20 1390 l 1,6,-1
 20 1510 l 1,7,-1
 1140 1510 l 1,8,-1
 1140 1390 l 1,9,-1
 680 1390 l 1,10,-1
 680 759 l 1,11,-1
 865 759 l 1,12,-1
 865 659 l 1,13,-1
 680 659 l 1,14,-1
 680 0 l 1,15,-1
 480 0 l 1,0,-1
EndSplineSet
Validated: 1
EndChar

StartChar: tbar
Encoding: 359 359 153
Width: 700
GlyphClass: 2
Flags: W
HStem: -20 100<408.477 540> 552 100<60 200 380 520> 1000 100<60 200 380 680> 1490 20G<200 380>
VStem: 200 180<110.266 552 652 1000 1100 1510>
LayerCount: 2
Fore
SplineSet
540 -20 m 1,0,1
 200 -20 200 -20 200 209 c 2,2,-1
 200 552 l 1,3,-1
 60 552 l 1,4,-1
 60 652 l 1,5,-1
 200 652 l 1,6,-1
 200 1000 l 1,7,-1
 60 1000 l 1,8,-1
 60 1100 l 1,9,-1
 200 1100 l 1,10,-1
 200 1510 l 1,11,-1
 380 1510 l 1,12,-1
 380 1100 l 1,13,-1
 680 1100 l 1,14,-1
 680 1000 l 1,15,-1
 380 1000 l 1,16,-1
 380 652 l 1,17,-1
 520 652 l 1,18,-1
 520 552 l 1,19,-1
 380 552 l 1,20,-1
 380 209 l 2,21,22
 380 80 380 80 540 80 c 1,23,-1
 540 -20 l 1,0,1
EndSplineSet
Validated: 1
EndChar

StartChar: longs
Encoding: 383 383 154
Width: 1119
GlyphClass: 2
Flags: W
HStem: 0 21G<220 400> 706 100<20 220> 1430 100<658.189 1043.12>
VStem: 220 180<0 706 806 1119.92>
LayerCount: 2
Fore
SplineSet
220 0 m 1,0,-1
 220 706 l 1,1,-1
 20 706 l 1,2,-1
 20 806 l 1,3,-1
 220 806 l 1,4,-1
 220 887 l 2,5,6
 220 1152 220 1152 419 1349 c 0,7,8
 603 1530 603 1530 867 1530 c 0,9,10
 1003 1530 1003 1530 1109 1475 c 1,11,-1
 1028 1366 l 1,12,13
 951 1430 951 1430 849 1430 c 0,14,15
 660 1430 660 1430 539 1292 c 0,16,17
 400 1134 400 1134 400 867 c 2,18,-1
 400 0 l 1,19,-1
 220 0 l 1,0,-1
EndSplineSet
Validated: 1
EndChar

StartChar: florin
Encoding: 402 402 155
Width: 1099
GlyphClass: 2
Flags: W
HStem: -430 100<40 155.547> 706 100<100 200 380 852> 1430 100<638.189 1023.12>
VStem: 200 180<-285.868 706 806 1120.5>
LayerCount: 2
Fore
SplineSet
40 -430 m 1,0,-1
 40 -330 l 1,1,2
 200 -330 200 -330 200 -151 c 2,3,-1
 200 706 l 1,4,-1
 100 706 l 1,5,-1
 100 806 l 1,6,-1
 200 806 l 1,7,-1
 200 887 l 2,8,9
 200 1152 200 1152 399 1349 c 0,10,11
 583 1530 583 1530 847 1530 c 0,12,13
 983 1530 983 1530 1089 1475 c 1,14,-1
 1008 1366 l 1,15,16
 931 1430 931 1430 829 1430 c 0,17,18
 640 1430 640 1430 519 1292 c 0,19,20
 380 1134 380 1134 380 806 c 1,21,-1
 852 806 l 1,22,-1
 852 706 l 1,23,-1
 380 706 l 1,24,-1
 380 -151 l 2,25,26
 380 -430 380 -430 40 -430 c 1,0,-1
EndSplineSet
Validated: 1
EndChar

StartChar: endash
Encoding: 8211 8211 156
Width: 1180
GlyphClass: 2
Flags: W
HStem: 680 150<150 1030>
LayerCount: 2
Fore
SplineSet
150 830 m 1,0,-1
 1030 830 l 1,1,-1
 1030 680 l 1,2,-1
 150 680 l 1,3,-1
 150 830 l 1,0,-1
EndSplineSet
Validated: 1
EndChar

StartChar: emdash
Encoding: 8212 8212 157
Width: 1480
GlyphClass: 2
Flags: W
HStem: 680 150<150 1330>
LayerCount: 2
Fore
SplineSet
150 830 m 1,0,-1
 1330 830 l 1,1,-1
 1330 680 l 1,2,-1
 150 680 l 1,3,-1
 150 830 l 1,0,-1
EndSplineSet
Validated: 1
EndChar

StartChar: afii00208
Encoding: 8213 8213 158
Width: 1480
GlyphClass: 2
Flags: W
HStem: 680 150<150 1330>
LayerCount: 2
Fore
SplineSet
150 830 m 1,0,-1
 1330 830 l 1,1,-1
 1330 680 l 1,2,-1
 150 680 l 1,3,-1
 150 830 l 1,0,-1
EndSplineSet
Validated: 1
EndChar

StartChar: quoteleft
Encoding: 8216 8216 159
Width: 352
GlyphClass: 2
Flags: W
HStem: 1065 485
VStem: 50 140<1214.88 1415>
LayerCount: 2
Fore
SplineSet
223 1550 m 1,0,-1
 305 1462 l 1,1,2
 191 1412 191 1412 190 1312 c 0,3,4
 190 1214 190 1214 310 1172 c 1,5,-1
 222 1065 l 1,6,7
 50 1147 50 1147 50 1302 c 0,8,9
 50 1468 50 1468 223 1550 c 1,0,-1
EndSplineSet
Validated: 1
EndChar

StartChar: quoteright
Encoding: 8217 8217 160
Width: 352
GlyphClass: 2
Flags: W
HStem: 1065 485
VStem: 162 140<1200 1400.12>
LayerCount: 2
Fore
SplineSet
130 1550 m 1,0,1
 302 1468 302 1468 302 1313 c 0,2,3
 302 1147 302 1147 129 1065 c 1,4,-1
 47 1153 l 1,5,6
 161 1203 161 1203 162 1303 c 0,7,8
 162 1401 162 1401 42 1443 c 1,9,-1
 130 1550 l 1,0,1
EndSplineSet
Validated: 1
EndChar

StartChar: quotesinglbase
Encoding: 8218 8218 161
Width: 352
GlyphClass: 2
Flags: W
HStem: -270 485
VStem: 162 140<-134.998 65.12>
LayerCount: 2
Fore
SplineSet
130 215 m 1,0,1
 302 133 302 133 302 -22 c 0,2,3
 302 -188 302 -188 129 -270 c 1,4,-1
 47 -182 l 1,5,6
 161 -132 161 -132 162 -32 c 0,7,8
 162 66 162 66 42 108 c 1,9,-1
 130 215 l 1,0,1
EndSplineSet
Validated: 1
EndChar

StartChar: quotereversed
Encoding: 8219 8219 162
Width: 352
GlyphClass: 2
Flags: W
HStem: 1065 485
VStem: 50 140<1200 1400.12>
LayerCount: 2
Fore
SplineSet
222 1550 m 1,0,1
 310 1443 l 1,2,3
 190 1401 190 1401 190 1303 c 0,4,5
 191 1203 191 1203 305 1153 c 1,6,-1
 223 1065 l 1,7,8
 50 1147 50 1147 50 1313 c 0,9,10
 50 1468 50 1468 222 1550 c 1,0,1
EndSplineSet
Validated: 1
EndChar

StartChar: quotedblleft
Encoding: 8220 8220 163
Width: 652
GlyphClass: 2
Flags: W
HStem: 1065 485
VStem: 50 140<1214.88 1415> 350 140<1214.88 1415>
LayerCount: 2
Fore
SplineSet
223 1550 m 1,0,-1
 305 1462 l 1,1,2
 191 1412 191 1412 190 1312 c 0,3,4
 190 1214 190 1214 310 1172 c 1,5,-1
 222 1065 l 1,6,7
 50 1147 50 1147 50 1302 c 0,8,9
 50 1468 50 1468 223 1550 c 1,0,-1
523 1550 m 1,10,-1
 605 1462 l 1,11,12
 491 1412 491 1412 490 1312 c 0,13,14
 490 1214 490 1214 610 1172 c 1,15,-1
 522 1065 l 1,16,17
 350 1147 350 1147 350 1302 c 0,18,19
 350 1468 350 1468 523 1550 c 1,10,-1
EndSplineSet
Validated: 1
EndChar

StartChar: quotedblright
Encoding: 8221 8221 164
Width: 652
GlyphClass: 2
Flags: W
HStem: 1065 485
VStem: 162 140<1200 1400.12> 462 140<1200 1400.12>
LayerCount: 2
Fore
SplineSet
430 1550 m 1,0,1
 602 1468 602 1468 602 1313 c 0,2,3
 602 1147 602 1147 429 1065 c 1,4,-1
 347 1153 l 1,5,6
 461 1203 461 1203 462 1303 c 0,7,8
 462 1401 462 1401 342 1443 c 1,9,-1
 430 1550 l 1,0,1
130 1550 m 1,10,11
 302 1468 302 1468 302 1313 c 0,12,13
 302 1147 302 1147 129 1065 c 1,14,-1
 47 1153 l 1,15,16
 161 1203 161 1203 162 1303 c 0,17,18
 162 1401 162 1401 42 1443 c 1,19,-1
 130 1550 l 1,10,11
EndSplineSet
Validated: 1
EndChar

StartChar: quotedblbase
Encoding: 8222 8222 165
Width: 652
GlyphClass: 2
Flags: W
HStem: -270 485
VStem: 162 140<-134.998 65.12> 462 140<-134.998 65.12>
LayerCount: 2
Fore
SplineSet
430 215 m 1,0,1
 602 133 602 133 602 -22 c 0,2,3
 602 -188 602 -188 429 -270 c 1,4,-1
 347 -182 l 1,5,6
 461 -132 461 -132 462 -32 c 0,7,8
 462 66 462 66 342 108 c 1,9,-1
 430 215 l 1,0,1
130 215 m 1,10,11
 302 133 302 133 302 -22 c 0,12,13
 302 -188 302 -188 129 -270 c 1,14,-1
 47 -182 l 1,15,16
 161 -132 161 -132 162 -32 c 0,17,18
 162 66 162 66 42 108 c 1,19,-1
 130 215 l 1,10,11
EndSplineSet
Validated: 1
EndChar

StartChar: dagger
Encoding: 8224 8224 166
Width: 1180
GlyphClass: 2
Flags: W
HStem: 0 21G<490 690> 1049 120<150 490 690 1030> 1490 20G<490 690>
VStem: 490 200<0 1049 1169 1510>
LayerCount: 2
Fore
SplineSet
490 0 m 1,0,-1
 490 1049 l 1,1,-1
 150 1049 l 1,2,-1
 150 1169 l 1,3,-1
 490 1169 l 1,4,-1
 490 1510 l 1,5,-1
 690 1510 l 1,6,-1
 690 1169 l 1,7,-1
 1030 1169 l 1,8,-1
 1030 1049 l 1,9,-1
 690 1049 l 1,10,-1
 690 0 l 1,11,-1
 490 0 l 1,0,-1
EndSplineSet
Validated: 1
EndChar

StartChar: daggerdbl
Encoding: 8225 8225 167
Width: 1180
GlyphClass: 2
Flags: W
HStem: 0 21G<490 690> 341 120<150 490 690 1030> 1049 120<150 490 690 1030> 1490 20G<490 690>
VStem: 490 200<0 341 461 1049 1169 1510>
LayerCount: 2
Fore
SplineSet
490 0 m 1,0,-1
 490 341 l 1,1,-1
 150 341 l 1,2,-1
 150 461 l 1,3,-1
 490 461 l 1,4,-1
 490 1049 l 1,5,-1
 150 1049 l 1,6,-1
 150 1169 l 1,7,-1
 490 1169 l 1,8,-1
 490 1510 l 1,9,-1
 690 1510 l 1,10,-1
 690 1169 l 1,11,-1
 1030 1169 l 1,12,-1
 1030 1049 l 1,13,-1
 690 1049 l 1,14,-1
 690 461 l 1,15,-1
 1030 461 l 1,16,-1
 1030 341 l 1,17,-1
 690 341 l 1,18,-1
 690 0 l 1,19,-1
 490 0 l 1,0,-1
EndSplineSet
Validated: 1
EndChar

StartChar: bullet
Encoding: 8226 8226 168
Width: 930
GlyphClass: 2
Flags: W
HStem: 443 626<335.657 594.343>
VStem: 150 630<628.734 883.266>
LayerCount: 2
Fore
SplineSet
507 1069 m 0,0,1
 630 1069 630 1069 709 985 c 0,2,3
 780 910 780 910 780 796 c 0,4,5
 780 650 780 650 670 543 c 0,6,7
 567 443 567 443 423 443 c 0,8,9
 301 443 301 443 221 527 c 0,10,11
 150 602 150 602 150 716 c 0,12,13
 150 862 150 862 260 969 c 0,14,15
 363 1069 363 1069 507 1069 c 0,0,1
EndSplineSet
Validated: 1
EndChar

StartChar: ellipsis
Encoding: 8230 8230 169
Width: 1072
GlyphClass: 2
Flags: W
HStem: -20 255<88.1292 263.809 448.129 623.809 808.129 983.809>
VStem: 50 252<19.2217 196.809> 410 252<19.2217 196.809> 770 252<19.2217 196.809>
CounterMasks: 1 70
LayerCount: 2
Fore
SplineSet
896 -20 m 0,0,1
 843 -20 843 -20 807 18 c 0,2,3
 770 57 770 57 770 108 c 0,4,5
 770 157 770 157 807 197 c 24,6,7
 842 235 842 235 896 235 c 0,8,9
 948 235 948 235 985 198 c 0,10,11
 1022 160 1022 160 1022 108 c 0,12,13
 1022 55 1022 55 985 17 c 24,14,15
 947 -20 947 -20 896 -20 c 0,0,1
536 -20 m 0,16,17
 483 -20 483 -20 447 18 c 0,18,19
 410 57 410 57 410 108 c 0,20,21
 410 157 410 157 447 197 c 24,22,23
 482 235 482 235 536 235 c 0,24,25
 588 235 588 235 625 198 c 0,26,27
 662 160 662 160 662 108 c 0,28,29
 662 55 662 55 625 17 c 24,30,31
 587 -20 587 -20 536 -20 c 0,16,17
176 -20 m 0,32,33
 123 -20 123 -20 87 18 c 0,34,35
 50 57 50 57 50 108 c 0,36,37
 50 157 50 157 87 197 c 24,38,39
 122 235 122 235 176 235 c 0,40,41
 228 235 228 235 265 198 c 0,42,43
 302 160 302 160 302 108 c 0,44,45
 302 55 302 55 265 17 c 24,46,47
 227 -20 227 -20 176 -20 c 0,32,33
EndSplineSet
Validated: 1
EndChar

StartChar: perthousand
Encoding: 8240 8240 170
Width: 2191
GlyphClass: 2
Flags: W
HStem: -20 93<929.693 1145.71 1601.69 1817.71> 0 21G<250 437.166> 513 93<962.295 1178.08 1634.29 1850.08> 904 93<340.923 556.705> 1437 93<373.295 589.307> 1490 20G<1081.83 1269>
VStem: 150 141<1051.26 1345.2> 639 141<1088.8 1382.74> 739 141<127.257 421.204> 1228 141<164.796 458.743> 1411 141<127.257 421.204> 1900 141<164.796 458.743>
DStem2: 250 0 426 0 0.487458 0.873146<85.7927 1729.38>
LayerCount: 2
Fore
SplineSet
1684 -20 m 0,0,1
 1561 -20 1561 -20 1482 64 c 0,2,3
 1411 139 1411 139 1411 253 c 0,4,5
 1411 399 1411 399 1521 506 c 0,6,7
 1624 606 1624 606 1768 606 c 0,8,9
 1890 606 1890 606 1970 522 c 0,10,11
 2041 447 2041 447 2041 333 c 0,12,13
 2041 187 2041 187 1931 80 c 0,14,15
 1828 -20 1828 -20 1684 -20 c 0,0,1
1700 73 m 0,16,17
 1785 73 1785 73 1839 140 c 0,18,19
 1900 214 1900 214 1900 318 c 0,20,21
 1900 406 1900 406 1861 456 c 0,22,23
 1818 513 1818 513 1752 513 c 0,24,25
 1667 513 1667 513 1613 446 c 0,26,27
 1552 372 1552 372 1552 268 c 0,28,29
 1552 180 1552 180 1591 130 c 0,30,31
 1634 73 1634 73 1700 73 c 0,16,17
1012 -20 m 0,32,33
 889 -20 889 -20 810 64 c 0,34,35
 739 139 739 139 739 253 c 0,36,37
 739 399 739 399 849 506 c 0,38,39
 952 606 952 606 1096 606 c 0,40,41
 1218 606 1218 606 1298 522 c 0,42,43
 1369 447 1369 447 1369 333 c 0,44,45
 1369 187 1369 187 1259 80 c 0,46,47
 1156 -20 1156 -20 1012 -20 c 0,32,33
1028 73 m 0,48,49
 1113 73 1113 73 1167 140 c 0,50,51
 1228 214 1228 214 1228 318 c 0,52,53
 1228 406 1228 406 1189 456 c 0,54,55
 1146 513 1146 513 1080 513 c 0,56,57
 995 513 995 513 941 446 c 0,58,59
 880 372 880 372 880 268 c 0,60,61
 880 180 880 180 919 130 c 0,62,63
 962 73 962 73 1028 73 c 0,48,49
507 1530 m 0,64,65
 630 1530 630 1530 709 1446 c 0,66,67
 780 1371 780 1371 780 1257 c 0,68,69
 780 1111 780 1111 670 1004 c 0,70,71
 567 904 567 904 423 904 c 0,72,73
 301 904 301 904 221 988 c 0,74,75
 150 1063 150 1063 150 1177 c 0,76,77
 150 1323 150 1323 260 1430 c 0,78,79
 363 1530 363 1530 507 1530 c 0,64,65
491 1437 m 0,80,81
 406 1437 406 1437 352 1370 c 0,82,83
 291 1296 291 1296 291 1192 c 0,84,85
 291 1104 291 1104 330 1054 c 0,86,87
 373 997 373 997 439 997 c 0,88,89
 524 997 524 997 578 1064 c 0,90,91
 639 1138 639 1138 639 1242 c 0,92,93
 639 1330 639 1330 600 1380 c 0,94,95
 557 1437 557 1437 491 1437 c 0,80,81
250 0 m 1,96,-1
 1093 1510 l 1,97,-1
 1269 1510 l 1,98,-1
 426 0 l 1,99,-1
 250 0 l 1,96,-1
EndSplineSet
Validated: 1
EndChar

StartChar: minute
Encoding: 8242 8242 171
Width: 408
GlyphClass: 2
Flags: W
HStem: 1170 380
VStem: 50 308
LayerCount: 2
Fore
SplineSet
192 1550 m 1,0,-1
 358 1550 l 1,1,-1
 177 1170 l 1,2,-1
 50 1170 l 1,3,-1
 192 1550 l 1,0,-1
EndSplineSet
Validated: 1
EndChar

StartChar: second
Encoding: 8243 8243 172
Width: 710
GlyphClass: 2
Flags: W
HStem: 1170 380
VStem: 50 610
LayerCount: 2
Fore
SplineSet
494 1550 m 1,0,-1
 660 1550 l 1,1,-1
 479 1170 l 1,2,-1
 352 1170 l 1,3,-1
 494 1550 l 1,0,-1
192 1550 m 1,4,-1
 358 1550 l 1,5,-1
 177 1170 l 1,6,-1
 50 1170 l 1,7,-1
 192 1550 l 1,4,-1
EndSplineSet
Validated: 1
EndChar

StartChar: guilsinglleft
Encoding: 8249 8249 173
Width: 740
GlyphClass: 2
Flags: W
HStem: 316 201<339 540> 1059 133<407 540>
VStem: 150 390
DStem2: 150 845 234 789 0.747092 0.66472<25.5314 433.616> 234 789 150 663 0.747092 -0.66472<20.999 409.414>
LayerCount: 2
Fore
SplineSet
150 845 m 1,0,-1
 540 1192 l 1,1,-1
 540 1059 l 1,2,-1
 234 789 l 1,3,-1
 540 517 l 1,4,-1
 540 316 l 1,5,-1
 150 663 l 1,6,-1
 150 845 l 1,0,-1
EndSplineSet
Validated: 1
EndChar

StartChar: guilsinglright
Encoding: 8250 8250 174
Width: 740
GlyphClass: 2
Flags: W
HStem: 316 133<200 333> 991 201<200 401>
VStem: 200 390
DStem2: 200 1192 200 991 0.747092 -0.66472<133.609 522.024> 200 449 200 316 0.747092 0.66472<0 408.085>
LayerCount: 2
Fore
SplineSet
590 663 m 1,0,-1
 200 316 l 1,1,-1
 200 449 l 1,2,-1
 506 719 l 1,3,-1
 200 991 l 1,4,-1
 200 1192 l 1,5,-1
 590 845 l 1,6,-1
 590 663 l 1,0,-1
EndSplineSet
Validated: 1
EndChar

StartChar: fraction
Encoding: 8260 8260 175
Width: 1039
GlyphClass: 2
Flags: W
HStem: 0 21G<10 197.166> 1490 20G<841.834 1029>
DStem2: 10 0 186 0 0.487458 0.873146<85.7927 1729.38>
LayerCount: 2
Fore
SplineSet
10 0 m 1,0,-1
 853 1510 l 1,1,-1
 1029 1510 l 1,2,-1
 186 0 l 1,3,-1
 10 0 l 1,0,-1
EndSplineSet
Validated: 1
EndChar

StartChar: Euro
Encoding: 8364 8364 176
Width: 1739
GlyphClass: 2
Flags: W
HStem: -20 120<699.576 1146.65> 577 100<50 200 423 1120> 787 100<50 209 442 1120> 1410 120<805.834 1252.58>
VStem: 203 220<405.308 577 677 787> 229 213<887 1010.59>
LayerCount: 2
Fore
SplineSet
888 -20 m 0,0,1
 566 -20 566 -20 371 185 c 0,2,3
 222 342 222 342 203 577 c 1,4,-1
 50 577 l 1,5,-1
 50 677 l 1,6,-1
 200 677 l 1,7,8
 202 733 202 733 209 787 c 1,9,-1
 50 787 l 1,10,-1
 50 887 l 1,11,-1
 229 887 l 1,12,13
 291 1128 291 1128 484 1306 c 0,14,15
 727 1530 727 1530 1071 1530 c 0,16,17
 1391 1530 1391 1530 1588 1323 c 1,18,-1
 1415 1233 l 1,19,20
 1283 1410 1283 1410 1039 1410 c 0,21,22
 778 1410 778 1410 619 1230 c 0,23,24
 487 1081 487 1081 442 887 c 1,25,-1
 1120 887 l 1,26,-1
 1120 787 l 1,27,-1
 424 787 l 1,28,29
 418 734 418 734 418 677 c 1,30,-1
 1120 677 l 1,31,-1
 1120 577 l 1,32,-1
 423 577 l 1,33,34
 443 405 443 405 540 277 c 0,35,36
 672 100 672 100 916 100 c 0,37,38
 1176 100 1176 100 1336 280 c 0,39,40
 1399 351 1399 351 1442 432 c 1,41,-1
 1589 327 l 1,42,43
 1542 264 1542 264 1475 202 c 0,44,45
 1234 -20 1234 -20 888 -20 c 0,0,1
EndSplineSet
Validated: 1
EndChar

StartChar: afii61248
Encoding: 8453 8453 177
Width: 1973
GlyphClass: 2
Flags: W
HStem: -20 71<1265.83 1513.96> 0 21G<465 652.166> 693 69<1314.74 1558.59> 746 72<411.319 661.284> 1459 71<460.987 704.988> 1490 20G<1296.83 1484>
VStem: 150 149<927.645 1284.98> 1004 150<160.551 518.54> 1673 150<224.11 583.195>
DStem2: 465 0 641 0 0.487458 0.873146<85.7927 1729.38>
LayerCount: 2
Fore
SplineSet
1374 -20 m 0,0,1
 1187 -20 1187 -20 1090 85 c 0,2,3
 1004 178 1004 178 1004 318 c 0,4,5
 1004 520 1004 520 1147 648 c 0,6,7
 1274 762 1274 762 1455 762 c 0,8,9
 1640 762 1640 762 1737 658 c 0,10,11
 1823 566 1823 566 1823 425 c 0,12,13
 1823 228 1823 228 1688 103 c 0,14,15
 1556 -20 1556 -20 1374 -20 c 0,0,1
1389 51 m 128,-1,17
 1498 51 1498 51 1572 134 c 0,18,19
 1673 247 1673 247 1673 413 c 0,20,21
 1673 528 1673 528 1610 611 c 0,22,23
 1549 693 1549 693 1441 693 c 0,24,25
 1328 693 1328 693 1255 609 c 0,26,27
 1154 494 1154 494 1154 332 c 0,28,29
 1154 216 1154 216 1217 133 c 0,30,16
 1280 51 1280 51 1389 51 c 128,-1,17
600 1530 m 128,-1,32
 780 1530 780 1530 884 1423 c 1,33,-1
 770 1361 l 1,34,35
 698 1459 698 1459 586 1459 c 0,36,37
 477 1459 477 1459 400 1374 c 24,38,39
 299 1262 299 1262 299 1097 c 0,40,41
 299 981 299 981 362 900 c 0,42,43
 425 818 425 818 533 818 c 0,44,45
 699 818 699 818 782 999 c 1,46,-1
 885 924 l 1,47,48
 755 746 755 746 514 746 c 0,49,50
 338 746 338 746 244 846 c 0,51,52
 150 944 150 944 150 1085 c 0,53,54
 151 1286 151 1286 293 1415 c 0,55,31
 420 1530 420 1530 600 1530 c 128,-1,32
465 0 m 1,56,-1
 1308 1510 l 1,57,-1
 1484 1510 l 1,58,-1
 641 0 l 1,59,-1
 465 0 l 1,56,-1
EndSplineSet
Validated: 1
EndChar

StartChar: afii61289
Encoding: 8467 8467 178
Width: 958
GlyphClass: 2
Flags: W
HStem: -20 136<458.002 574.715> 0 21G<50 263> 1510 20G<632 703>
VStem: 232 155<466 819.618> 655 153<1042.58 1357.48>
LayerCount: 2
Fore
SplineSet
387 466 m 1,0,1
 498 708 498 708 554 860 c 0,2,3
 655 1134 655 1134 655 1359 c 1,4,5
 563 1238 563 1238 503 1067 c 0,6,7
 387 740 387 740 387 466 c 1,0,1
50 0 m 1,8,9
 171 158 171 158 244 282 c 1,10,11
 232 366 232 366 232 443 c 0,12,13
 232 629 232 629 279 848 c 0,14,15
 367 1251 367 1251 517 1434 c 0,16,17
 595 1530 595 1530 669 1530 c 0,18,19
 737 1530 737 1530 772 1479 c 0,20,21
 808 1429 808 1429 808 1318 c 0,22,23
 808 1226 808 1226 778 1072 c 0,24,25
 708 722 708 722 422 271 c 1,26,27
 454 116 454 116 511 116 c 0,28,29
 535 116 535 116 562.5 145 c 128,-1,30
 590 174 590 174 616 228 c 1,31,-1
 792 228 l 1,32,33
 715 100 715 100 650.5 40 c 128,-1,34
 586 -20 586 -20 502 -20 c 0,35,36
 382 -20 382 -20 305 90 c 1,37,-1
 251 0 l 1,38,-1
 50 0 l 1,8,9
EndSplineSet
Validated: 1
EndChar

StartChar: trademark
Encoding: 8482 8482 179
Width: 1992
VWidth: 1401
GlyphClass: 2
Flags: W
HStem: 1449 71<50 280 420 650 953.402 1144.86 1423.88 1616.69>
VStem: 280 140<755 1449> 710 140<755 1351.29 1423 1520> 1181 140<755 1353.63> 1652 140<755 1411.81>
LayerCount: 2
Fore
SplineSet
710 1520 m 1,0,-1
 850 1520 l 1,1,-1
 850 1423 l 1,2,3
 946 1530 946 1530 1084 1530 c 0,4,5
 1253 1530 1253 1530 1305 1408 c 1,6,7
 1409 1530 1409 1530 1555 1530 c 0,8,9
 1792 1530 1792 1530 1792 1309 c 2,10,-1
 1792 755 l 1,11,-1
 1652 755 l 1,12,-1
 1652 1308 l 2,13,14
 1652 1375 1652 1375 1617.5 1413 c 128,-1,15
 1583 1451 1583 1451 1536 1451 c 0,16,17
 1453 1451 1453 1451 1389 1383 c 0,18,19
 1321 1311 1321 1311 1321 1195 c 2,20,-1
 1321 755 l 1,21,-1
 1181 755 l 1,22,-1
 1181 1308 l 2,23,24
 1181 1374 1181 1374 1147.5 1412.5 c 128,-1,25
 1114 1451 1114 1451 1066 1451 c 0,26,27
 982 1451 982 1451 919 1383 c 0,28,29
 850 1309 850 1309 850 1195 c 2,30,-1
 850 755 l 1,31,-1
 710 755 l 1,32,-1
 710 1520 l 1,0,-1
280 755 m 1,33,-1
 280 1449 l 1,34,-1
 50 1449 l 1,35,-1
 50 1520 l 1,36,-1
 650 1520 l 1,37,-1
 650 1449 l 1,38,-1
 420 1449 l 1,39,-1
 420 755 l 1,40,-1
 280 755 l 1,33,-1
EndSplineSet
Validated: 1
EndChar

StartChar: uni2126
Encoding: 8486 8486 180
Width: 1861
GlyphClass: 2
Flags: W
HStem: 0 120<50 433 985 1129.41 1288 1618> 1410 120<758.834 1206>
VStem: 152 220<407.677 939.165> 1491 220<561.989 1089.87>
LayerCount: 2
Fore
SplineSet
50 0 m 1,0,-1
 50 120 l 1,1,-1
 433 120 l 1,2,3
 374 155 374 155 331 192 c 0,4,5
 152 347 152 347 152 648 c 0,6,7
 152 1044 152 1044 436 1306 c 0,8,9
 679 1530 679 1530 1023 1530 c 0,10,11
 1345 1530 1345 1530 1540 1325 c 0,12,13
 1711 1145 1711 1145 1711 862 c 0,14,15
 1711 445 1711 445 1428 212 c 0,16,17
 1366 161 1366 161 1288 120 c 1,18,-1
 1618 120 l 1,19,-1
 1618 0 l 1,20,-1
 985 0 l 1,21,-1
 985 120 l 1,22,23
 1180 155 1180 155 1290 280 c 0,24,25
 1491 507 1491 507 1491 839 c 0,26,27
 1491 1071 1491 1071 1369 1233 c 0,28,29
 1237 1410 1237 1410 993 1410 c 0,30,31
 732 1410 732 1410 573 1230 c 0,32,33
 372 1003 372 1003 372 671 c 0,34,35
 372 427 372 427 494 265 c 0,36,37
 570 163 570 163 683 120 c 1,38,-1
 683 0 l 1,39,-1
 50 0 l 1,0,-1
EndSplineSet
Validated: 1
EndChar

StartChar: estimated
Encoding: 8494 8494 181
Width: 1330
GlyphClass: 2
Flags: W
HStem: -20 92<451.758 852.453> 525 80<348 983> 1036 84<468.183 852.399>
VStem: 100 248<309.991 525 605 788.181> 983 247<605 774.087>
LayerCount: 2
Fore
SplineSet
1104 204 m 1,0,1
 1032 113 1032 113 948 61 c 0,2,3
 817 -20 817 -20 665 -20 c 0,4,5
 409 -20 409 -20 256 139 c 0,6,7
 100 301 100 301 100 550 c 0,8,9
 100 788 100 788 249 952 c 24,10,11
 402 1120 402 1120 666 1120 c 0,12,13
 915 1120 915 1120 1064 964 c 280,14,15
 1230 790 1230 790 1230 525 c 1,16,-1
 348 525 l 1,17,-1
 348 192 l 1,18,19
 459 72 459 72 666 72 c 256,20,21
 789 72 789 72 880 132 c 0,22,23
 962 186 962 186 1011 266 c 1,24,25
 1104 204 l 1,0,1
348 605 m 1,26,-1
 983 605 l 1,27,-1
 983 903 l 1,28,29
 852 1036 852 1036 666 1036 c 0,30,31
 475 1036 475 1036 348 914 c 1,32,-1
 348 605 l 1,26,-1
EndSplineSet
Validated: 1
EndChar

StartChar: partialdiff
Encoding: 8706 8706 182
Width: 1285
GlyphClass: 2
Flags: W
HStem: -20 153<399.379 663.581> 870 170<546.66 823.335> 1378 152<492 830.299>
VStem: 150 188<198.966 600.959> 952 183<930 1235.35>
LayerCount: 2
Fore
SplineSet
512 -20 m 0,0,1
 150 -20 150 -20 150 375 c 0,2,3
 150 631 150 631 286 815 c 0,4,5
 454 1040 454 1040 672 1040 c 0,6,7
 859 1040 859 1040 952 930 c 1,8,9
 952 1136 952 1136 907 1239 c 0,10,11
 846 1378 846 1378 678 1378 c 0,12,13
 547 1378 547 1378 420 1294 c 1,14,-1
 420 1468 l 1,15,16
 554 1530 554 1530 703 1530 c 0,17,18
 1135 1530 1135 1530 1135 934 c 0,19,20
 1135 545 1135 545 966.5 262.5 c 128,-1,21
 798 -20 798 -20 512 -20 c 0,0,1
525 133 m 0,22,23
 663 133 663 133 772.5 286 c 128,-1,24
 882 439 882 439 920 680 c 1,25,26
 898 765 898 765 834.5 817.5 c 128,-1,27
 771 870 771 870 695 870 c 0,28,29
 535 870 535 870 436.5 710 c 128,-1,30
 338 550 338 550 338 369 c 0,31,32
 338 133 338 133 525 133 c 0,22,23
EndSplineSet
Validated: 1
EndChar

StartChar: uni2206
Encoding: 8710 8710 183
Width: 1537
GlyphClass: 2
Flags: W
HStem: 0 120<188 1256> 1354 156<659 878>
DStem2: 5 0 188 120 0.397437 0.91763<182.846 1527.43> 878 1510 722 1354 0.397437 -0.91763<81.15 1425.74>
LayerCount: 2
Fore
SplineSet
5 0 m 1,0,-1
 659 1510 l 1,1,-1
 878 1510 l 1,2,-1
 1532 0 l 1,3,-1
 5 0 l 1,0,-1
188 120 m 1,4,-1
 1256 120 l 1,5,-1
 722 1354 l 1,6,-1
 188 120 l 1,4,-1
EndSplineSet
Validated: 1
EndChar

StartChar: product
Encoding: 8719 8719 184
Width: 1456
GlyphClass: 2
Flags: W
HStem: -410 21G<200 400 1056 1256> 1390 120<400 1056>
VStem: 200 200<-410 1390> 1056 200<-410 1390>
LayerCount: 2
Fore
SplineSet
200 -410 m 1,0,-1
 200 1510 l 1,1,-1
 1256 1510 l 1,2,-1
 1256 -410 l 1,3,-1
 1056 -410 l 1,4,-1
 1056 1390 l 1,5,-1
 400 1390 l 1,6,-1
 400 -410 l 1,7,-1
 200 -410 l 1,0,-1
EndSplineSet
Validated: 1
EndChar

StartChar: summation
Encoding: 8721 8721 185
Width: 1410
GlyphClass: 2
Flags: W
HStem: -410 120<455 1260> 1390 120<461 1169>
DStem2: 461 1390 150 1510 0.529509 -0.848304<0 834.546> 151 -410 455 -290 0.508317 0.86117<257.869 1144.95>
LayerCount: 2
Fore
SplineSet
151 -410 m 1,0,-1
 733 576 l 1,1,-1
 150 1510 l 1,2,-1
 1169 1510 l 1,3,-1
 1169 1390 l 1,4,-1
 461 1390 l 1,5,-1
 968 578 l 1,6,-1
 455 -290 l 1,7,-1
 1260 -290 l 1,8,-1
 1260 -410 l 1,9,-1
 151 -410 l 1,0,-1
EndSplineSet
Validated: 1
EndChar

StartChar: minus
Encoding: 8722 8722 186
Width: 1180
GlyphClass: 2
Flags: W
HStem: 680 150<150 1030>
LayerCount: 2
Fore
SplineSet
150 830 m 1,0,-1
 1030 830 l 1,1,-1
 1030 680 l 1,2,-1
 150 680 l 1,3,-1
 150 830 l 1,0,-1
EndSplineSet
Validated: 1
EndChar

StartChar: uni2215
Encoding: 8725 8725 187
Width: 1039
GlyphClass: 2
Flags: W
HStem: 0 21G<10 197.166> 1490 20G<841.834 1029>
DStem2: 10 0 186 0 0.487458 0.873146<85.7927 1729.38>
LayerCount: 2
Fore
SplineSet
10 0 m 1,0,-1
 853 1510 l 1,1,-1
 1029 1510 l 1,2,-1
 186 0 l 1,3,-1
 10 0 l 1,0,-1
EndSplineSet
Validated: 1
EndChar

StartChar: uni2219
Encoding: 8729 8729 188
Width: 352
GlyphClass: 2
Flags: W
HStem: 627 255<88.1292 263.809>
VStem: 50 252<666.222 843.809>
LayerCount: 2
Fore
SplineSet
176 882 m 0,0,1
 228 882 228 882 265 845 c 0,2,3
 302 807 302 807 302 755 c 0,4,5
 302 702 302 702 265 664 c 24,6,7
 227 627 227 627 176 627 c 0,8,9
 123 627 123 627 87 665 c 0,10,11
 50 704 50 704 50 755 c 0,12,13
 50 804 50 804 87 844 c 24,14,15
 122 882 122 882 176 882 c 0,0,1
EndSplineSet
Validated: 1
EndChar

StartChar: radical
Encoding: 8730 8730 189
Width: 1622
GlyphClass: 2
Flags: W
HStem: 0 21G<530.348 766.662> 705 120<50 234> 1390 120<1360 1572>
DStem2: 406 825 234 705 0.397059 -0.917793<41.8409 728.754> 695 156 758 0 0.397422 0.917636<0 1396.65>
LayerCount: 2
Fore
SplineSet
539 0 m 1,0,-1
 234 705 l 1,1,-1
 50 705 l 1,2,-1
 50 825 l 1,3,-1
 406 825 l 1,4,-1
 695 156 l 1,5,-1
 1281 1510 l 1,6,-1
 1572 1510 l 1,7,-1
 1572 1390 l 1,8,-1
 1360 1390 l 1,9,-1
 758 0 l 1,10,-1
 539 0 l 1,0,-1
EndSplineSet
Validated: 1
EndChar

StartChar: infinity
Encoding: 8734 8734 190
Width: 1417
GlyphClass: 2
Flags: W
HStem: 443 93<340.923 556.605 829.147 1043.71> 976 93<373.295 589.307 860.644 1076.31>
VStem: 150 141<590.257 884.204> 639 139<626.037 885.963> 1126 141<627.796 921.743>
CounterMasks: 1 38
LayerCount: 2
Fore
SplineSet
491 976 m 0,0,1
 406 976 406 976 352 909 c 0,2,3
 291 835 291 835 291 731 c 0,4,5
 291 643 291 643 330 593 c 0,6,7
 373 536 373 536 439 536 c 0,8,9
 524 536 524 536 578 603 c 0,10,11
 639 677 639 677 639 781 c 0,12,13
 639 869 639 869 600 919 c 0,14,15
 557 976 557 976 491 976 c 0,0,1
507 1069 m 0,16,17
 630 1069 630 1069 709 985 c 0,18,19
 722 971 722 971 733 955 c 1,20,21
 842 1069 842 1069 994 1069 c 0,22,23
 1117 1069 1117 1069 1196 985 c 0,24,25
 1267 910 1267 910 1267 796 c 0,26,27
 1267 650 1267 650 1157 543 c 0,28,29
 1054 443 1054 443 910 443 c 0,30,31
 786 443 786 443 708 527 c 0,32,33
 695 541 695 541 684 557 c 1,34,35
 576 443 576 443 423 443 c 0,36,37
 301 443 301 443 221 527 c 0,38,39
 150 602 150 602 150 716 c 0,40,41
 150 862 150 862 260 969 c 0,42,43
 363 1069 363 1069 507 1069 c 0,16,17
978 976 m 0,44,45
 893 976 893 976 839 909 c 0,46,47
 778 835 778 835 778 731 c 0,48,49
 778 643 778 643 817 593 c 0,50,51
 860 536 860 536 926 536 c 0,52,53
 1011 536 1011 536 1065 603 c 0,54,55
 1126 677 1126 677 1126 781 c 0,56,57
 1126 869 1126 869 1087 919 c 0,58,59
 1044 976 1044 976 978 976 c 0,44,45
EndSplineSet
Validated: 1
EndChar

StartChar: approxequal
Encoding: 8776 8776 191
Width: 1182
GlyphClass: 2
Flags: W
HStem: 373 155<698.851 893.232> 564 155<292.055 483.149> 769 155<698.851 893.232> 960 155<292.055 483.149>
VStem: 150 91<437.329 507.688 833.329 903.688> 941 91<577.676 654.671 973.676 1050.67>
DStem2: 716 957 466 927 0.829489 -0.558523<-285.044 102.465> 716 561 466 531 0.829489 -0.558523<-285.044 102.465>
LayerCount: 2
Fore
SplineSet
941 1081 m 1,0,-1
 1032 1045 l 1,1,2
 959 769 959 769 785 769 c 0,3,4
 701 769 701 769 616 826 c 2,5,-1
 466 927 l 2,6,7
 417 960 417 960 373 960 c 0,8,9
 282 960 282 960 241 803 c 1,10,-1
 150 839 l 1,11,12
 223 1115 223 1115 397 1115 c 0,13,14
 481 1115 481 1115 566 1058 c 2,15,-1
 716 957 l 2,16,17
 765 924 765 924 819 924 c 0,18,19
 900 924 900 924 941 1081 c 1,0,-1
941 685 m 1,20,-1
 1032 649 l 1,21,22
 959 373 959 373 785 373 c 0,23,24
 701 373 701 373 616 430 c 2,25,-1
 466 531 l 2,26,27
 417 564 417 564 373 564 c 0,28,29
 282 564 282 564 241 407 c 1,30,-1
 150 443 l 1,31,32
 223 719 223 719 397 719 c 0,33,34
 481 719 481 719 566 662 c 2,35,-1
 716 561 l 2,36,37
 765 528 765 528 819 528 c 0,38,39
 900 528 900 528 941 685 c 1,20,-1
EndSplineSet
Validated: 1
EndChar

StartChar: notequal
Encoding: 8800 8800 192
Width: 1180
GlyphClass: 2
Flags: W
HStem: 505 150<150 388 590 1030> 855 150<150 590 792 1030>
DStem2: 272 304 358 254 0.500247 0.865883<0 232.071 463.003 636.18 867.112 1099.18>
LayerCount: 2
Fore
SplineSet
150 1005 m 1,0,-1
 677 1005 l 1,1,-1
 822 1256 l 1,2,-1
 908 1206 l 1,3,-1
 792 1005 l 1,4,-1
 1030 1005 l 1,5,-1
 1030 855 l 1,6,-1
 705 855 l 1,7,-1
 590 655 l 1,8,-1
 1030 655 l 1,9,-1
 1030 505 l 1,10,-1
 503 505 l 1,11,-1
 358 254 l 1,12,-1
 272 304 l 1,13,-1
 388 505 l 1,14,-1
 150 505 l 1,15,-1
 150 655 l 1,16,-1
 475 655 l 1,17,-1
 590 855 l 1,18,-1
 150 855 l 1,19,-1
 150 1005 l 1,0,-1
EndSplineSet
Validated: 1
EndChar

StartChar: lessequal
Encoding: 8804 8804 193
Width: 1257
GlyphClass: 2
Flags: W
HStem: 215 150<200 1057>
VStem: 201 126<823 973>
DStem2: 201 973 327 925 0.893591 0.448883<91.046 907.658> 327 925 201 823 0.892752 -0.450548<0 816.61>
LayerCount: 2
Fore
SplineSet
201 973 m 1,0,-1
 1057 1403 l 1,1,-1
 1057 1291 l 1,2,-1
 327 925 l 1,3,-1
 1057 559 l 1,4,-1
 1057 391 l 1,5,-1
 201 823 l 1,6,-1
 201 973 l 1,0,-1
200 365 m 1,7,-1
 1057 365 l 1,8,-1
 1057 215 l 1,9,-1
 200 215 l 1,10,-1
 200 365 l 1,7,-1
EndSplineSet
Validated: 1
EndChar

StartChar: greaterequal
Encoding: 8805 8805 194
Width: 1257
GlyphClass: 2
Flags: W
HStem: 215 150<200 1057>
VStem: 931 126<821 971>
DStem2: 201 1403 201 1235 0.892752 -0.450548<75.692 892.302> 201 503 201 391 0.893591 0.448883<0 816.612>
LayerCount: 2
Fore
SplineSet
1057 821 m 1,0,-1
 201 391 l 1,1,-1
 201 503 l 1,2,-1
 931 869 l 1,3,-1
 201 1235 l 1,4,-1
 201 1403 l 1,5,-1
 1057 971 l 1,6,-1
 1057 821 l 1,0,-1
200 365 m 1,7,-1
 1057 365 l 1,8,-1
 1057 215 l 1,9,-1
 200 215 l 1,10,-1
 200 365 l 1,7,-1
EndSplineSet
Validated: 1
EndChar

StartChar: lozenge
Encoding: 9674 9674 195
Width: 1134
GlyphClass: 2
Flags: W
HStem: -20 21G<554.678 579.273> 1510 20G<555.207 578.838>
DStem2: 100 738 288 775 0.507923 0.861403<127.361 627.638> 288 775 100 738 0.524536 -0.851388<0 582.074> 567 1530 542 1206 0.509354 -0.860557<266.087 853.984> 591 278 567 -20 0.523035 0.852311<0 492.332>
LayerCount: 2
Fore
SplineSet
591 278 m 5,0,-1
 843 701 l 1,1,-1
 542 1206 l 1,2,-1
 288 775 l 1,3,-1
 591 278 l 5,0,-1
567 -20 m 1,4,-1
 100 738 l 1,5,-1
 567 1530 l 1,6,-1
 1034 741 l 1,7,-1
 567 -20 l 1,4,-1
EndSplineSet
Validated: 1
EndChar

StartChar: uni1E02
Encoding: 7682 7682 196
Width: 1499
Flags: W
HStem: -20 87<572.26 950.756> 0 21G<200 400> 1396 134<693.345 992.085> 1490 20G<200 400> 1624 255<720.129 895.809>
VStem: 200 200<0 1097.44 1216 1510> 682 252<1663.22 1840.81> 1075 187<1039 1313.62> 1187 212<305.294 646.677>
LayerCount: 2
Fore
SplineSet
808 1879 m 0,0,1
 860 1879 860 1879 897 1842 c 0,2,3
 934 1804 934 1804 934 1752 c 0,4,5
 934 1699 934 1699 897 1661 c 24,6,7
 859 1624 859 1624 808 1624 c 0,8,9
 755 1624 755 1624 719 1662 c 0,10,11
 682 1701 682 1701 682 1752 c 0,12,13
 682 1801 682 1801 719 1841 c 24,14,15
 754 1879 754 1879 808 1879 c 0,0,1
200 0 m 1,16,-1
 200 1510 l 1,17,-1
 400 1510 l 1,18,-1
 400 1216 l 1,19,20
 473 1353 473 1353 610 1441.5 c 128,-1,21
 747 1530 747 1530 914 1530 c 0,22,23
 1067 1530 1067 1530 1162 1439 c 0,24,25
 1262 1343 1262 1343 1262 1202 c 0,26,27
 1262 986 1262 986 1004 848 c 1,28,29
 1170 848 1170 848 1276 760 c 0,30,31
 1399 658 1399 658 1399 494 c 0,32,33
 1399 329 1399 329 1281 199 c 0,34,35
 1082 -20 1082 -20 765 -20 c 0,36,37
 558 -20 558 -20 466 119 c 1,38,-1
 474 127 l 1,39,40
 582 67 582 67 726 67 c 0,41,42
 954 67 954 67 1079 200 c 0,43,44
 1187 315 1187 315 1187 473 c 0,45,46
 1187 619 1187 619 1102 695 c 0,47,48
 1020 768 1020 768 864 768 c 0,49,50
 748 768 748 768 640 755 c 1,51,-1
 640 765 l 1,52,53
 780 808 780 808 890 880 c 0,54,55
 1075 1001 1075 1001 1075 1178 c 0,56,57
 1075 1269 1075 1269 1018 1330 c 0,58,59
 957 1396 957 1396 835 1396 c 0,60,61
 661 1396 661 1396 539 1251 c 0,62,63
 400 1086 400 1086 400 873 c 2,64,-1
 400 0 l 1,65,-1
 200 0 l 1,16,-1
EndSplineSet
Validated: 1
EndChar

StartChar: uni1E03
Encoding: 7683 7683 197
Width: 1325
Flags: W
HStem: -20 100<471.485 784.09> 1033 87<569.994 841.57> 1212 255<627.129 802.809> 1490 20G<200 380>
VStem: 200 180<181.688 1510> 589 252<1251.22 1428.81> 1024 201<390.158 839.171>
LayerCount: 2
Fore
SplineSet
715 1467 m 0,0,1
 767 1467 767 1467 804 1430 c 0,2,3
 841 1392 841 1392 841 1340 c 0,4,5
 841 1287 841 1287 804 1249 c 24,6,7
 766 1212 766 1212 715 1212 c 0,8,9
 662 1212 662 1212 626 1250 c 0,10,11
 589 1289 589 1289 589 1340 c 0,12,13
 589 1389 589 1389 626 1429 c 24,14,15
 661 1467 661 1467 715 1467 c 0,0,1
588 -20 m 0,16,17
 412 -20 412 -20 314 76 c 0,18,19
 200 188 200 188 200 389 c 2,20,-1
 200 1510 l 1,21,-1
 380 1510 l 1,22,-1
 380 389 l 2,23,24
 380 246 380 246 430 171 c 0,25,26
 492 80 492 80 606 80 c 0,27,28
 783 80 783 80 896 222 c 0,29,30
 1024 381 1024 381 1024 603 c 0,31,32
 1024 796 1024 796 943 899 c 0,33,34
 837 1033 837 1033 684 1033 c 0,35,36
 596 1033 596 1033 512 1009 c 1,37,-1
 504 1017 l 1,38,39
 584 1120 584 1120 728 1120 c 0,40,41
 953 1120 953 1120 1098 967 c 0,42,43
 1225 833 1225 833 1225 623 c 0,44,45
 1225 358 1225 358 1026 161 c 0,46,47
 843 -20 843 -20 588 -20 c 0,16,17
EndSplineSet
Validated: 1
EndChar

StartChar: uni1E0A
Encoding: 7690 7690 198
Width: 1736
Flags: W
HStem: -20 87<572.26 967.957> 0 21G<200 400> 1410 120<708.551 1130.37> 1490 20G<200 400> 1624 255<805.129 980.809>
VStem: 200 200<0 1094.59 1216 1510> 767 252<1663.22 1840.81> 1416 220<574.342 1089.87>
LayerCount: 2
Fore
SplineSet
893 1879 m 0,0,1
 945 1879 945 1879 982 1842 c 0,2,3
 1019 1804 1019 1804 1019 1752 c 0,4,5
 1019 1699 1019 1699 982 1661 c 24,6,7
 944 1624 944 1624 893 1624 c 0,8,9
 840 1624 840 1624 804 1662 c 0,10,11
 767 1701 767 1701 767 1752 c 0,12,13
 767 1801 767 1801 804 1841 c 24,14,15
 839 1879 839 1879 893 1879 c 0,0,1
200 0 m 1,16,-1
 200 1510 l 1,17,-1
 400 1510 l 1,18,-1
 400 1216 l 1,19,20
 486 1359 486 1359 620 1442 c 0,21,22
 761 1530 761 1530 948 1530 c 0,23,24
 1270 1530 1270 1530 1465 1325 c 0,25,26
 1636 1145 1636 1145 1636 862 c 0,27,28
 1636 466 1636 466 1352 204 c 0,29,30
 1109 -20 1109 -20 765 -20 c 0,31,32
 558 -20 558 -20 466 119 c 1,33,-1
 474 127 l 1,34,35
 582 67 582 67 726 67 c 0,36,37
 1023 67 1023 67 1215 280 c 0,38,39
 1416 503 1416 503 1416 839 c 0,40,41
 1416 1071 1416 1071 1294 1233 c 0,42,43
 1162 1410 1162 1410 913 1410 c 0,44,45
 699 1410 699 1410 549 1251 c 0,46,47
 400 1092 400 1092 400 873 c 2,48,-1
 400 0 l 1,49,-1
 200 0 l 1,16,-1
EndSplineSet
Validated: 1
EndChar

StartChar: uni1E0B
Encoding: 7691 7691 199
Width: 1391
Flags: W
HStem: -20 108<456.283 782.723> 0 21G<1011 1191> 1033 87<568.856 875.006> 1212 255<627.129 802.809> 1490 20G<1011 1191>
VStem: 100 201<264.213 709.842> 589 252<1251.22 1428.81> 1011 180<0 234 345.222 1510>
LayerCount: 2
Fore
SplineSet
715 1467 m 0,0,1
 767 1467 767 1467 804 1430 c 0,2,3
 841 1392 841 1392 841 1340 c 0,4,5
 841 1287 841 1287 804 1249 c 24,6,7
 766 1212 766 1212 715 1212 c 0,8,9
 662 1212 662 1212 626 1250 c 0,10,11
 589 1289 589 1289 589 1340 c 0,12,13
 589 1389 589 1389 626 1429 c 24,14,15
 661 1467 661 1467 715 1467 c 0,0,1
1191 0 m 1,16,-1
 1011 0 l 1,17,-1
 1011 234 l 1,18,19
 939 115 939 115 840 49 c 0,20,21
 738 -20 738 -20 597 -20 c 0,22,23
 372 -20 372 -20 227 133 c 0,24,25
 100 267 100 267 100 477 c 0,26,27
 100 742 100 742 299 939 c 0,28,29
 482 1120 482 1120 717 1120 c 0,30,31
 861 1120 861 1120 941 1017 c 1,32,-1
 933 1009 l 1,33,34
 849 1033 849 1033 761 1033 c 0,35,36
 554 1033 554 1033 429 878 c 0,37,38
 301 719 301 719 301 497 c 0,39,40
 301 308 301 308 382 201 c 0,41,42
 467 88 467 88 615 88 c 0,43,44
 755 88 755 88 857 188 c 0,45,46
 1011 340 1011 340 1011 559 c 2,47,-1
 1011 1510 l 1,48,-1
 1191 1510 l 1,49,-1
 1191 0 l 1,16,-1
EndSplineSet
Validated: 1
EndChar

StartChar: uni1E1E
Encoding: 7710 7710 200
Width: 1338
Flags: W
HStem: 0 21G<200 400> 696 120<400 970> 1396 134<704.255 1056.05> 1490 20G<200 400> 1624 255<705.129 880.809>
VStem: 200 200<0 696 816 1094.59 1216 1510> 667 252<1663.22 1840.81>
LayerCount: 2
Fore
SplineSet
793 1879 m 0,0,1
 845 1879 845 1879 882 1842 c 0,2,3
 919 1804 919 1804 919 1752 c 0,4,5
 919 1699 919 1699 882 1661 c 24,6,7
 844 1624 844 1624 793 1624 c 0,8,9
 740 1624 740 1624 704 1662 c 0,10,11
 667 1701 667 1701 667 1752 c 0,12,13
 667 1801 667 1801 704 1841 c 24,14,15
 739 1879 739 1879 793 1879 c 0,0,1
200 0 m 1,16,-1
 200 1510 l 1,17,-1
 400 1510 l 1,18,-1
 400 1216 l 1,19,20
 486 1359 486 1359 620 1442 c 0,21,22
 761 1530 761 1530 928 1530 c 0,23,24
 1146 1530 1146 1530 1268 1408 c 0,25,26
 1305 1371 1305 1371 1328 1321 c 1,27,-1
 1155 1217 l 1,28,29
 1138 1271 1138 1271 1104 1310 c 0,30,31
 1030 1396 1030 1396 891 1396 c 0,32,33
 685 1396 685 1396 549 1251 c 0,34,35
 400 1092 400 1092 400 873 c 2,36,-1
 400 816 l 1,37,-1
 970 816 l 1,38,-1
 970 696 l 1,39,-1
 400 696 l 1,40,-1
 400 0 l 1,41,-1
 200 0 l 1,16,-1
EndSplineSet
Validated: 1
EndChar

StartChar: uni1E1F
Encoding: 7711 7711 201
Width: 1099
Flags: W
HStem: 0 21G<200 380> 706 100<100 200 380 852> 1430 100<638.189 1023.12> 1624 255<490.129 665.809>
VStem: 200 180<0 706 806 1120.5> 452 252<1663.22 1840.81>
LayerCount: 2
Fore
SplineSet
200 0 m 1,0,-1
 200 706 l 1,1,-1
 100 706 l 1,2,-1
 100 806 l 1,3,-1
 200 806 l 1,4,-1
 200 887 l 2,5,6
 200 1152 200 1152 399 1349 c 0,7,8
 583 1530 583 1530 847 1530 c 0,9,10
 983 1530 983 1530 1089 1475 c 1,11,-1
 1008 1366 l 1,12,13
 931 1430 931 1430 829 1430 c 0,14,15
 640 1430 640 1430 519 1292 c 0,16,17
 380 1134 380 1134 380 806 c 1,18,-1
 852 806 l 1,19,-1
 852 706 l 1,20,-1
 380 706 l 1,21,-1
 380 0 l 1,22,-1
 200 0 l 1,0,-1
578 1879 m 0,23,24
 630 1879 630 1879 667 1842 c 0,25,26
 704 1804 704 1804 704 1752 c 0,27,28
 704 1699 704 1699 667 1661 c 24,29,30
 629 1624 629 1624 578 1624 c 0,31,32
 525 1624 525 1624 489 1662 c 0,33,34
 452 1701 452 1701 452 1752 c 0,35,36
 452 1801 452 1801 489 1841 c 24,37,38
 524 1879 524 1879 578 1879 c 0,23,24
EndSplineSet
Validated: 1
EndChar

StartChar: uni1E40
Encoding: 7744 7744 202
Width: 2472
Flags: W
HStem: 0 21G<200 400 1141 1341 2082 2282> 1396 134<691.312 1028.03 1632.31 1969.03> 1490 20G<200 400> 1624 255<1164.13 1339.81>
VStem: 200 200<0 1105.8 1216 1510> 1126 252<1663.22 1840.81> 1141 200<0 1105.8> 2082 200<0 1277>
LayerCount: 2
Fore
SplineSet
1252 1879 m 0,0,1
 1304 1879 1304 1879 1341 1842 c 0,2,3
 1378 1804 1378 1804 1378 1752 c 0,4,5
 1378 1699 1378 1699 1341 1661 c 24,6,7
 1303 1624 1303 1624 1252 1624 c 0,8,9
 1199 1624 1199 1624 1163 1662 c 0,10,11
 1126 1701 1126 1701 1126 1752 c 0,12,13
 1126 1801 1126 1801 1163 1841 c 24,14,15
 1198 1879 1198 1879 1252 1879 c 0,0,1
200 0 m 1,16,-1
 200 1510 l 1,17,-1
 400 1510 l 1,18,-1
 400 1216 l 1,19,20
 489 1364 489 1364 610 1442 c 0,21,22
 745 1530 745 1530 908 1530 c 0,23,24
 1122 1530 1122 1530 1238 1408 c 0,25,26
 1310 1332 1310 1332 1330 1221 c 1,27,28
 1425 1360 1425 1360 1551 1442 c 0,29,30
 1686 1530 1686 1530 1849 1530 c 0,31,32
 2063 1530 2063 1530 2179 1408 c 0,33,34
 2282 1300 2282 1300 2282 1100 c 2,35,-1
 2282 0 l 1,36,-1
 2082 0 l 1,37,-1
 2082 1098 l 2,38,39
 2082 1229 2082 1229 2015 1310 c 0,40,41
 1945 1396 1945 1396 1812 1396 c 0,42,43
 1616 1396 1616 1396 1480 1251 c 0,44,45
 1341 1103 1341 1103 1341 873 c 2,46,-1
 1341 0 l 1,47,-1
 1141 0 l 1,48,-1
 1141 1098 l 2,49,50
 1141 1229 1141 1229 1074 1310 c 0,51,52
 1004 1396 1004 1396 871 1396 c 0,53,54
 675 1396 675 1396 539 1251 c 0,55,56
 400 1103 400 1103 400 873 c 2,57,-1
 400 0 l 1,58,-1
 200 0 l 1,16,-1
EndSplineSet
Validated: 1
EndChar

StartChar: uni1E41
Encoding: 7745 7745 203
Width: 2084
Flags: W
HStem: 0 21G<200 380 952 1132 1704 1884> 1000 120<606.175 885.852 1358.18 1637.85> 1080 20G<200 380> 1212 255<966.129 1141.81>
VStem: 200 180<0 762.395 866 1100> 928 252<1251.22 1428.81> 952 180<0 762.395> 1704 180<0 931.121>
LayerCount: 2
Fore
SplineSet
1054 1467 m 0,0,1
 1106 1467 1106 1467 1143 1430 c 0,2,3
 1180 1392 1180 1392 1180 1340 c 0,4,5
 1180 1287 1180 1287 1143 1249 c 24,6,7
 1105 1212 1105 1212 1054 1212 c 0,8,9
 1001 1212 1001 1212 965 1250 c 0,10,11
 928 1289 928 1289 928 1340 c 0,12,13
 928 1389 928 1389 965 1429 c 24,14,15
 1000 1467 1000 1467 1054 1467 c 0,0,1
200 0 m 1,16,-1
 200 1100 l 1,17,-1
 380 1100 l 1,18,-1
 380 866 l 1,19,20
 464 988 464 988 561 1051 c 0,21,22
 669 1120 669 1120 809 1120 c 0,23,24
 951 1120 951 1120 1041 1028 c 0,25,26
 1101 967 1101 967 1122 870 c 1,27,28
 1191 974 1191 974 1313 1051 c 0,29,30
 1421 1120 1421 1120 1561 1120 c 0,31,32
 1703 1120 1703 1120 1793 1028 c 0,33,34
 1884 935 1884 935 1884 761 c 2,35,-1
 1884 0 l 1,36,-1
 1704 0 l 1,37,-1
 1704 761 l 2,38,39
 1704 869 1704 869 1661 931 c 0,40,41
 1613 1000 1613 1000 1503 1000 c 0,42,43
 1361 1000 1361 1000 1254 883 c 0,44,45
 1132 750 1132 750 1132 541 c 2,46,-1
 1132 0 l 1,47,-1
 952 0 l 1,48,-1
 952 761 l 2,49,50
 952 869 952 869 909 931 c 0,51,52
 861 1000 861 1000 751 1000 c 0,53,54
 609 1000 609 1000 502 883 c 0,55,56
 380 750 380 750 380 541 c 2,57,-1
 380 0 l 1,58,-1
 200 0 l 1,16,-1
EndSplineSet
Validated: 1
EndChar

StartChar: uni1E56
Encoding: 7766 7766 204
Width: 1535
Flags: W
HStem: 0 21G<200 400> 360 87<576.093 940.797> 1396 134<693.821 1048.68> 1490 20G<200 400> 1624 255<754.129 929.809>
VStem: 200 200<0 1105.8 1216 1510> 716 252<1663.22 1840.81> 1214 221<775.333 1228.17>
LayerCount: 2
Fore
SplineSet
842 1879 m 0,0,1
 894 1879 894 1879 931 1842 c 0,2,3
 968 1804 968 1804 968 1752 c 0,4,5
 968 1699 968 1699 931 1661 c 24,6,7
 893 1624 893 1624 842 1624 c 0,8,9
 789 1624 789 1624 753 1662 c 0,10,11
 716 1701 716 1701 716 1752 c 0,12,13
 716 1801 716 1801 753 1841 c 24,14,15
 788 1879 788 1879 842 1879 c 0,0,1
200 0 m 1,16,-1
 200 1510 l 1,17,-1
 400 1510 l 1,18,-1
 400 1216 l 1,19,20
 489 1364 489 1364 610 1442 c 0,21,22
 745 1530 745 1530 924 1530 c 0,23,24
 1148 1530 1148 1530 1284 1402 c 0,25,26
 1435 1260 1435 1260 1435 1032 c 0,27,28
 1435 702 1435 702 1191 499 c 0,29,30
 1025 360 1025 360 785 360 c 0,31,32
 558 360 558 360 466 499 c 1,33,-1
 474 507 l 1,34,35
 582 447 582 447 746 447 c 0,36,37
 942 447 942 447 1071 588 c 0,38,39
 1214 746 1214 746 1214 1018 c 0,40,41
 1214 1191 1214 1191 1131 1285 c 256,42,43
 1034 1396 1034 1396 865 1396 c 0,44,45
 675 1396 675 1396 539 1251 c 0,46,47
 400 1103 400 1103 400 873 c 2,48,-1
 400 0 l 1,49,-1
 200 0 l 1,16,-1
EndSplineSet
Validated: 1
EndChar

StartChar: uni1E57
Encoding: 7767 7767 205
Width: 1391
Flags: W
HStem: -410 21G<200 380> -20 87<515.994 822.144> 1012 108<608.277 934.717> 1080 20G<200 380> 1212 255<627.129 802.809>
VStem: 200 180<-410 754.778 866 1100> 589 252<1251.22 1428.81> 1090 201<390.158 835.787>
LayerCount: 2
Fore
SplineSet
715 1467 m 0,0,1
 767 1467 767 1467 804 1430 c 0,2,3
 841 1392 841 1392 841 1340 c 0,4,5
 841 1287 841 1287 804 1249 c 24,6,7
 766 1212 766 1212 715 1212 c 0,8,9
 662 1212 662 1212 626 1250 c 0,10,11
 589 1289 589 1289 589 1340 c 0,12,13
 589 1389 589 1389 626 1429 c 24,14,15
 661 1467 661 1467 715 1467 c 0,0,1
200 1100 m 1,16,-1
 380 1100 l 1,17,-1
 380 866 l 1,18,19
 452 985 452 985 551 1051 c 0,20,21
 653 1120 653 1120 794 1120 c 0,22,23
 1019 1120 1019 1120 1164 967 c 0,24,25
 1291 833 1291 833 1291 623 c 0,26,27
 1291 358 1291 358 1092 161 c 0,28,29
 909 -20 909 -20 674 -20 c 0,30,31
 530 -20 530 -20 450 83 c 1,32,-1
 458 91 l 1,33,34
 542 67 542 67 630 67 c 0,35,36
 837 67 837 67 962 222 c 0,37,38
 1090 381 1090 381 1090 603 c 0,39,40
 1090 792 1090 792 1009 899 c 0,41,42
 924 1012 924 1012 776 1012 c 0,43,44
 636 1012 636 1012 534 912 c 0,45,46
 380 760 380 760 380 541 c 2,47,-1
 380 -410 l 1,48,-1
 200 -410 l 1,49,-1
 200 1100 l 1,16,-1
EndSplineSet
Validated: 1
EndChar

StartChar: uni1E60
Encoding: 7776 7776 206
Width: 1284
Flags: W
HStem: -20 120<434.079 810.18> 1410 120<560.275 863.921> 1624 255<598.129 773.809>
VStem: 281 188<1082.85 1319.8> 560 252<1663.22 1840.81> 980 204<292.665 582.496>
DStem2: 612 1009 515 818 0.898384 -0.43921<-156.308 506.831>
LayerCount: 2
Fore
SplineSet
617 -20 m 0,0,1
 309 -20 309 -20 100 206 c 1,2,-1
 257 293 l 1,3,4
 401 100 401 100 630 100 c 0,5,6
 824 100 824 100 919 248 c 0,7,8
 980 343 980 343 980 454 c 0,9,10
 980 591 980 591 830 664 c 2,11,-1
 515 818 l 2,12,13
 281 932 281 932 281 1149 c 0,14,15
 281 1316 281 1316 422 1430 c 0,16,17
 546 1530 546 1530 712 1530 c 0,18,19
 922 1530 922 1530 1074 1391 c 1,20,-1
 938 1290 l 1,21,22
 858 1410 858 1410 719 1410 c 0,23,24
 602 1410 602 1410 535 1346 c 0,25,26
 469 1283 469 1283 469 1198 c 0,27,28
 469 1078 469 1078 612 1009 c 2,29,-1
 905 867 l 2,30,31
 1184 732 1184 732 1184 495 c 0,32,33
 1184 313 1184 313 1057 168 c 0,34,35
 892 -20 892 -20 617 -20 c 0,0,1
686 1879 m 0,36,37
 738 1879 738 1879 775 1842 c 0,38,39
 812 1804 812 1804 812 1752 c 0,40,41
 812 1699 812 1699 775 1661 c 24,42,43
 737 1624 737 1624 686 1624 c 0,44,45
 633 1624 633 1624 597 1662 c 0,46,47
 560 1701 560 1701 560 1752 c 0,48,49
 560 1801 560 1801 597 1841 c 24,50,51
 632 1879 632 1879 686 1879 c 0,36,37
EndSplineSet
Validated: 1
EndChar

StartChar: uni1E61
Encoding: 7777 7777 207
Width: 1020
Flags: W
HStem: -20 100<321.494 654.616> 1020 100<440.182 692.608> 1212 255<447.129 622.809>
VStem: 229 160<781.82 967.351> 409 252<1251.22 1428.81> 753 167<182.083 420.562>
DStem2: 485 747 411 575 0.901816 -0.43212<-119.941 395.687>
LayerCount: 2
Fore
SplineSet
490 -20 m 0,0,1
 250 -20 250 -20 100 154 c 1,2,-1
 224 222 l 1,3,4
 319 80 319 80 483 80 c 0,5,6
 623 80 623 80 692 156 c 0,7,8
 753 223 753 223 753 316 c 0,9,10
 753 411 753 411 651 460 c 2,11,-1
 411 575 l 2,12,13
 229 662 229 662 229 816 c 0,14,15
 229 953 229 953 340 1041 c 0,16,17
 439 1120 439 1120 572 1120 c 0,18,19
 729 1120 729 1120 837 1014 c 1,20,-1
 728 933 l 1,21,22
 673 1020 673 1020 576 1020 c 0,23,24
 482 1020 482 1020 432 968 c 0,25,26
 389 923 389 923 389 870 c 0,27,28
 389 793 389 793 485 747 c 2,29,-1
 719 635 l 2,30,31
 920 539 920 539 920 354 c 0,32,33
 920 181 920 181 771 66 c 0,34,35
 659 -20 659 -20 490 -20 c 0,0,1
535 1467 m 0,36,37
 587 1467 587 1467 624 1430 c 0,38,39
 661 1392 661 1392 661 1340 c 0,40,41
 661 1287 661 1287 624 1249 c 24,42,43
 586 1212 586 1212 535 1212 c 0,44,45
 482 1212 482 1212 446 1250 c 0,46,47
 409 1289 409 1289 409 1340 c 0,48,49
 409 1389 409 1389 446 1429 c 24,50,51
 481 1467 481 1467 535 1467 c 0,36,37
EndSplineSet
Validated: 1
EndChar

StartChar: uni1E6A
Encoding: 7786 7786 208
Width: 1160
Flags: W
HStem: 0 21G<480 680> 1390 120<20 480 680 1140> 1624 255<495.129 670.809>
VStem: 457 252<1663.22 1840.81> 480 200<0 1390>
LayerCount: 2
Fore
SplineSet
583 1879 m 0,0,1
 635 1879 635 1879 672 1842 c 0,2,3
 709 1804 709 1804 709 1752 c 0,4,5
 709 1699 709 1699 672 1661 c 24,6,7
 634 1624 634 1624 583 1624 c 0,8,9
 530 1624 530 1624 494 1662 c 0,10,11
 457 1701 457 1701 457 1752 c 0,12,13
 457 1801 457 1801 494 1841 c 24,14,15
 529 1879 529 1879 583 1879 c 0,0,1
480 0 m 1,16,-1
 480 1390 l 1,17,-1
 20 1390 l 1,18,-1
 20 1510 l 1,19,-1
 1140 1510 l 1,20,-1
 1140 1390 l 1,21,-1
 680 1390 l 1,22,-1
 680 0 l 1,23,-1
 480 0 l 1,16,-1
EndSplineSet
Validated: 1
EndChar

StartChar: uni1E6B
Encoding: 7787 7787 209
Width: 700
Flags: W
HStem: -20 100<408.477 540> 1000 100<60 200 380 680> 1490 20G<200 380> 1624 255<202.129 377.809>
VStem: 164 252<1663.22 1840.81> 200 180<110.266 1000 1100 1510>
LayerCount: 2
Fore
SplineSet
290 1879 m 0,0,1
 342 1879 342 1879 379 1842 c 0,2,3
 416 1804 416 1804 416 1752 c 0,4,5
 416 1699 416 1699 379 1661 c 24,6,7
 341 1624 341 1624 290 1624 c 0,8,9
 237 1624 237 1624 201 1662 c 0,10,11
 164 1701 164 1701 164 1752 c 0,12,13
 164 1801 164 1801 201 1841 c 24,14,15
 236 1879 236 1879 290 1879 c 0,0,1
540 -20 m 1,16,17
 200 -20 200 -20 200 209 c 2,18,-1
 200 1000 l 1,19,-1
 60 1000 l 1,20,-1
 60 1100 l 1,21,-1
 200 1100 l 1,22,-1
 200 1510 l 1,23,-1
 380 1510 l 1,24,-1
 380 1100 l 1,25,-1
 680 1100 l 1,26,-1
 680 1000 l 1,27,-1
 380 1000 l 1,28,-1
 380 209 l 2,29,30
 380 80 380 80 540 80 c 1,31,-1
 540 -20 l 1,16,17
EndSplineSet
Validated: 1
EndChar

StartChar: Wgrave
Encoding: 7808 7808 210
Width: 2415
Flags: W
HStem: -20 134<512.967 849.688 1421.94 1749.56> 1490 20G<200 400 1141 1341 1771 2096>
VStem: 200 200<233 1510> 1141 200<404.195 1510> 2135 180<572.85 1092.74>
LayerCount: 2
Fore
SplineSet
633 -20 m 0,0,1
 419 -20 419 -20 303 102 c 0,2,3
 200 210 200 210 200 410 c 2,4,-1
 200 1510 l 1,5,-1
 400 1510 l 1,6,-1
 400 412 l 2,7,8
 400 281 400 281 467 200 c 0,9,10
 537 114 537 114 670 114 c 0,11,12
 866 114 866 114 1002 259 c 0,13,14
 1141 407 1141 407 1141 637 c 2,15,-1
 1141 1510 l 1,16,-1
 1341 1510 l 1,17,-1
 1341 412 l 2,18,19
 1341 266 1341 266 1383 202 c 0,20,21
 1441 114 1441 114 1556 114 c 0,22,23
 1796 114 1796 114 1951 295 c 0,24,25
 2135 510 2135 510 2135 838 c 0,26,27
 2135 1053 2135 1053 2020 1234 c 0,28,29
 1927 1380 1927 1380 1771 1510 c 1,30,-1
 2043 1510 l 1,31,32
 2149 1418 2149 1418 2221 1280 c 0,33,34
 2315 1100 2315 1100 2315 862 c 0,35,36
 2315 466 2315 466 2031 204 c 0,37,38
 1788 -20 1788 -20 1519 -20 c 0,39,40
 1295 -20 1295 -20 1206 129 c 0,41,42
 1165 198 1165 198 1152 289 c 1,43,44
 1057 150 1057 150 931 68 c 0,45,46
 796 -20 796 -20 633 -20 c 0,0,1
1155 1940 m 1,47,-1
 1329 1637 l 1,48,-1
 1234 1570 l 1,49,-1
 1011 1838 l 1,50,-1
 1155 1940 l 1,47,-1
EndSplineSet
Validated: 19457
EndChar

StartChar: wgrave
Encoding: 7809 7809 211
Width: 1992
Flags: W
HStem: -20 120<446.148 725.825 1198.41 1490.84> 1080 20G<200 380 952 1132 1462 1740.5> 1510 20G<931.765 971.485>
VStem: 200 180<168.879 1100> 952 180<337.605 1100> 1735 157<388.967 822.527>
LayerCount: 2
Fore
SplineSet
523 -20 m 0,0,1
 381 -20 381 -20 291 72 c 0,2,3
 200 165 200 165 200 339 c 2,4,-1
 200 1100 l 1,5,-1
 380 1100 l 1,6,-1
 380 339 l 2,7,8
 380 231 380 231 423 169 c 0,9,10
 471 100 471 100 581 100 c 0,11,12
 723 100 723 100 830 217 c 0,13,14
 952 350 952 350 952 559 c 2,15,-1
 952 1100 l 1,16,-1
 1132 1100 l 1,17,-1
 1132 339 l 2,18,19
 1132 231 1132 231 1175 169 c 0,20,21
 1223 100 1223 100 1338 100 c 0,22,23
 1512 100 1512 100 1625 254 c 0,24,25
 1735 404 1735 404 1735 601 c 0,26,27
 1735 759 1735 759 1657 889 c 0,28,29
 1587 1004 1587 1004 1462 1100 c 1,30,-1
 1697 1100 l 1,31,32
 1784 1023 1784 1023 1837 903 c 0,33,34
 1892 780 1892 780 1892 623 c 0,35,36
 1892 357 1892 357 1693 161 c 0,37,38
 1509 -20 1509 -20 1273 -20 c 0,39,40
 1116 -20 1116 -20 1040 71 c 0,41,42
 983 139 983 139 962 230 c 1,43,44
 893 126 893 126 771 49 c 0,45,46
 663 -20 663 -20 523 -20 c 0,0,1
960 1530 m 1,47,-1
 1134 1227 l 1,48,-1
 1039 1160 l 1,49,-1
 816 1428 l 1,50,-1
 960 1530 l 1,47,-1
EndSplineSet
Validated: 19457
EndChar

StartChar: Wacute
Encoding: 7810 7810 212
Width: 2415
Flags: W
HStem: -20 134<512.967 849.688 1421.94 1749.56> 1490 20G<200 400 1141 1341 1771 2096>
VStem: 200 200<233 1510> 1141 200<404.195 1510> 2135 180<572.85 1092.74>
LayerCount: 2
Fore
SplineSet
633 -20 m 0,0,1
 419 -20 419 -20 303 102 c 0,2,3
 200 210 200 210 200 410 c 2,4,-1
 200 1510 l 1,5,-1
 400 1510 l 1,6,-1
 400 412 l 2,7,8
 400 281 400 281 467 200 c 0,9,10
 537 114 537 114 670 114 c 0,11,12
 866 114 866 114 1002 259 c 0,13,14
 1141 407 1141 407 1141 637 c 2,15,-1
 1141 1510 l 1,16,-1
 1341 1510 l 1,17,-1
 1341 412 l 2,18,19
 1341 266 1341 266 1383 202 c 0,20,21
 1441 114 1441 114 1556 114 c 0,22,23
 1796 114 1796 114 1951 295 c 0,24,25
 2135 510 2135 510 2135 838 c 0,26,27
 2135 1053 2135 1053 2020 1234 c 0,28,29
 1927 1380 1927 1380 1771 1510 c 1,30,-1
 2043 1510 l 1,31,32
 2149 1418 2149 1418 2221 1280 c 0,33,34
 2315 1100 2315 1100 2315 862 c 0,35,36
 2315 466 2315 466 2031 204 c 0,37,38
 1788 -20 1788 -20 1519 -20 c 0,39,40
 1295 -20 1295 -20 1206 129 c 0,41,42
 1165 198 1165 198 1152 289 c 1,43,44
 1057 150 1057 150 931 68 c 0,45,46
 796 -20 796 -20 633 -20 c 0,0,1
1324 1940 m 1,47,-1
 1468 1838 l 1,48,-1
 1245 1570 l 1,49,-1
 1150 1637 l 1,50,-1
 1324 1940 l 1,47,-1
EndSplineSet
Validated: 19457
EndChar

StartChar: wacute
Encoding: 7811 7811 213
Width: 1992
Flags: W
HStem: -20 120<446.148 725.825 1198.41 1490.84> 1080 20G<200 380 952 1132 1462 1740.5> 1510 20G<1109.51 1149.24>
VStem: 200 180<168.879 1100> 952 180<337.605 1100> 1735 157<388.967 822.527>
LayerCount: 2
Fore
SplineSet
523 -20 m 0,0,1
 381 -20 381 -20 291 72 c 0,2,3
 200 165 200 165 200 339 c 2,4,-1
 200 1100 l 1,5,-1
 380 1100 l 1,6,-1
 380 339 l 2,7,8
 380 231 380 231 423 169 c 0,9,10
 471 100 471 100 581 100 c 0,11,12
 723 100 723 100 830 217 c 0,13,14
 952 350 952 350 952 559 c 2,15,-1
 952 1100 l 1,16,-1
 1132 1100 l 1,17,-1
 1132 339 l 2,18,19
 1132 231 1132 231 1175 169 c 0,20,21
 1223 100 1223 100 1338 100 c 0,22,23
 1512 100 1512 100 1625 254 c 0,24,25
 1735 404 1735 404 1735 601 c 0,26,27
 1735 759 1735 759 1657 889 c 0,28,29
 1587 1004 1587 1004 1462 1100 c 1,30,-1
 1697 1100 l 1,31,32
 1784 1023 1784 1023 1837 903 c 0,33,34
 1892 780 1892 780 1892 623 c 0,35,36
 1892 357 1892 357 1693 161 c 0,37,38
 1509 -20 1509 -20 1273 -20 c 0,39,40
 1116 -20 1116 -20 1040 71 c 0,41,42
 983 139 983 139 962 230 c 1,43,44
 893 126 893 126 771 49 c 0,45,46
 663 -20 663 -20 523 -20 c 0,0,1
1121 1530 m 1,47,-1
 1265 1428 l 1,48,-1
 1042 1160 l 1,49,-1
 947 1227 l 1,50,-1
 1121 1530 l 1,47,-1
EndSplineSet
Validated: 19457
EndChar

StartChar: Wdieresis
Encoding: 7812 7812 214
Width: 2415
Flags: W
HStem: -20 134<512.967 849.688 1421.94 1749.56> 1490 20G<200 400 1141 1341 1771 2096> 1643 217<1040.91 1191.51 1302.91 1464.88>
VStem: 200 200<233 1510> 1010 214<1676.52 1826.94> 1141 200<404.195 1510> 1272 214<1676.52 1826.94> 2135 180<572.85 1092.74>
LayerCount: 2
Fore
SplineSet
633 -20 m 0,0,1
 419 -20 419 -20 303 102 c 0,2,3
 200 210 200 210 200 410 c 2,4,-1
 200 1510 l 1,5,-1
 400 1510 l 1,6,-1
 400 412 l 2,7,8
 400 281 400 281 467 200 c 0,9,10
 537 114 537 114 670 114 c 0,11,12
 866 114 866 114 1002 259 c 0,13,14
 1141 407 1141 407 1141 637 c 2,15,-1
 1141 1510 l 1,16,-1
 1341 1510 l 1,17,-1
 1341 412 l 2,18,19
 1341 266 1341 266 1383 202 c 0,20,21
 1441 114 1441 114 1556 114 c 0,22,23
 1796 114 1796 114 1951 295 c 0,24,25
 2135 510 2135 510 2135 838 c 0,26,27
 2135 1053 2135 1053 2020 1234 c 0,28,29
 1927 1380 1927 1380 1771 1510 c 1,30,-1
 2043 1510 l 1,31,32
 2149 1418 2149 1418 2221 1280 c 0,33,34
 2315 1100 2315 1100 2315 862 c 0,35,36
 2315 466 2315 466 2031 204 c 0,37,38
 1788 -20 1788 -20 1519 -20 c 0,39,40
 1295 -20 1295 -20 1206 129 c 0,41,42
 1165 198 1165 198 1152 289 c 1,43,44
 1057 150 1057 150 931 68 c 0,45,46
 796 -20 796 -20 633 -20 c 0,0,1
1378 1860 m 0,47,48
 1421 1860 1421 1860 1453.5 1828.5 c 128,-1,49
 1486 1797 1486 1797 1486 1753 c 0,50,51
 1486 1706 1486 1706 1454 1675 c 0,52,53
 1422 1643 1422 1643 1378 1643 c 0,54,55
 1331 1643 1331 1643 1301.5 1675.5 c 128,-1,56
 1272 1708 1272 1708 1272 1752 c 0,57,58
 1272 1794 1272 1794 1302 1828 c 24,59,60
 1331 1860 1331 1860 1378 1860 c 0,47,48
1116 1860 m 0,61,62
 1159 1860 1159 1860 1191.5 1828.5 c 128,-1,63
 1224 1797 1224 1797 1224 1753 c 0,64,65
 1224 1708 1224 1708 1192.5 1675.5 c 128,-1,66
 1161 1643 1161 1643 1116 1643 c 0,67,68
 1068 1643 1068 1643 1040 1675 c 0,69,70
 1010 1709 1010 1709 1010 1752 c 0,71,72
 1010 1794 1010 1794 1040 1828 c 0,73,74
 1069 1860 1069 1860 1116 1860 c 0,61,62
EndSplineSet
Validated: 19457
EndChar

StartChar: wdieresis
Encoding: 7813 7813 215
Width: 1992
Flags: W
HStem: -20 120<446.148 725.825 1198.41 1490.84> 1080 20G<200 380 952 1132 1462 1740.5> 1233 217<841.911 992.512 1103.91 1265.88>
VStem: 200 180<168.879 1100> 811 214<1266.52 1416.94> 952 180<337.605 1100> 1073 214<1266.52 1416.94> 1735 157<388.967 822.527>
LayerCount: 2
Fore
SplineSet
523 -20 m 0,0,1
 381 -20 381 -20 291 72 c 0,2,3
 200 165 200 165 200 339 c 2,4,-1
 200 1100 l 1,5,-1
 380 1100 l 1,6,-1
 380 339 l 2,7,8
 380 231 380 231 423 169 c 0,9,10
 471 100 471 100 581 100 c 0,11,12
 723 100 723 100 830 217 c 0,13,14
 952 350 952 350 952 559 c 2,15,-1
 952 1100 l 1,16,-1
 1132 1100 l 1,17,-1
 1132 339 l 2,18,19
 1132 231 1132 231 1175 169 c 0,20,21
 1223 100 1223 100 1338 100 c 0,22,23
 1512 100 1512 100 1625 254 c 0,24,25
 1735 404 1735 404 1735 601 c 0,26,27
 1735 759 1735 759 1657 889 c 0,28,29
 1587 1004 1587 1004 1462 1100 c 1,30,-1
 1697 1100 l 1,31,32
 1784 1023 1784 1023 1837 903 c 0,33,34
 1892 780 1892 780 1892 623 c 0,35,36
 1892 357 1892 357 1693 161 c 0,37,38
 1509 -20 1509 -20 1273 -20 c 0,39,40
 1116 -20 1116 -20 1040 71 c 0,41,42
 983 139 983 139 962 230 c 1,43,44
 893 126 893 126 771 49 c 0,45,46
 663 -20 663 -20 523 -20 c 0,0,1
1179 1450 m 0,47,48
 1222 1450 1222 1450 1254.5 1418.5 c 128,-1,49
 1287 1387 1287 1387 1287 1343 c 0,50,51
 1287 1296 1287 1296 1255 1265 c 0,52,53
 1223 1233 1223 1233 1179 1233 c 0,54,55
 1132 1233 1132 1233 1102.5 1265.5 c 128,-1,56
 1073 1298 1073 1298 1073 1342 c 0,57,58
 1073 1384 1073 1384 1103 1418 c 24,59,60
 1132 1450 1132 1450 1179 1450 c 0,47,48
917 1450 m 0,61,62
 960 1450 960 1450 992.5 1418.5 c 128,-1,63
 1025 1387 1025 1387 1025 1343 c 0,64,65
 1025 1298 1025 1298 993.5 1265.5 c 128,-1,66
 962 1233 962 1233 917 1233 c 0,67,68
 869 1233 869 1233 841 1265 c 0,69,70
 811 1299 811 1299 811 1342 c 0,71,72
 811 1384 811 1384 841 1418 c 0,73,74
 870 1450 870 1450 917 1450 c 0,61,62
EndSplineSet
Validated: 19457
EndChar

StartChar: Ygrave
Encoding: 7922 7922 216
Width: 1372
Flags: W
HStem: 0 21G<573 773> 1490 20G<5 239.285 1221.15 1367>
VStem: 573 200<0 416>
DStem2: 229 1510 5 1510 0.460791 -0.887509<0 1067.11> 717 561 773 416 0.477163 0.878815<0 1079.73>
LayerCount: 2
Fore
SplineSet
630 1940 m 1,0,-1
 804 1637 l 1,1,-1
 709 1570 l 1,2,-1
 486 1838 l 1,3,-1
 630 1940 l 1,0,-1
573 0 m 1,4,-1
 573 416 l 1,5,-1
 5 1510 l 1,6,-1
 229 1510 l 1,7,-1
 717 561 l 1,8,-1
 1232 1510 l 1,9,-1
 1367 1510 l 1,10,-1
 773 416 l 1,11,-1
 773 0 l 1,12,-1
 573 0 l 1,4,-1
EndSplineSet
Validated: 1
EndChar

StartChar: ygrave
Encoding: 7923 7923 217
Width: 1362
Flags: W
HStem: -430 100<338.877 723.811> -20 120<448.95 744.547> 1080 20G<200 380 982 1162> 1510 20G<561.765 601.485>
VStem: 200 180<173.211 1100> 982 180<-20.2031 234 343.233 1100>
LayerCount: 2
Fore
SplineSet
590 1530 m 1,0,-1
 764 1227 l 1,1,-1
 669 1160 l 1,2,-1
 446 1428 l 1,3,-1
 590 1530 l 1,0,-1
528 -20 m 0,4,5
 389 -20 389 -20 294 73 c 0,6,7
 200 165 200 165 200 339 c 2,8,-1
 200 1100 l 1,9,-1
 380 1100 l 1,10,-1
 380 339 l 2,11,12
 380 231 380 231 425 170 c 0,13,14
 478 100 478 100 580 100 c 0,15,16
 735 100 735 100 850 217 c 0,17,18
 982 351 982 351 982 559 c 2,19,-1
 982 1100 l 1,20,-1
 1162 1100 l 1,21,-1
 1162 213 l 2,22,23
 1162 -52 1162 -52 963 -249 c 0,24,25
 779 -430 779 -430 515 -430 c 0,26,27
 379 -430 379 -430 273 -375 c 1,28,-1
 354 -266 l 1,29,30
 431 -330 431 -330 533 -330 c 0,31,32
 722 -330 722 -330 843 -192 c 0,33,34
 981 -35 981 -35 982 234 c 1,35,36
 901 116 901 116 791 49 c 0,37,38
 677 -20 677 -20 528 -20 c 0,4,5
EndSplineSet
Validated: 1
EndChar

StartChar: circumflex
Encoding: 710 710 218
Width: 656
Flags: W
HStem: 1160 370
VStem: 50 556
LayerCount: 2
Fore
SplineSet
328 1530 m 1,0,-1
 606 1229 l 1,1,-1
 480 1160 l 1,2,-1
 327 1365 l 1,3,-1
 175 1160 l 1,4,-1
 50 1229 l 1,5,-1
 328 1530 l 1,0,-1
EndSplineSet
Validated: 1
EndChar

StartChar: caron
Encoding: 711 711 219
Width: 656
Flags: W
HStem: 1160 370
VStem: 50 556
LayerCount: 2
Fore
SplineSet
176 1530 m 1,0,-1
 329 1325 l 1,1,-1
 481 1530 l 1,2,-1
 606 1461 l 1,3,-1
 328 1160 l 1,4,-1
 50 1461 l 1,5,-1
 176 1530 l 1,0,-1
EndSplineSet
Validated: 1
EndChar

StartChar: uni02C9
Encoding: 713 713 220
Width: 620
Flags: W
HStem: 1280 120<50 570>
VStem: 50 520<1280 1400>
LayerCount: 2
Fore
SplineSet
50 1400 m 1,0,-1
 570 1400 l 1,1,-1
 570 1280 l 1,2,-1
 50 1280 l 1,3,-1
 50 1400 l 1,0,-1
EndSplineSet
Validated: 1
EndChar

StartChar: breve
Encoding: 728 728 221
Width: 620
Flags: W
HStem: 1220 120<128.291 494.845> 1295 142<50 192>
VStem: 50 520<1269.51 1340>
LayerCount: 2
Fore
SplineSet
50 1437 m 1,0,1
 165 1340 165 1340 313.5 1340 c 128,-1,2
 462 1340 462 1340 570 1437 c 17,3,-1
 570 1295 l 1,4,5
 462 1220 462 1220 315 1220 c 0,6,7
 144 1220 144 1220 50 1295 c 1,8,-1
 50 1437 l 1,0,1
EndSplineSet
Validated: 1
EndChar

StartChar: ring
Encoding: 730 730 222
Width: 464
Flags: W
HStem: 1160 92<161.054 302.946> 1438 92<161.054 302.946>
VStem: 50 91<1272.75 1417.25> 323 91<1272.75 1417.25>
LayerCount: 2
Fore
SplineSet
232 1438 m 128,-1,1
 194 1438 194 1438 167.5 1411 c 128,-1,2
 141 1384 141 1384 141 1345 c 128,-1,3
 141 1306 141 1306 167.5 1279 c 128,-1,4
 194 1252 194 1252 232 1252 c 128,-1,5
 270 1252 270 1252 296.5 1279 c 128,-1,6
 323 1306 323 1306 323 1345 c 128,-1,7
 323 1384 323 1384 296.5 1411 c 128,-1,0
 270 1438 270 1438 232 1438 c 128,-1,1
232 1530 m 128,-1,9
 308 1530 308 1530 361 1476 c 128,-1,10
 414 1422 414 1422 414 1345 c 128,-1,11
 414 1268 414 1268 361 1214 c 128,-1,12
 308 1160 308 1160 232 1160 c 128,-1,13
 156 1160 156 1160 103 1214 c 128,-1,14
 50 1268 50 1268 50 1345 c 128,-1,15
 50 1422 50 1422 103 1476 c 128,-1,8
 156 1530 156 1530 232 1530 c 128,-1,9
EndSplineSet
Validated: 1
EndChar

StartChar: tilde
Encoding: 732 732 223
Width: 620
Flags: W
HStem: 1220 120<329.772 545.654> 1314 120<74.3457 290.228>
VStem: 50 520
LayerCount: 2
Fore
SplineSet
190 1434 m 0,0,1
 255 1434 255 1434 326 1387 c 128,-1,2
 397 1340 397 1340 450 1340 c 0,3,4
 529 1340 529 1340 570 1422 c 1,5,-1
 570 1283 l 1,6,7
 513 1220 513 1220 430 1220 c 0,8,9
 365 1220 365 1220 294 1267 c 128,-1,10
 223 1314 223 1314 170 1314 c 0,11,12
 91 1314 91 1314 50 1232 c 1,13,-1
 50 1371 l 1,14,15
 107 1434 107 1434 190 1434 c 0,0,1
EndSplineSet
Validated: 1
EndChar

StartChar: uni1E9E
Encoding: 7838 7838 224
Width: 1499
Flags: W
HStem: -20 87<572.26 950.756> 0 21G<200 400> 798 80<911 1003.21> 1396 134<693.345 991.628> 1490 20G<200 400>
VStem: 200 200<0 1097.44 1216 1510> 804 107<878 1007.91> 1187 212<305.294 646.273>
LayerCount: 2
Fore
SplineSet
200 0 m 1,0,-1
 200 1510 l 1,1,-1
 400 1510 l 1,2,-1
 400 1216 l 1,3,4
 473 1353 473 1353 610 1441.5 c 128,-1,5
 747 1530 747 1530 914 1530 c 0,6,7
 1067 1530 1067 1530 1162 1439 c 0,8,9
 1262 1343 1262 1343 1262 1202 c 1,10,11
 911 1083 911 1083 911 878 c 1,12,13
 1134 878 1134 878 1276 760 c 0,14,15
 1399 658 1399 658 1399 494 c 0,16,17
 1399 329 1399 329 1281 199 c 0,18,19
 1082 -20 1082 -20 765 -20 c 0,20,21
 558 -20 558 -20 466 119 c 1,22,-1
 474 127 l 1,23,24
 582 67 582 67 726 67 c 0,25,26
 954 67 954 67 1079 200 c 0,27,28
 1187 315 1187 315 1187 473 c 0,29,30
 1187 617 1187 617 1102 695 c 0,31,32
 990 798 990 798 804 798 c 1,33,34
 804 1106 804 1106 1060 1264 c 1,35,36
 1046 1301 1046 1301 1018 1330 c 0,37,38
 954 1396 954 1396 835 1396 c 0,39,40
 661 1396 661 1396 539 1251 c 0,41,42
 400 1086 400 1086 400 873 c 2,43,-1
 400 0 l 1,44,-1
 200 0 l 1,0,-1
EndSplineSet
Validated: 1
EndChar

StartChar: uni203D
Encoding: 8253 8253 225
Width: 1344
Flags: W
HStem: -20 255<539.129 714.809> 1105 21G<230.438 284> 1410 120<478.239 825.265>
VStem: 501 252<19.2217 196.809> 969 225<869.013 1256.33>
LayerCount: 2
Fore
SplineSet
707 1530 m 0,0,1
 926 1530 926 1530 1067 1391 c 0,2,3
 1194 1266 1194 1266 1194 1063 c 0,4,5
 1194 878 1194 878 1047 721 c 2,6,-1
 703 353 l 1,7,-1
 572 353 l 1,8,-1
 527 1160 l 1,9,-1
 727 1160 l 1,10,-1
 691 512 l 1,11,-1
 841 713 l 2,12,13
 969 884 969 884 969 1060 c 0,14,15
 969 1214 969 1214 887 1312 c 128,-1,16
 805 1410 805 1410 661 1410 c 0,17,18
 496 1410 496 1410 377 1294 c 0,19,20
 301 1220 301 1220 267 1105 c 1,21,-1
 150 1169 l 1,22,23
 194 1244 194 1244 229 1289 c 0,24,25
 415 1530 415 1530 707 1530 c 0,0,1
627 -20 m 0,26,27
 574 -20 574 -20 538 18 c 0,28,29
 501 57 501 57 501 108 c 0,30,31
 501 157 501 157 538 197 c 0,32,33
 573 235 573 235 627 235 c 0,34,35
 679 235 679 235 716 198 c 0,36,37
 753 160 753 160 753 108 c 0,38,39
 753 55 753 55 716 17 c 0,40,41
 678 -20 678 -20 627 -20 c 0,26,27
EndSplineSet
Validated: 1
EndChar

StartChar: afii61352
Encoding: 8470 8470 226
Width: 2280
Flags: W
HStem: 0 120<1520 2130> 182 61<1726.18 1888.4> 702 61<1761.21 1922.64> 1396 134<704.255 1056.48> 1490 20G<200 400>
VStem: 200 200<0 1094.59 1216 1510> 1171 200<0 1278.78> 1520 140<298.402 599.32> 1990 140<345.981 646.839>
LayerCount: 2
Fore
SplineSet
1520 0 m 1,0,-1
 1520 120 l 1,1,-1
 2130 120 l 1,2,-1
 2130 0 l 1,3,-1
 1520 0 l 1,0,-1
1862 763 m 24,4,5
 1988 763 1988 763 2060 687 c 0,6,7
 2130 614 2130 614 2130 495 c 0,8,9
 2130 377 2130 377 2031 280 c 0,10,11
 1930 182 1930 182 1786 182 c 24,12,13
 1661 182 1661 182 1589 259 c 0,14,15
 1520 333 1520 333 1520 451 c 128,-1,16
 1520 569 1520 569 1619 665 c 0,17,18
 1720 763 1720 763 1862 763 c 24,4,5
1852 702 m 0,19,20
 1777 702 1777 702 1724 637 c 24,21,22
 1660 559 1660 559 1660 455 c 0,23,24
 1660 353 1660 353 1702 299 c 0,25,26
 1745 243 1745 243 1798 243 c 0,27,28
 1873 243 1873 243 1926 308 c 24,29,30
 1990 386 1990 386 1990 491 c 0,31,32
 1990 595 1990 595 1950 645 c 0,33,34
 1904 702 1904 702 1852 702 c 0,19,20
200 0 m 1,35,-1
 200 1510 l 1,36,-1
 400 1510 l 1,37,-1
 400 1216 l 1,38,39
 486 1359 486 1359 620 1442 c 0,40,41
 761 1530 761 1530 928 1530 c 0,42,43
 1148 1530 1148 1530 1268 1408 c 0,44,45
 1371 1304 1371 1304 1371 1100 c 2,46,-1
 1371 0 l 1,47,-1
 1171 0 l 1,48,-1
 1171 1098 l 2,49,50
 1171 1232 1171 1232 1104 1310 c 0,51,52
 1030 1396 1030 1396 891 1396 c 0,53,54
 685 1396 685 1396 549 1251 c 0,55,56
 400 1092 400 1092 400 873 c 2,57,-1
 400 0 l 1,58,-1
 200 0 l 1,35,-1
EndSplineSet
Validated: 1
EndChar

StartChar: uni2117
Encoding: 8471 8471 227
Width: 1401
Flags: W
HStem: 386 55<534.73 857.893> 760 54<606.785 798.586> 1275 79<647.349 863.328> 1475 55<542.972 858.032>
VStem: 150 60<779.952 1138.53> 408 140<579 1177.29 1249 1346> 915 151<925.906 1226.81> 1190 61<771.255 1146.12>
LayerCount: 2
Fore
SplineSet
408 579 m 1,0,-1
 408 1346 l 1,1,-1
 548 1346 l 1,2,-1
 548 1249 l 1,3,4
 639 1354 639 1354 778.5 1354 c 128,-1,5
 918 1354 918 1354 992 1284 c 128,-1,6
 1066 1214 1066 1214 1066 1101 c 0,7,8
 1066 936 1066 936 943 833 c 0,9,10
 856 760 856 760 725 760 c 0,11,12
 627 760 627 760 563 817 c 1,13,-1
 581 838 l 1,14,15
 630 814 630 814 707 814 c 128,-1,16
 784 814 784 814 843 877 c 0,17,18
 915 953 915 953 915 1094 c 0,19,20
 915 1179 915 1179 872 1227 c 128,-1,21
 829 1275 829 1275 754.5 1275 c 128,-1,22
 680 1275 680 1275 617 1209 c 0,23,24
 548 1135 548 1135 548 1021 c 2,25,-1
 548 579 l 1,26,-1
 408 579 l 1,0,-1
701 1530 m 0,27,28
 943 1530 943 1530 1099 1357 c 0,29,30
 1251 1188 1251 1188 1251 953 c 0,31,32
 1251 701 1251 701 1090 549 c 0,33,34
 919 386 919 386 699 386 c 0,35,36
 476 386 476 386 311 549 c 0,37,38
 150 708 150 708 150 953 c 0,39,40
 150 1197 150 1197 308 1362 c 0,41,42
 469 1530 469 1530 701 1530 c 0,27,28
699 1475 m 0,43,44
 503 1475 503 1475 357 1330 c 0,45,46
 210 1184 210 1184 210 953 c 0,47,48
 210 751 210 751 354 591 c 0,49,50
 489 441 489 441 701 441 c 0,51,52
 898 441 898 441 1047 591 c 0,53,54
 1190 736 1190 736 1190 953 c 0,55,56
 1190 1188 1190 1188 1049 1327 c 0,57,58
 899 1475 899 1475 699 1475 c 0,43,44
EndSplineSet
Validated: 1
EndChar

StartChar: integral
Encoding: 8747 8747 228
Width: 849
Flags: W
HStem: -430 120<20 203.225> 1640 120<645.775 829>
VStem: 327 195<-188.125 1518.12>
LayerCount: 2
Fore
SplineSet
20 -430 m 1,0,-1
 20 -310 l 1,1,2
 327 -310 327 -310 327 0 c 2,3,-1
 327 1330 l 2,4,5
 327 1760 327 1760 829 1760 c 1,6,-1
 829 1640 l 1,7,8
 522 1640 522 1640 522 1330 c 2,9,-1
 522 0 l 2,10,11
 522 -430 522 -430 20 -430 c 1,0,-1
EndSplineSet
Validated: 1
EndChar

StartChar: Aringacute
Encoding: 506 506 229
Width: 1537
Flags: W
HStem: 0 21G<5 144.649 1304.38 1532> 696 120<489 961> 1362 148<659 878> 1570 92<569.054 710.946> 1848 92<569.054 710.946>
VStem: 458 91<1682.75 1827.25> 731 91<1682.75 1827.25>
DStem2: 5 0 136 0 0.397437 0.91763<52.0642 810.363 941.145 1535.97> 878 1510 725 1362 0.397437 -0.91763<75.0013 669.822 800.604 1558.51>
LayerCount: 2
Fore
SplineSet
640 1848 m 128,-1,1
 602 1848 602 1848 575.5 1821 c 128,-1,2
 549 1794 549 1794 549 1755 c 128,-1,3
 549 1716 549 1716 575.5 1689 c 128,-1,4
 602 1662 602 1662 640 1662 c 128,-1,5
 678 1662 678 1662 704.5 1689 c 128,-1,6
 731 1716 731 1716 731 1755 c 128,-1,7
 731 1794 731 1794 704.5 1821 c 128,-1,0
 678 1848 678 1848 640 1848 c 128,-1,1
640 1940 m 128,-1,9
 716 1940 716 1940 769 1886 c 128,-1,10
 822 1832 822 1832 822 1755 c 128,-1,11
 822 1678 822 1678 769 1624 c 128,-1,12
 716 1570 716 1570 640 1570 c 128,-1,13
 564 1570 564 1570 511 1624 c 128,-1,14
 458 1678 458 1678 458 1755 c 128,-1,15
 458 1832 458 1832 511 1886 c 128,-1,8
 564 1940 564 1940 640 1940 c 128,-1,9
1011 1940 m 1,16,-1
 1155 1838 l 1,17,-1
 932 1570 l 1,18,-1
 837 1637 l 1,19,-1
 1011 1940 l 1,16,-1
5 0 m 1,20,-1
 659 1510 l 1,21,-1
 878 1510 l 1,22,-1
 1532 0 l 1,23,-1
 1313 0 l 1,24,-1
 1013 696 l 1,25,-1
 437 696 l 1,26,-1
 136 0 l 1,27,-1
 5 0 l 1,20,-1
961 816 m 1,28,-1
 725 1362 l 1,29,-1
 489 816 l 1,30,-1
 961 816 l 1,28,-1
EndSplineSet
Validated: 1
EndChar

StartChar: aringacute
Encoding: 507 507 230
Width: 1325
Flags: W
HStem: -20 87<483.43 755.006> 0 21G<945 1125> 1020 100<540.91 853.515> 1160 92<471.054 612.946> 1438 92<471.054 612.946>
VStem: 100 201<260.829 709.842> 360 91<1272.75 1417.25> 633 91<1272.75 1417.25> 945 180<0 918.312>
LayerCount: 2
Fore
SplineSet
542 1438 m 128,-1,1
 504 1438 504 1438 477.5 1411 c 128,-1,2
 451 1384 451 1384 451 1345 c 128,-1,3
 451 1306 451 1306 477.5 1279 c 128,-1,4
 504 1252 504 1252 542 1252 c 128,-1,5
 580 1252 580 1252 606.5 1279 c 128,-1,6
 633 1306 633 1306 633 1345 c 128,-1,7
 633 1384 633 1384 606.5 1411 c 128,-1,0
 580 1438 580 1438 542 1438 c 128,-1,1
542 1530 m 128,-1,9
 618 1530 618 1530 671 1476 c 128,-1,10
 724 1422 724 1422 724 1345 c 128,-1,11
 724 1268 724 1268 671 1214 c 128,-1,12
 618 1160 618 1160 542 1160 c 128,-1,13
 466 1160 466 1160 413 1214 c 128,-1,14
 360 1268 360 1268 360 1345 c 128,-1,15
 360 1422 360 1422 413 1476 c 128,-1,8
 466 1530 466 1530 542 1530 c 128,-1,9
906 1530 m 1,16,-1
 1050 1428 l 1,17,-1
 827 1160 l 1,18,-1
 732 1227 l 1,19,-1
 906 1530 l 1,16,-1
1125 0 m 1,20,-1
 945 0 l 1,21,-1
 945 711 l 2,22,23
 945 854 945 854 895 929 c 0,24,25
 833 1020 833 1020 719 1020 c 0,26,27
 542 1020 542 1020 429 878 c 0,28,29
 301 719 301 719 301 497 c 0,30,31
 301 304 301 304 382 201 c 0,32,33
 488 67 488 67 641 67 c 0,34,35
 729 67 729 67 813 91 c 1,36,-1
 821 83 l 1,37,38
 741 -20 741 -20 597 -20 c 0,39,40
 372 -20 372 -20 227 133 c 0,41,42
 100 267 100 267 100 477 c 0,43,44
 100 742 100 742 299 939 c 0,45,46
 482 1120 482 1120 737 1120 c 0,47,48
 913 1120 913 1120 1011 1024 c 0,49,50
 1125 912 1125 912 1125 711 c 2,51,-1
 1125 0 l 1,20,-1
EndSplineSet
Validated: 1
EndChar

StartChar: AEacute
Encoding: 508 508 231
Width: 2284
Flags: W
HStem: -20 120<1488 1757.29> 0 21G<5 144.649> 696 120<489 961 1231 1830> 1362 148<659 878> 1410 120<1420.83 1867.58>
DStem2: 5 0 136 0 0.397437 0.91763<52.0642 810.363 941.145 1535.97> 878 1510 725 1362 0.397297 -0.91769<75.0318 326.956 504.355 669.853 887.246 1553.1>
LayerCount: 2
Fore
SplineSet
1331 1940 m 1,0,-1
 1475 1838 l 1,1,-1
 1252 1570 l 1,2,-1
 1157 1637 l 1,3,-1
 1331 1940 l 1,0,-1
5 0 m 1,4,-1
 659 1510 l 1,5,-1
 878 1510 l 1,6,-1
 1008 1210 l 1,7,8
 1049 1260 1049 1260 1099 1306 c 0,9,10
 1342 1530 1342 1530 1686 1530 c 0,11,12
 2006 1530 2006 1530 2203 1323 c 1,13,-1
 2030 1233 l 1,14,15
 1898 1410 1898 1410 1654 1410 c 0,16,17
 1393 1410 1393 1410 1234 1230 c 0,18,19
 1144 1128 1144 1128 1094 1011 c 1,20,-1
 1179 816 l 1,21,-1
 1830 816 l 1,22,-1
 1830 696 l 1,23,-1
 1231 696 l 1,24,-1
 1488 101 l 1,25,26
 1509 100 1509 100 1531 100 c 0,27,28
 1791 100 1791 100 1951 280 c 0,29,30
 2014 351 2014 351 2057 432 c 1,31,-1
 2204 327 l 1,32,33
 2157 264 2157 264 2090 202 c 0,34,35
 1849 -20 1849 -20 1503 -20 c 0,36,37
 1401 -20 1401 -20 1313 0 c 1,38,-1
 1013 696 l 1,39,-1
 437 696 l 1,40,-1
 136 0 l 1,41,-1
 5 0 l 1,4,-1
961 816 m 1,42,-1
 725 1362 l 1,43,-1
 489 816 l 1,44,-1
 961 816 l 1,42,-1
EndSplineSet
Validated: 1
EndChar

StartChar: aeacute
Encoding: 509 509 232
Width: 1881
Flags: W
HStem: -20 87<483.43 755.006 1168.2 1449.84> 500 100<1125 1512> 1020 100<540.91 851.645 1228.6 1555.04> 1510 20G<1093.51 1133.24>
VStem: 100 201<260.829 709.842> 945 180<109.446 500 600 867.777>
LayerCount: 2
Fore
SplineSet
1105 1530 m 1,0,-1
 1249 1428 l 1,1,-1
 1026 1160 l 1,2,-1
 931 1227 l 1,3,-1
 1105 1530 l 1,0,-1
945 0 m 1,4,-1
 945 711 l 2,5,6
 945 854 945 854 895 929 c 0,7,8
 833 1020 833 1020 719 1020 c 0,9,10
 542 1020 542 1020 429 878 c 0,11,12
 301 719 301 719 301 497 c 0,13,14
 301 304 301 304 382 201 c 0,15,16
 488 67 488 67 641 67 c 0,17,18
 729 67 729 67 813 91 c 1,19,-1
 821 83 l 1,20,21
 741 -20 741 -20 597 -20 c 0,22,23
 372 -20 372 -20 227 133 c 0,24,25
 100 267 100 267 100 477 c 0,26,27
 100 742 100 742 299 939 c 0,28,29
 482 1120 482 1120 737 1120 c 0,30,31
 915 1120 915 1120 1011 1024 c 0,32,33
 1026 1009 1026 1009 1040 992 c 1,34,35
 1205 1120 1205 1120 1427 1120 c 0,36,37
 1652 1120 1652 1120 1797 967 c 1,38,-1
 1649 890 l 1,39,40
 1547 1020 1547 1020 1409 1020 c 0,41,42
 1224 1020 1224 1020 1103 870 c 1,43,44
 1125 799 1125 799 1125 711 c 2,45,-1
 1125 600 l 1,46,-1
 1512 600 l 1,47,-1
 1512 500 l 1,48,-1
 1125 500 l 1,49,-1
 1125 137 l 1,50,51
 1199 80 1199 80 1295 80 c 0,52,53
 1482 80 1482 80 1595 222 c 0,54,55
 1640 278 1640 278 1669 341 c 1,56,-1
 1801 248 l 1,57,58
 1767 203 1767 203 1725 161 c 0,59,60
 1544 -20 1544 -20 1277 -20 c 0,61,62
 1196 -20 1196 -20 1125 0 c 1,63,-1
 945 0 l 1,4,-1
EndSplineSet
Validated: 1
EndChar

StartChar: Oslashacute
Encoding: 510 510 233
Width: 1759
Flags: W
HStem: -20 120<601.626 1052.17> 1410 120<706.834 1156.66>
VStem: 100 220<420.134 939.165> 1439 220<570.835 1089.87>
DStem2: 424 66 515 25 0.499887 0.86609<-50.9194 0.833027 163.476 1485.76 1648.21 1699.29>
LayerCount: 2
Fore
SplineSet
983 1940 m 1,0,-1
 1127 1838 l 1,1,-1
 904 1570 l 1,2,-1
 809 1637 l 1,3,-1
 983 1940 l 1,0,-1
788 -20 m 0,4,5
 638 -20 638 -20 515 25 c 1,6,-1
 485 -28 l 1,7,-1
 398 22 l 1,8,-1
 424 66 l 1,9,10
 340 113 340 113 271 185 c 0,11,12
 100 365 100 365 100 648 c 0,13,14
 100 1044 100 1044 384 1306 c 0,15,16
 627 1530 627 1530 971 1530 c 0,17,18
 1121 1530 1121 1530 1243 1486 c 1,19,-1
 1273 1538 l 1,20,-1
 1360 1488 l 1,21,-1
 1335 1444 l 1,22,23
 1420 1397 1420 1397 1488 1325 c 0,24,25
 1659 1145 1659 1145 1659 862 c 0,26,27
 1659 466 1659 466 1375 204 c 0,28,29
 1132 -20 1132 -20 788 -20 c 0,4,5
818 100 m 0,30,31
 1079 100 1079 100 1238 280 c 0,32,33
 1439 507 1439 507 1439 839 c 0,34,35
 1439 1071 1439 1071 1317 1233 c 0,36,37
 1288 1272 1288 1272 1253 1303 c 1,38,-1
 588 151 l 1,39,40
 687 100 687 100 818 100 c 0,30,31
505 208 m 1,41,-1
 1170 1359 l 1,42,43
 1071 1410 1071 1410 941 1410 c 0,44,45
 680 1410 680 1410 521 1230 c 0,46,47
 320 1003 320 1003 320 671 c 0,48,49
 320 439 320 439 442 277 c 0,50,51
 471 238 471 238 505 208 c 1,41,-1
EndSplineSet
Validated: 1
EndChar

StartChar: oslashacute
Encoding: 511 511 234
Width: 1344
Flags: W
HStem: -20 100<479.203 800.129> 1020 100<543.63 864.797> 1510 20G<769.515 809.235>
VStem: 100 201<264.213 709.842> 1043 201<390.158 835.787>
DStem2: 294 -5 380 -55 0.500153 0.865937<0 68.9489 212.349 1126.96 1270.36 1339.31>
LayerCount: 2
Fore
SplineSet
781 1530 m 1,0,-1
 925 1428 l 1,1,-1
 702 1160 l 1,2,-1
 607 1227 l 1,3,-1
 781 1530 l 1,0,-1
597 -20 m 0,4,5
 500 -20 500 -20 417 9 c 1,6,-1
 380 -55 l 1,7,-1
 294 -5 l 1,8,-1
 327 52 l 1,9,10
 273 85 273 85 227 133 c 0,11,12
 100 267 100 267 100 477 c 0,13,14
 100 742 100 742 299 939 c 0,15,16
 482 1120 482 1120 747 1120 c 0,17,18
 844 1120 844 1120 927 1091 c 1,19,-1
 964 1155 l 1,20,-1
 1050 1105 l 1,21,-1
 1017 1048 l 1,22,23
 1071 1015 1071 1015 1117 967 c 0,24,25
 1244 833 1244 833 1244 623 c 0,26,27
 1244 358 1244 358 1045 161 c 0,28,29
 861 -20 861 -20 597 -20 c 0,4,5
615 80 m 0,30,31
 802 80 802 80 915 222 c 0,32,33
 1043 381 1043 381 1043 603 c 0,34,35
 1043 792 1043 792 962 899 c 0,36,37
 953 911 953 911 944 921 c 1,38,-1
 478 115 l 1,39,40
 540 80 540 80 615 80 c 0,30,31
400 179 m 1,41,-1
 866 985 l 1,42,43
 804 1020 804 1020 729 1020 c 0,44,45
 542 1020 542 1020 429 878 c 0,46,47
 301 719 301 719 301 497 c 0,48,49
 301 308 301 308 382 201 c 0,50,51
 391 189 391 189 400 179 c 1,41,-1
EndSplineSet
Validated: 1
EndChar

StartChar: Scommaaccent
Encoding: 536 536 235
Width: 1284
Flags: W
HStem: -430 21G<507.642 552.642> -20 120<434.079 810.18> 1410 120<560.275 863.921>
VStem: 281 188<1082.85 1319.8> 980 204<292.665 582.496>
DStem2: 612 1009 515 818 0.898384 -0.43921<-156.308 506.831>
LayerCount: 2
Fore
SplineSet
617 -20 m 0,0,1
 309 -20 309 -20 100 206 c 1,2,-1
 257 293 l 1,3,4
 401 100 401 100 630 100 c 0,5,6
 824 100 824 100 919 248 c 0,7,8
 980 343 980 343 980 454 c 0,9,10
 980 591 980 591 830 664 c 2,11,-1
 515 818 l 2,12,13
 281 932 281 932 281 1149 c 0,14,15
 281 1316 281 1316 422 1430 c 0,16,17
 546 1530 546 1530 712 1530 c 0,18,19
 922 1530 922 1530 1074 1391 c 1,20,-1
 938 1290 l 1,21,22
 858 1410 858 1410 719 1410 c 0,23,24
 602 1410 602 1410 535 1346 c 0,25,26
 469 1283 469 1283 469 1198 c 0,27,28
 469 1078 469 1078 612 1009 c 2,29,-1
 905 867 l 2,30,31
 1184 732 1184 732 1184 495 c 0,32,33
 1184 313 1184 313 1057 168 c 0,34,35
 892 -20 892 -20 617 -20 c 0,0,1
615 -60 m 1,36,-1
 759 -162 l 1,37,-1
 536 -430 l 1,38,-1
 441 -363 l 1,39,-1
 615 -60 l 1,36,-1
EndSplineSet
Validated: 1
EndChar

StartChar: scommaaccent
Encoding: 537 537 236
Width: 1020
Flags: W
HStem: -430 21G<377.642 422.642> -20 100<321.494 654.616> 1020 100<440.182 692.608>
VStem: 229 160<781.82 967.351> 753 167<182.083 420.562>
DStem2: 485 747 411 575 0.901816 -0.43212<-119.941 395.687>
LayerCount: 2
Fore
SplineSet
490 -20 m 0,0,1
 250 -20 250 -20 100 154 c 1,2,-1
 224 222 l 1,3,4
 319 80 319 80 483 80 c 0,5,6
 623 80 623 80 692 156 c 0,7,8
 753 223 753 223 753 316 c 0,9,10
 753 411 753 411 651 460 c 2,11,-1
 411 575 l 2,12,13
 229 662 229 662 229 816 c 0,14,15
 229 953 229 953 340 1041 c 0,16,17
 439 1120 439 1120 572 1120 c 0,18,19
 729 1120 729 1120 837 1014 c 1,20,-1
 728 933 l 1,21,22
 673 1020 673 1020 576 1020 c 0,23,24
 482 1020 482 1020 432 968 c 0,25,26
 389 923 389 923 389 870 c 0,27,28
 389 793 389 793 485 747 c 2,29,-1
 719 635 l 2,30,31
 920 539 920 539 920 354 c 0,32,33
 920 181 920 181 771 66 c 0,34,35
 659 -20 659 -20 490 -20 c 0,0,1
485 -60 m 1,36,-1
 629 -162 l 1,37,-1
 406 -430 l 1,38,-1
 311 -363 l 1,39,-1
 485 -60 l 1,36,-1
EndSplineSet
Validated: 1
EndChar

StartChar: uni021A
Encoding: 538 538 237
Width: 1160
Flags: W
HStem: -430 21G<465.642 510.642> 0 21G<480 680> 1390 120<20 480 680 1140>
VStem: 480 200<0 1390>
LayerCount: 2
Fore
SplineSet
573 -60 m 1,0,-1
 717 -162 l 1,1,-1
 494 -430 l 1,2,-1
 399 -363 l 1,3,-1
 573 -60 l 1,0,-1
480 0 m 1,4,-1
 480 1390 l 1,5,-1
 20 1390 l 1,6,-1
 20 1510 l 1,7,-1
 1140 1510 l 1,8,-1
 1140 1390 l 1,9,-1
 680 1390 l 1,10,-1
 680 0 l 1,11,-1
 480 0 l 1,4,-1
EndSplineSet
Validated: 1
EndChar

StartChar: uni021B
Encoding: 539 539 238
Width: 700
Flags: W
HStem: -430 21G<240.642 285.642> -20 100<408.477 540> 1000 100<60 200 380 680> 1490 20G<200 380>
VStem: 200 180<110.266 1000 1100 1510>
LayerCount: 2
Fore
SplineSet
348 -60 m 1,0,-1
 492 -162 l 1,1,-1
 269 -430 l 1,2,-1
 174 -363 l 1,3,-1
 348 -60 l 1,0,-1
540 -20 m 1,4,5
 200 -20 200 -20 200 209 c 2,6,-1
 200 1000 l 1,7,-1
 60 1000 l 1,8,-1
 60 1100 l 1,9,-1
 200 1100 l 1,10,-1
 200 1510 l 1,11,-1
 380 1510 l 1,12,-1
 380 1100 l 1,13,-1
 680 1100 l 1,14,-1
 680 1000 l 1,15,-1
 380 1000 l 1,16,-1
 380 209 l 2,17,18
 380 80 380 80 540 80 c 1,19,-1
 540 -20 l 1,4,5
EndSplineSet
Validated: 1
EndChar

StartChar: dotaccent
Encoding: 729 729 239
Width: 352
Flags: W
HStem: 1212 255<88.1292 263.809>
VStem: 50 252<1251.22 1428.81>
LayerCount: 2
Fore
SplineSet
176 1467 m 0,0,1
 228 1467 228 1467 265 1430 c 0,2,3
 302 1392 302 1392 302 1340 c 0,4,5
 302 1287 302 1287 265 1249 c 24,6,7
 227 1212 227 1212 176 1212 c 0,8,9
 123 1212 123 1212 87 1250 c 0,10,11
 50 1289 50 1289 50 1340 c 0,12,13
 50 1389 50 1389 87 1429 c 24,14,15
 122 1467 122 1467 176 1467 c 0,0,1
EndSplineSet
Validated: 1
EndChar

StartChar: idieresis
Encoding: 239 239 240
Width: 580
Flags: W
HStem: -20 100<408.477 540> 1080 20G<200 380> 1233 217<82.9106 233.512 344.911 506.875>
VStem: 52 214<1266.52 1416.94> 200 180<110.266 1100> 314 214<1266.52 1416.94>
LayerCount: 2
Fore
SplineSet
420 1450 m 0,0,1
 463 1450 463 1450 495.5 1418.5 c 128,-1,2
 528 1387 528 1387 528 1343 c 0,3,4
 528 1296 528 1296 496 1265 c 0,5,6
 464 1233 464 1233 420 1233 c 0,7,8
 373 1233 373 1233 343.5 1265.5 c 128,-1,9
 314 1298 314 1298 314 1342 c 0,10,11
 314 1384 314 1384 344 1418 c 24,12,13
 373 1450 373 1450 420 1450 c 0,0,1
158 1450 m 0,14,15
 201 1450 201 1450 233.5 1418.5 c 128,-1,16
 266 1387 266 1387 266 1343 c 0,17,18
 266 1298 266 1298 234.5 1265.5 c 128,-1,19
 203 1233 203 1233 158 1233 c 0,20,21
 110 1233 110 1233 82 1265 c 0,22,23
 52 1299 52 1299 52 1342 c 0,24,25
 52 1384 52 1384 82 1418 c 0,26,27
 111 1450 111 1450 158 1450 c 0,14,15
540 -20 m 17,28,29
 200 -20 200 -20 200 209 c 2,30,-1
 200 1100 l 1,31,-1
 380 1100 l 1,32,-1
 380 209 l 2,33,34
 380 80 380 80 540 80 c 1,35,-1
 540 -20 l 17,28,29
EndSplineSet
Validated: 1
EndChar

StartChar: Agrave
Encoding: 192 192 241
Width: 1537
Flags: W
HStem: 0 21G<5 144.649 1304.38 1532> 696 120<489 961> 1362 148<659 878>
DStem2: 5 0 136 0 0.397437 0.91763<52.0642 810.363 941.145 1535.97> 878 1510 725 1362 0.397437 -0.91763<75.0013 669.822 800.604 1558.51>
LayerCount: 2
Fore
SplineSet
689 1940 m 1,0,-1
 863 1637 l 1,1,-1
 768 1570 l 1,2,-1
 545 1838 l 1,3,-1
 689 1940 l 1,0,-1
5 0 m 1,4,-1
 659 1510 l 1,5,-1
 878 1510 l 1,6,-1
 1532 0 l 1,7,-1
 1313 0 l 1,8,-1
 1013 696 l 1,9,-1
 437 696 l 1,10,-1
 136 0 l 1,11,-1
 5 0 l 1,4,-1
961 816 m 1,12,-1
 725 1362 l 1,13,-1
 489 816 l 1,14,-1
 961 816 l 1,12,-1
EndSplineSet
Validated: 1
EndChar

